<svg width="327" height="220" viewBox="0 0 327 220" fill="none" xmlns="http://www.w3.org/2000/svg">
<mask id="mask0_237_2" style="mask-type:alpha" maskUnits="userSpaceOnUse" x="0" y="0" width="327" height="220">
<rect width="327" height="220" rx="8" fill="#F4ECE0"/>
</mask>
<g mask="url(#mask0_237_2)">
<rect width="327" height="220" rx="8" fill="#F4ECE0"/>
<path d="M323.3 21.2256H5V198.313H323.3V21.2256Z" fill="#F4ECE0"/>
<path d="M275.994 90.2538C269.86 91.9805 264.51 96.317 261.552 101.958C258.358 108.046 257.989 115.152 256.897 121.942C255.805 128.728 253.578 135.919 248.011 139.951C243.1 143.507 236.647 143.862 230.914 145.837C225.294 147.773 219.926 151.85 218.564 157.64C217.202 163.427 221.631 170.465 227.563 170.072C231.077 169.841 233.999 167.278 236.147 164.491C238.296 161.704 240.005 158.53 242.611 156.169C246.639 152.52 252.33 151.272 257.766 151.191C263.201 151.106 268.605 152.042 274.04 152.116C296.478 152.421 323.826 130.604 310.079 106.295C303.63 94.8845 289.167 86.5485 275.994 90.2538Z" fill="#F8E2E2"/>
<path opacity="0.43" d="M182.971 65.4193C179.38 73.9113 179.709 83.5805 181.507 92.6221C183.177 101.011 185.822 110.549 180.791 117.464C175.309 124.991 163.658 125.009 157.063 131.583C151.79 136.837 151.145 146.06 155.634 151.995C160.123 157.931 169.171 159.824 175.664 156.186C186.826 149.928 187.347 132.299 198.619 126.239C208.075 121.155 220.017 126.927 230.381 124.126C236.891 122.367 242.107 117.332 245.621 111.578C254.07 97.7457 253.358 78.8754 243.894 65.7172C230.126 46.5773 193.945 39.4752 182.971 65.4193Z" fill="#C8C7F9"/>
<path d="M93.5235 62.409C93.5944 74.8333 110.525 82.4353 110.018 94.8524C109.816 99.7739 106.781 104.16 106.026 109.028C104.771 117.148 110.515 125.314 118.124 128.413C127.247 132.125 138.675 129.005 144.642 121.169C150.61 113.333 150.585 101.486 144.582 93.6788C141.472 89.6331 136.849 86.3569 135.789 81.3645C134.501 75.3119 139.029 69.543 139.487 63.3699C139.994 56.5125 135.147 50.038 128.942 47.0808C117.631 41.6878 93.4277 46.3079 93.5235 62.409Z" fill="#ECF2F0"/>
<path d="M21.5197 105.199C16.3501 112.801 15.5062 123.193 19.559 131.448C23.6117 139.702 32.4583 145.425 41.6488 145.549C49.3182 145.652 57.3741 142.234 64.3947 145.322C72.6881 148.971 75.7339 160.204 84.1905 163.452C89.1651 165.363 95.0475 163.852 99.1145 160.409C103.178 156.966 105.568 151.85 106.56 146.616C107.38 142.308 107.309 137.752 105.731 133.66C104.153 129.569 100.948 126.002 96.8062 124.566C93.5618 123.438 90.0019 123.654 86.6583 122.867C80.861 121.502 76.1913 117.254 72.291 112.751C64.4869 103.738 58.5442 96.6572 46.4072 93.8702C37.1209 91.7393 26.7001 97.5862 21.5197 105.199Z" fill="#F8E2E2"/>
<path d="M88.2646 177.72C89.4383 176.897 90.7041 178.706 91.8813 177.883C93.0549 177.06 91.7891 175.252 92.9663 174.43C94.1399 173.607 95.4093 175.415 96.5829 174.593C97.7566 173.77 96.4907 171.962 97.6679 171.139C98.8416 170.316 100.111 172.125 101.285 171.302" stroke="#0B1119" stroke-width="1.5563" stroke-miterlimit="10" stroke-linecap="round" stroke-linejoin="round"/>
<path d="M229.203 178.734C230.377 177.911 231.642 179.72 232.82 178.897C233.993 178.075 232.727 176.266 233.905 175.444C235.078 174.621 236.348 176.429 237.521 175.607C238.695 174.784 237.429 172.976 238.606 172.153C239.78 171.331 241.049 173.139 242.223 172.316" stroke="#0B1119" stroke-width="1.5563" stroke-miterlimit="10" stroke-linecap="round" stroke-linejoin="round"/>
<path d="M40.7937 55.2932C41.9673 54.4706 43.2332 56.2789 44.4103 55.4563C45.584 54.6337 44.3182 52.8254 45.4953 52.0027C46.669 51.1801 47.9383 52.9885 49.112 52.1659C50.2856 51.3432 49.0198 49.5349 50.197 48.7123C51.3706 47.8897 52.64 49.698 53.8136 48.8754" stroke="#0B1119" stroke-width="1.5563" stroke-miterlimit="10" stroke-linecap="round" stroke-linejoin="round"/>
<path d="M113.879 50.9209C114.992 51.8251 113.595 53.5376 114.708 54.4454C115.822 55.3531 117.215 53.6405 118.329 54.5446C119.442 55.4523 118.048 57.1614 119.158 58.0691C120.272 58.9768 121.665 57.2642 122.778 58.1684C123.892 59.0761 122.498 60.7851 123.608 61.6928" stroke="#0B1119" stroke-width="1.5563" stroke-miterlimit="10" stroke-linecap="round" stroke-linejoin="round"/>
<path d="M234.97 101.862C236.083 102.766 234.686 104.479 235.8 105.387C236.913 106.294 238.306 104.582 239.42 105.486C240.533 106.394 239.14 108.103 240.25 109.01C241.363 109.918 242.756 108.206 243.87 109.11C244.983 110.017 243.59 111.727 244.699 112.634" stroke="#0B1119" stroke-width="1.5563" stroke-miterlimit="10" stroke-linecap="round" stroke-linejoin="round"/>
<path d="M291.251 59.0977C292.364 60.0018 290.967 61.7144 292.08 62.6221C293.194 63.5298 294.587 61.8172 295.701 62.7214C296.814 63.6291 295.421 65.3381 296.53 66.2458C297.644 67.1536 299.037 65.441 300.151 66.3451C301.264 67.2528 299.87 68.9619 300.98 69.8696" stroke="#0B1119" stroke-width="1.5563" stroke-miterlimit="10" stroke-linecap="round" stroke-linejoin="round"/>
<path d="M156.652 61.8598C154.758 59.9876 151.879 59.1508 149.291 59.7784C147.408 60.2358 145.77 61.3882 144.32 62.6753C142.873 63.9624 141.568 65.409 140.058 66.6217C138.7 67.7102 137.164 68.6108 135.498 69.1321C133.555 69.7384 131.615 69.5221 129.619 69.4654C126.715 69.3838 124.038 70.5645 123.46 73.6529C122.992 76.1384 124.219 78.9892 126.481 80.1912C128.332 81.1769 130.622 80.8436 132.58 80.0954C134.54 79.3473 136.349 78.2162 138.356 77.6063C143.586 76.0143 149.674 78.0744 154.467 75.4505C156.804 74.1705 158.531 71.8091 158.978 69.1817C159.417 66.5579 158.545 63.7284 156.652 61.8598Z" fill="#0B1119"/>
<path d="M133.435 90.4136L149.284 92.9239L149.653 92.9842C150.39 93.1012 151.114 92.8637 151.635 92.4063L164.034 81.4393C164.495 81.0316 164.538 80.326 164.13 79.865C163.79 79.4785 163.24 79.3863 162.8 79.6026L147.958 86.9317L150.312 86.414L134.463 83.9036C132.665 83.6199 130.978 84.8468 130.69 86.6445C130.41 88.4386 131.633 90.1264 133.435 90.4136Z" fill="#E35B27"/>
<path d="M117.402 85.6765L103.797 96.6505L106.41 96.3279L88.3837 90.5661C87.6781 90.3391 86.9229 90.7292 86.696 91.4348C86.4903 92.0765 86.7952 92.7609 87.3838 93.0481L104.378 101.377C105.151 101.756 106.031 101.675 106.708 101.239L106.992 101.054L121.66 91.5447C123.345 90.4526 123.823 88.2046 122.731 86.5204C121.639 84.8362 119.391 84.3575 117.707 85.4496C117.601 85.524 117.498 85.5985 117.402 85.6765Z" fill="#E35B27"/>
<path d="M128.825 80.0458C130.371 80.5599 132.034 79.7338 132.516 78.2126L133.392 75.4434C133.874 73.9223 133.002 72.2558 131.456 71.7417C129.91 71.2276 128.247 72.0537 127.765 73.5748L126.889 76.344C126.407 77.8652 127.279 79.5316 128.825 80.0458Z" fill="#E35B27"/>
<path d="M131.139 77.4468C130.838 79.4182 130.873 83.4816 131.309 85.3112C130.926 85.8466 130.355 85.9884 129.813 86.0948C129.27 86.1976 128.76 85.9813 128.235 85.8892C127.281 85.7225 126.622 85.4566 126.48 84.5808C126.664 84.3432 127.171 83.3398 127.448 82.7654C127.923 81.7797 128.356 79.2019 128.076 78.1985C129.21 78.2623 129.99 77.5957 131.139 77.4468Z" fill="#E35B27"/>
<path d="M129.453 77.4646C129.268 77.9007 128.772 78.1206 128.308 77.9575C127.843 77.7944 127.588 77.3086 127.705 76.8477L129.453 77.4646Z" fill="#FCFCFC"/>
<path d="M167.087 77.5494C166.842 77.2658 165.661 78.3614 165.661 78.3614C165.661 78.3614 167.108 76.8367 166.966 76.5921C166.736 76.2056 165.119 77.9643 165.119 77.9643C165.119 77.9643 166.828 76.007 166.406 75.7376C165.984 75.4681 164.523 77.5991 164.523 77.5991C164.523 77.5991 165.771 75.5142 165.37 75.344C164.97 75.1738 163.47 77.9288 163.47 77.9288C163.47 77.9288 163.137 76.3687 162.807 76.4113C162.25 76.4786 162.814 79.8152 162.814 79.8152L163.949 81.51C163.945 81.5065 167.328 77.8331 167.087 77.5494Z" fill="#E35B27"/>
<path d="M82.2631 92.417C82.217 91.9277 84.3445 91.8107 84.3445 91.8107C84.3445 91.8107 81.5682 91.7859 81.4689 91.4207C81.3129 90.8463 84.465 90.9278 84.465 90.9278C84.465 90.9278 81.0363 90.7505 81.1675 90.1052C81.2987 89.4599 84.6636 90.0272 84.6636 90.0272C84.6636 90.0272 81.5398 89.2933 81.7454 88.7579C81.9511 88.2225 85.9436 89.3287 85.9436 89.3287C85.9436 89.3287 84.7699 87.5807 85.1103 87.3041C85.5642 86.9389 87.298 89.0841 88.0178 90.0201C88.227 90.2896 88.3689 90.6016 88.4398 90.9349L88.4752 91.0909C88.6915 92.1015 87.8937 93.0411 86.8619 92.995C84.9224 92.9064 82.2915 92.7291 82.2631 92.417Z" fill="#E35B27"/>
<path d="M125.935 136.664C129.155 137.444 131.559 140.302 132.629 143.436C133.697 146.571 133.636 149.971 133.406 153.276C133.158 156.861 132.729 160.435 132.119 163.977C130.204 154.868 127.846 145.78 125.935 136.664Z" fill="#E35B27"/>
<path d="M109.222 133.239C112.048 133.402 114.746 135.721 116.427 138.55C118.108 141.38 118.934 144.667 119.601 147.897C120.324 151.4 120.895 154.924 121.31 158.449C117.399 150.007 113.13 141.678 109.222 133.239Z" fill="#E35B27"/>
<path d="M135.534 113.606C135.381 111.383 133.995 109.28 132.006 108.273C129.974 107.242 127.393 107.398 125.496 108.66C125.726 108.504 123.677 104.862 123.021 104.742C121.521 104.472 119.667 105.646 118.621 106.582C117.372 107.703 116.443 109.128 115.532 110.536C111.309 117.049 107.086 123.563 102.863 130.076C102.367 130.842 101.849 131.668 101.853 132.583C101.856 133.498 102.374 134.32 102.878 135.086C108.778 144.075 114.724 153.035 120.72 161.959C120.947 162.296 121.184 162.644 121.535 162.853C122.556 163.452 123.907 162.413 124.077 161.243C124.248 160.069 123.659 158.938 123.092 157.896C118.95 150.273 115.188 142.447 111.82 134.455C111.643 134.033 111.462 133.586 111.526 133.136C111.582 132.714 111.845 132.349 112.1 132.009C115.284 127.732 118.798 123.704 122.599 119.967C123.326 125.314 122.095 130.768 122.624 136.139C123.262 142.642 126.418 148.603 128.034 154.932C129.283 159.828 129.641 165.175 131.878 169.81C132.318 170.721 133.201 171.745 134.14 171.363C134.516 171.21 134.771 170.856 134.949 170.49C135.555 169.235 135.417 167.735 134.963 166.416C134.513 165.097 133.771 163.902 133.165 162.647C130.793 157.733 130.545 152.106 129.481 146.755C128.917 143.922 128.112 141.1 128.144 138.21C128.183 134.604 129.52 131.158 130.836 127.8C131.988 124.86 133.14 121.921 134.293 118.985C134.952 117.308 135.619 115.567 135.541 113.766C135.541 113.702 135.537 113.652 135.534 113.606Z" fill="#E35B27"/>
<path d="M139.794 89.1051C139.656 87.8358 139.11 86.4246 138.411 85.7757C138.404 85.7686 138.397 85.7651 138.394 85.758C137.433 84.8857 136.21 84.3255 134.891 83.9709H134.887C134.88 83.9674 134.876 83.9674 134.869 83.9674C133.635 83.6376 132.32 83.4887 131.043 83.432C130.1 83.3894 129.182 83.3965 128.338 83.4213C127.937 83.432 127.512 83.4603 127.076 83.51C126.838 83.5383 126.601 83.5702 126.356 83.6093C123.757 84.0276 116.9 84.7439 115.807 87.0131C115.499 87.6478 115.329 88.3676 115.332 89.1867C115.339 90.4561 117.669 91.8247 119.566 93.0302L122.112 109.075L133.671 110.387L142.865 88.5839L139.794 89.1051Z" fill="#E35B27"/>
<path d="M134.198 78.17C134.198 78.9039 133.602 79.4996 132.868 79.4996C132.134 79.4996 131.538 78.9039 131.538 78.17C131.538 77.436 132.134 76.8403 132.868 76.8403C133.602 76.8403 134.198 77.436 134.198 78.17Z" fill="#E35B27"/>
<path d="M119.723 98.2213H140.373C141.447 96.4024 142.483 94.4558 143.043 92.8815C143.043 92.8815 147.422 91.4809 147.684 85.9637C147.684 85.9637 141.377 82.8293 131.048 83.4321C131.048 83.4321 130.03 84.5596 127.084 83.5101C127.084 83.5101 120.194 82.0209 113.89 87.3643C113.557 87.648 118.794 93.931 118.794 93.931C118.794 93.931 119.173 95.9237 119.723 98.2213Z" fill="#FF74C7"/>
<path d="M134.114 169.651C133.568 170.232 132.759 170.644 131.986 170.927C132.557 171.477 132.979 172.172 133.156 172.938C133.419 174.065 133.188 175.239 133.206 176.391C133.238 178.646 134.27 180.877 135.982 182.394L139.783 168.222L134.904 166.914C135.114 167.889 134.841 168.878 134.114 169.651Z" fill="#E1D1C2"/>
<path d="M134.112 169.65C133.566 170.232 132.757 170.643 131.988 170.923C132.555 171.473 132.977 172.171 133.155 172.933C133.417 174.061 133.186 175.235 133.204 176.387C133.236 178.642 134.268 180.872 135.981 182.39L139.782 168.218L134.903 166.909C135.112 167.888 134.839 168.877 134.112 169.65Z" fill="#E1D1C2"/>
<path d="M136.833 182.28L140.535 168.484C140.641 168.09 140.4 167.682 140 167.576C139.599 167.47 139.184 167.704 139.081 168.094L135.38 181.89C135.273 182.284 135.514 182.691 135.915 182.798C136.316 182.904 136.727 182.674 136.833 182.28Z" fill="#E1D1C2"/>
<path d="M137.621 173.121C137.621 173.121 134.749 171.526 136.224 167.179" stroke="#AD9D8E" stroke-width="0.8426" stroke-miterlimit="10" stroke-linecap="round" stroke-linejoin="round"/>
<path d="M123.114 161.725C122.564 162.303 121.752 162.711 120.976 162.984C121.543 163.537 121.958 164.236 122.132 165.002C122.383 166.133 122.146 167.303 122.157 168.455C122.174 170.71 123.188 172.948 124.89 174.479L128.794 160.336L123.926 158.992C124.124 159.967 123.844 160.96 123.114 161.725Z" fill="#E1D1C2"/>
<path d="M123.113 161.725C122.564 162.303 121.752 162.708 120.979 162.984C121.543 163.537 121.957 164.239 122.131 165.002C122.383 166.133 122.145 167.303 122.156 168.455C122.174 170.71 123.188 172.948 124.89 174.479L128.794 160.336L123.925 158.992C124.124 159.967 123.844 160.96 123.113 161.725Z" fill="#E1D1C2"/>
<path d="M125.741 174.373L129.538 160.601C129.645 160.211 129.407 159.8 129.01 159.69C128.609 159.58 128.195 159.811 128.088 160.201L124.291 173.972C124.184 174.366 124.422 174.774 124.819 174.883C125.22 174.997 125.635 174.766 125.741 174.373Z" fill="#E1D1C2"/>
<path d="M126.596 165.221C126.596 165.221 123.734 163.604 125.241 159.268" stroke="#AD9D8E" stroke-width="0.8426" stroke-miterlimit="10" stroke-linecap="round" stroke-linejoin="round"/>
<path d="M121.718 105.153C119.655 104.855 116.098 107.982 114.503 111.234C113.361 113.563 113.358 113.691 111.337 115.322C109.493 116.808 106.887 117.244 105.319 119.02C103.774 120.772 103.671 123.328 102.834 125.513C101.912 127.913 100.104 129.842 98.6961 131.994C97.2884 134.146 96.253 136.841 97.1288 139.259C98.5755 143.248 104.036 144.011 106.702 147.308C109.273 150.492 108.773 155.446 111.528 158.474C113.804 160.977 118.112 161.25 120.687 159.052C123.261 156.853 123.669 152.559 121.555 149.918C122.708 146.51 121.258 142.043 118.428 139.823C118.946 138.965 118.286 136.777 117.694 135.969C117.102 135.16 116.279 134.547 115.652 133.763C115.024 132.98 114.599 131.902 114.996 130.98C116.194 128.183 118.854 126.903 120.665 124.456C119.002 130.402 120.073 137.036 123.112 142.412C122.704 145.986 123.715 149.414 125.612 152.471C125.179 154.701 125.317 157.179 125.488 159.445C125.658 161.711 126.509 164.019 128.25 165.48C130.147 167.069 133.001 167.402 135.213 166.296C137.426 165.189 138.869 162.707 138.738 160.236C138.628 158.194 137.561 156.339 136.518 154.577C138.887 152.683 139.951 149.549 139.571 146.539C139.195 143.532 137.167 140.78 134.405 139.529C135.352 138.203 135.536 136.767 135.206 135.171C134.877 133.576 133.855 132.132 132.462 131.292C135.774 128.775 137.912 124.399 138.114 120.247C138.316 116.092 137.235 112.837 134.182 110.011C134.919 108.599 135.777 106.578 135.838 105.352L121.718 105.153Z" fill="#1F0F05"/>
<path d="M120.498 91.1758C119.697 92.5232 120.236 94.4875 121.615 95.2392" stroke="#0B1119" stroke-width="1.0375" stroke-miterlimit="10" stroke-linecap="round" stroke-linejoin="round"/>
<path d="M130.432 90.7998C129.631 92.1472 130.17 94.1115 131.549 94.8632" stroke="#0B1119" stroke-width="1.0375" stroke-miterlimit="10" stroke-linecap="round" stroke-linejoin="round"/>
<path d="M118.686 106.419C121.327 109.295 121.668 113.812 124.487 116.514C126.27 118.223 128.944 118.946 131.344 118.372C133.744 117.794 135.797 115.936 136.613 113.606" stroke="#F2E4D7" stroke-width="1.0098" stroke-miterlimit="10" stroke-linecap="round" stroke-linejoin="round"/>
<path d="M111.147 115.255C113.994 118.237 114.289 123.314 111.81 126.608C109.332 129.902 104.368 131.019 100.716 129.108" stroke="#F2E4D7" stroke-width="1.0098" stroke-miterlimit="10" stroke-linecap="round" stroke-linejoin="round"/>
<path d="M137.762 121.882C133.316 122.439 129.394 125.963 128.369 130.324C127.646 133.402 128.266 136.625 128.015 139.777C127.767 142.926 126.178 146.418 123.1 147.145" stroke="#F2E4D7" stroke-width="1.0098" stroke-miterlimit="10" stroke-linecap="round" stroke-linejoin="round"/>
<path d="M116.769 134.788C115.936 134.405 115.032 135.214 114.617 136.033C113.574 138.097 113.798 140.554 114.195 142.83C114.592 145.106 115.138 147.436 114.67 149.698C114.202 151.96 112.344 154.144 110.032 154.081" stroke="#F2E4D7" stroke-width="1.0098" stroke-miterlimit="10" stroke-linecap="round" stroke-linejoin="round"/>
<path d="M137.969 142.848C135.267 143.575 132.905 145.482 131.625 147.971C130.345 150.46 130.168 153.488 131.147 156.109C131.728 157.665 132.725 159.098 134.111 160.023C135.494 160.945 137.281 161.314 138.869 160.824" stroke="#F2E4D7" stroke-width="1.0098" stroke-miterlimit="10" stroke-linecap="round" stroke-linejoin="round"/>
<path d="M128.766 71.5539C128.32 72.0007 128.05 72.6496 128.1 73.5183C128.16 74.5784 128.607 75.784 129.444 76.4754C130.149 77.0604 131.149 77.3086 132.021 77.0321C132.188 77.5675 131.908 78.2447 131.486 78.6135C133.039 77.805 134.23 76.0747 134.312 74.3267C134.351 73.5324 134.181 72.6992 133.674 72.0893C132.461 70.6356 129.965 70.359 128.766 71.5539Z" fill="#0B1119"/>
<path d="M123.853 74.0784C123.853 71.8375 125.303 69.6001 127.438 68.9122C128.859 68.4548 130.395 68.6782 131.884 68.5931C135.043 68.4123 138.082 66.7352 139.922 64.161C140.794 62.9377 141.404 61.5407 142.337 60.3635C143.269 59.1863 144.666 58.2148 146.162 58.3602" stroke="#0B1119" stroke-width="1.0375" stroke-miterlimit="10" stroke-linecap="round" stroke-linejoin="round"/>
<path d="M131.241 80.2693C133.004 80.8224 135.117 80.6239 136.833 79.9395C138.549 79.2552 140.272 78.4184 142.116 78.4007C143.96 78.383 145.712 79.1879 147.538 79.4467C150.069 79.8084 152.739 79.0638 154.718 77.4434" stroke="#0B1119" stroke-width="1.0375" stroke-miterlimit="10" stroke-linecap="round" stroke-linejoin="round"/>
<path d="M192.283 74.6382C192.216 75.5495 192.751 76.4856 192.443 77.3436C192.187 78.0599 191.443 78.4534 190.801 78.8612C190.159 79.269 189.496 79.8895 189.581 80.6447C189.645 81.2227 190.131 81.6588 190.62 81.9779C191.11 82.2935 191.656 82.5736 191.971 83.0629C192.368 83.6728 192.354 84.5273 192.897 85.0166C193.464 85.5272 194.365 85.3712 195.049 85.0308C195.733 84.6904 196.364 84.194 197.116 84.0805C198.432 83.8855 199.875 84.896 201.027 84.233C201.956 83.694 202.055 82.4317 202.378 81.407C202.654 80.5241 203.169 79.7299 203.431 78.8435C203.693 77.957 203.651 76.8791 202.967 76.2586C202.264 75.6204 201.062 75.6169 200.559 74.812C200.165 74.1808 200.36 73.266 199.839 72.7377C199.509 72.4009 198.981 72.3406 198.52 72.4257C198.056 72.5108 197.627 72.7129 197.173 72.8441C196.669 72.9859 196.137 73.0285 195.616 72.9753C195.123 72.9257 194.613 72.6384 194.123 72.6881C193.191 72.7767 192.351 73.7341 192.283 74.6382Z" fill="#0B1119" stroke="#0B1119" stroke-width="1.0375" stroke-miterlimit="10" stroke-linecap="round" stroke-linejoin="round"/>
<path d="M226.024 114.156L225.612 114.142L207.061 113.539C206.972 113.535 206.87 113.535 206.781 113.539C204.097 113.606 201.976 115.836 202.047 118.521C202.115 121.205 204.345 123.325 207.029 123.254H207.065L218.797 122.956L208.752 144.84C208.295 145.837 208.632 147.042 209.582 147.645C210.617 148.301 211.99 147.993 212.649 146.957L229.403 120.527C229.782 119.925 230.02 119.205 230.044 118.439C230.112 116.148 228.314 114.23 226.024 114.156Z" fill="#E35B27"/>
<path d="M218.75 113.922L207.063 113.542C206.974 113.539 206.872 113.539 206.783 113.542C204.099 113.61 201.978 115.84 202.049 118.524C202.117 121.208 204.347 123.328 207.031 123.258H207.067L212.339 123.123C214.162 119.889 216.537 116.911 218.75 113.922Z" fill="#0B1119"/>
<path d="M198.59 92.9484C198.231 94.0228 197.448 95.0191 196.37 95.5971C193.161 97.3132 189.094 94.9695 186.08 93.8029C183.293 92.725 180.485 91.3706 177.617 90.5267L177.294 90.4309C176.532 90.204 175.9 89.5942 175.688 88.7645L170.979 70.5784C170.958 70.4969 170.944 70.4153 170.94 70.3338C170.905 69.7842 171.217 69.2452 171.752 69.0183C172.213 68.8233 172.723 68.9084 173.092 69.1991C173.266 69.3339 173.408 69.5111 173.496 69.7274L178.113 80.666L180.159 85.513L183.385 86.1122L188.47 87.0519L193.172 87.9206L195.934 88.4312C196.054 88.4524 196.178 88.4843 196.299 88.5163C198.614 89.1864 199.182 91.1755 198.59 92.9484Z" fill="#E35B27"/>
<path d="M196.342 80.5276L197.754 83.4599C197.959 83.8854 198.232 84.2506 198.544 84.5449C199.338 85.286 200.399 85.5661 201.328 85.215C201.423 85.1796 201.516 85.137 201.608 85.0874C202.952 84.3712 203.413 82.4636 202.636 80.8467L202.189 79.9177L202.037 79.5986L201.225 77.9144C200.487 76.3826 198.892 75.6451 197.58 76.1876C197.509 76.216 197.438 76.2514 197.371 76.2869C196.225 76.9003 195.718 78.3789 196.08 79.8007C196.14 80.0454 196.225 80.29 196.342 80.5276Z" fill="#E35B27"/>
<path d="M201.423 83.2935C201.593 85.1089 202.21 86.8817 203.213 88.4206C202.908 88.9737 202.27 89.2184 201.66 89.4205C201.05 89.6226 200.394 89.5304 199.749 89.5552C198.582 89.5978 197.735 89.4949 197.338 88.7468C197.49 88.4986 197.82 87.5022 197.99 86.9349C198.288 85.9598 197.799 84.8784 197.203 84.0451C198.558 83.8714 200.111 83.6587 201.423 83.2935Z" fill="#E35B27"/>
<path d="M200.191 82.591C200.442 82.9846 200.967 83.1123 201.389 82.8747C201.811 82.6371 201.981 82.1159 201.786 81.6904L200.191 82.591Z" fill="#FCFCFC"/>
<path d="M190.185 96.6997L194.915 116.758L207.541 115.244L212.505 93.5865C212.998 90.1578 210.08 87.2113 206.647 87.6722L194.227 89.3387C190.745 89.8068 188.709 93.5085 190.185 96.6997Z" fill="#E35B27"/>
<path d="M168.504 66.8305C168.788 66.5362 170.007 67.8092 170.007 67.8092C170.007 67.8092 168.529 66.054 168.703 65.7952C168.979 65.3874 170.624 67.412 170.624 67.412C170.624 67.412 168.89 65.1641 169.366 64.8981C169.844 64.6322 171.298 67.0504 171.298 67.0504C171.298 67.0504 170.075 64.6925 170.522 64.5365C170.968 64.3804 172.422 67.4794 172.422 67.4794C172.422 67.4794 172.887 65.8023 173.245 65.8661C173.72 65.9512 173.305 68.1992 173.103 69.153C173.046 69.4296 172.926 69.6884 172.755 69.9118L172.674 70.0182C172.156 70.6989 171.135 70.706 170.61 70.0288C169.628 68.7665 168.323 67.0185 168.504 66.8305Z" fill="#E35B27"/>
<path d="M229.032 64.6749C228.66 64.565 228.366 66.1428 228.366 66.1428C228.366 66.1428 228.614 64.0544 228.345 63.9232C227.919 63.7175 227.678 66.0967 227.678 66.0967C227.678 66.0967 227.873 63.4941 227.366 63.4941C226.859 63.4941 226.969 66.1073 226.969 66.1073C226.969 66.1073 226.706 63.6466 226.277 63.7211C225.848 63.7955 226.309 66.9619 226.309 66.9619C226.309 66.9619 225.083 65.813 224.838 66.0258C224.423 66.3875 226.93 68.9297 226.93 68.9297L228.894 69.7594C228.894 69.763 229.405 64.7848 229.032 64.6749Z" fill="#E35B27"/>
<path d="M209.443 93.9624L223.92 87.4844L224.257 87.3319C224.931 87.0305 225.374 86.4348 225.523 85.7611L228.923 69.6494C229.051 69.0501 228.654 68.4261 228.037 68.2523C227.522 68.1105 227.019 68.3268 226.792 68.7523L219.169 83.0841L220.771 81.3609L206.294 87.8389C204.653 88.5729 204.025 90.5408 204.894 92.2286C205.766 93.9234 207.801 94.6999 209.443 93.9624Z" fill="#E35B27"/>
<path d="M195.147 83.6196C195.147 84.4351 195.806 85.0946 196.622 85.0946C197.437 85.0946 198.097 84.4351 198.097 83.6196C198.097 82.804 197.437 82.1445 196.622 82.1445C195.81 82.1445 195.147 82.804 195.147 83.6196Z" fill="#E35B27"/>
<path d="M211.403 144.72C212.059 145.113 212.917 145.28 213.707 145.337C213.324 145.992 213.119 146.748 213.158 147.503C213.215 148.616 213.736 149.637 214.023 150.708C214.587 152.8 214.222 155.137 213.041 156.988L205.79 144.89L209.956 142.394C210.013 143.347 210.527 144.195 211.403 144.72Z" fill="#E1D1C2"/>
<path d="M211.402 144.72C212.058 145.113 212.916 145.28 213.703 145.337C213.324 145.996 213.118 146.751 213.154 147.503C213.211 148.616 213.732 149.637 214.019 150.708C214.583 152.8 214.218 155.137 213.037 156.988L205.786 144.89L209.952 142.394C210.012 143.347 210.527 144.195 211.402 144.72Z" fill="#E1D1C2"/>
<path d="M212.219 157.109L205.159 145.33C204.957 144.993 205.074 144.553 205.415 144.347C205.755 144.142 206.202 144.248 206.4 144.585L213.46 156.364C213.662 156.701 213.545 157.14 213.205 157.346C212.864 157.548 212.421 157.442 212.219 157.109Z" fill="#E1D1C2"/>
<path d="M209.077 148.85C209.077 148.85 211.31 146.62 208.8 142.989" stroke="#AD9D8E" stroke-width="0.81" stroke-miterlimit="10" stroke-linecap="round" stroke-linejoin="round"/>
<path d="M185.751 171.206L201.104 137.894L200.746 140.49L193.137 119.123C191.924 115.723 193.701 111.985 197.101 110.773C200.502 109.56 204.239 111.337 205.451 114.737C205.629 115.237 205.746 115.779 205.799 116.283L208.036 138.851L208.111 139.6C208.178 140.273 208.011 140.915 207.678 141.447L188.187 172.522C187.78 173.171 186.925 173.366 186.276 172.961C185.673 172.586 185.461 171.83 185.751 171.206Z" fill="#E35B27"/>
<path d="M197.133 130.352C200.409 132.168 203.948 133.377 207.582 134.284L205.799 116.286C205.745 115.779 205.628 115.24 205.451 114.74C204.239 111.34 200.501 109.564 197.101 110.776C193.701 111.989 191.924 115.726 193.137 119.126L197.133 130.352Z" fill="#0B1119"/>
<path d="M188.906 168.689C189.671 168.483 190.409 167.965 191.019 167.423C191.232 168.178 191.643 168.873 192.231 169.387C193.097 170.146 194.231 170.49 195.235 171.047C197.192 172.132 198.663 174.078 199.192 176.287L185.002 172.983L186.14 168.1C186.892 168.735 187.888 168.962 188.906 168.689Z" fill="#E1D1C2"/>
<path d="M188.903 168.689C189.666 168.483 190.407 167.969 191.013 167.423C191.229 168.178 191.641 168.873 192.226 169.384C193.091 170.142 194.225 170.486 195.229 171.043C197.186 172.128 198.658 174.075 199.186 176.284L184.996 172.979L186.134 168.097C186.889 168.735 187.886 168.962 188.903 168.689Z" fill="#E1D1C2"/>
<path d="M198.688 176.975L184.874 173.759C184.48 173.667 184.235 173.266 184.328 172.866C184.42 172.465 184.82 172.213 185.21 172.302L199.025 175.518C199.418 175.61 199.663 176.011 199.571 176.411C199.478 176.816 199.081 177.067 198.688 176.975Z" fill="#E1D1C2"/>
<path d="M190.301 173.38C190.301 173.38 190.248 170.118 185.752 169.376" stroke="#AD9D8E" stroke-width="0.8366" stroke-miterlimit="10" stroke-linecap="round" stroke-linejoin="round"/>
<path d="M159.126 119.967C160.3 119.144 161.566 120.953 162.743 120.13C163.917 119.308 162.651 117.499 163.828 116.677C165.001 115.854 166.271 117.662 167.445 116.84C168.618 116.017 167.352 114.209 168.529 113.386C169.703 112.564 170.972 114.372 172.146 113.549" stroke="#0B1119" stroke-width="1.5563" stroke-miterlimit="10" stroke-linecap="round" stroke-linejoin="round"/>
<path d="M178.881 92.6542C178.711 89.7999 179.091 86.9101 180.002 84.1976C181.909 84.9706 184.264 85.2472 186.324 85.2897C188.384 85.3323 190.469 85.3039 192.465 85.8145C194.461 86.3215 196.167 86.9243 197.153 88.7326C197.957 88.7432 199.092 89.6722 199.684 90.2183C200.28 90.7608 200.72 91.4486 201.11 92.1542C201.968 93.6966 202.62 95.356 203.046 97.0722C203.315 94.2143 203.262 90.7962 202.978 87.9384C204.258 87.3533 205.811 87.1264 207.091 86.5414C210.91 84.7969 215.331 83.7119 219.09 81.8433C219.593 84.7969 219.732 87.715 219.491 90.7005C217.668 92.0337 215.555 92.7996 213.438 93.5832C212.087 101.132 210.91 108.94 209.559 116.492C209.258 118.169 208.896 119.963 207.659 121.133C206.634 122.101 205.109 122.47 203.723 122.201C202.336 121.931 201.102 121.07 200.255 119.939C199.347 118.722 198.854 117.205 197.787 116.127C196.72 115.045 194.667 114.663 193.816 115.921C193.348 116.613 193.426 117.527 193.55 118.354C193.869 120.46 194.369 122.541 195.046 124.562C191.242 124.339 188.21 121.35 188.327 117.542C188.398 115.24 189.522 113.124 190.253 110.936C191.859 106.146 191.554 100.738 189.416 96.1609C185.792 95.8524 182.115 94.3349 178.881 92.6542Z" fill="#FF9E00"/>
<path d="M184.649 85.2969C185.876 89.956 191.854 92.9627 196.091 91.7997C197.243 91.4842 198.353 90.8211 198.91 89.7255" stroke="#0B1119" stroke-width="1.0375" stroke-miterlimit="10" stroke-linecap="round" stroke-linejoin="round"/>
<path d="M213.158 84.3149C211.552 85.7261 210.301 87.07 209.56 89.0733C208.691 91.4135 208.521 93.9416 208.198 96.4165C207.875 98.8914 207.368 101.43 205.943 103.48C204.521 105.529 201.975 106.983 199.539 106.444C196.674 105.809 194.373 102.657 191.515 103.327" stroke="#0B1119" stroke-width="1.0375" stroke-miterlimit="10" stroke-linecap="round" stroke-linejoin="round"/>
<path d="M211.563 104.061C209.662 105.217 207.35 107.362 206.233 109.291C205.116 111.216 204.631 113.553 205.145 115.719C205.659 117.886 207.244 119.825 209.357 120.531" stroke="#0B1119" stroke-width="1.0375" stroke-miterlimit="10" stroke-linecap="round" stroke-linejoin="round"/>
<path d="M191.032 109.45C192.383 111.195 192.982 113.503 192.645 115.68C192.308 117.861 191.042 119.882 189.227 121.133" stroke="#0B1119" stroke-width="1.0375" stroke-miterlimit="10" stroke-linecap="round" stroke-linejoin="round"/>
<path d="M215.868 83.4458C215.996 84.5804 216.237 85.7186 216.794 86.715C217.347 87.7113 218.247 88.5552 219.35 88.8459" stroke="#0B1119" stroke-width="1.0375" stroke-miterlimit="10" stroke-linecap="round" stroke-linejoin="round"/>
<path d="M207.05 86.584C207.039 89.1546 205.639 91.6756 203.469 93.0478" stroke="#0B1119" stroke-width="1.0375" stroke-miterlimit="10" stroke-linecap="round" stroke-linejoin="round"/>
<path d="M197.237 82.3147C197.635 81.1375 197.464 79.7866 196.787 78.7477C197.124 79.2157 197.56 79.432 198.103 79.6235C198.649 79.815 199.28 79.7866 199.773 79.4852C200.266 79.1874 200.592 78.6023 200.521 78.0279C200.585 78.9853 201.361 79.6129 202.319 79.7192C202.177 78.386 201.762 76.9287 200.815 75.9785C199.868 75.0247 198.486 74.4751 197.159 74.6737C195.833 74.8722 194.621 75.8757 194.319 77.184C194.096 78.1556 194.373 79.198 194.919 80.0348C195.461 80.8751 196.394 81.7828 197.237 82.3147Z" fill="#0B1119" stroke="#0B1119" stroke-width="1.0375" stroke-miterlimit="10" stroke-linecap="round" stroke-linejoin="round"/>
<path d="M252.163 86.2755L241.458 73.0854L241.206 72.7769C240.706 72.1635 240.554 71.3799 240.71 70.6672L244.568 53.6902C244.71 53.0591 245.355 52.6584 246.004 52.7932C246.546 52.9066 246.922 53.3605 246.947 53.8711L246.255 71.894L245.511 69.4758L257.772 81.9816C258.985 83.4779 258.712 85.6514 257.162 86.8392C255.62 88.0235 253.379 87.7718 252.163 86.2755Z" fill="#E35B27"/>
<path d="M268.087 80.269L274.246 63.909L274.76 66.4903L263.637 51.1763C263.201 50.5771 263.336 49.7367 263.935 49.3006C264.481 48.9035 265.226 48.978 265.683 49.4495L278.916 62.98C279.518 63.597 279.717 64.4586 279.515 65.2351L279.43 65.5613L274.998 82.4709C274.49 84.4104 272.505 85.5699 270.565 85.0628C268.626 84.5558 267.466 82.5702 267.973 80.6307C268.005 80.5066 268.044 80.386 268.087 80.269Z" fill="#E35B27"/>
<path d="M266.03 75.8617C265.998 75.961 265.963 76.0567 265.92 76.1489V76.1525C265.495 77.0992 264.559 77.7906 263.435 77.8651C263.335 77.8722 263.236 77.8757 263.137 77.8722C261.634 77.8261 260.364 76.6631 260.24 75.1703L260.006 72.2735C259.999 72.199 259.995 72.121 259.995 72.0465C259.995 71.8161 260.024 71.5891 260.077 71.3728C260.371 70.1886 261.421 69.2702 262.733 69.1851C264.36 69.0752 265.796 70.2914 265.924 71.8834L266.041 73.3443L266.069 73.7024C266.066 73.7024 266.069 73.7059 266.069 73.7059L266.154 74.7803C266.19 75.1561 266.144 75.5213 266.03 75.8617Z" fill="#E35B27"/>
<path d="M262.941 74.3193C263.243 76.2908 263.207 80.3542 262.771 82.1838C263.154 82.7192 263.725 82.861 264.268 82.9674C264.81 83.0702 265.321 82.8539 265.845 82.7617C266.799 82.5951 267.459 82.3291 267.601 81.4533C267.416 81.2158 266.909 80.2123 266.633 79.6379C266.157 78.6522 265.725 76.0745 266.005 75.071C264.87 75.1349 264.09 74.4683 262.941 74.3193Z" fill="#E35B27"/>
<path d="M263.041 75.2412C263.037 75.7128 262.658 76.1064 262.169 76.1276C261.679 76.1525 261.254 75.7979 261.194 75.3299L263.041 75.2412Z" fill="#FCFCFC"/>
<path d="M245.121 48.7936C245.546 48.751 245.663 50.5842 245.663 50.5842C245.663 50.5842 245.66 48.1873 245.975 48.0986C246.468 47.9568 246.426 50.6835 246.426 50.6835C246.426 50.6835 246.55 47.7192 247.107 47.8292C247.667 47.9391 247.206 50.8466 247.206 50.8466C247.206 50.8466 247.812 48.1412 248.277 48.3149C248.741 48.4887 247.819 51.9457 247.819 51.9457C247.819 51.9457 249.319 50.9175 249.56 51.2082C249.968 51.7011 246.88 54.02 246.88 54.02L244.61 54.5306C244.614 54.5306 244.699 48.8361 245.121 48.7936Z" fill="#E35B27"/>
<path d="M263.478 44.7871C262.996 44.897 263.552 46.9535 263.552 46.9535C263.552 46.9535 262.659 44.3261 262.283 44.3438C261.691 44.3758 262.754 47.3435 262.754 47.3435C262.754 47.3435 261.513 44.1417 260.939 44.4715C260.368 44.8012 261.96 47.8151 261.96 47.8151C261.96 47.8151 260.283 45.0778 259.843 45.443C259.4 45.8082 261.701 49.2511 261.701 49.2511C261.701 49.2511 259.673 48.6838 259.517 49.0951C259.312 49.6412 261.893 50.6127 263.006 51.0027C263.329 51.1162 263.669 51.1552 264.006 51.1197L264.166 51.102C265.194 50.9921 265.836 49.939 265.467 48.9746C264.776 47.1591 263.783 44.7197 263.478 44.7871Z" fill="#E35B27"/>
<path d="M268.144 133.537C264.924 134.317 262.52 137.175 261.449 140.309C260.382 143.443 260.442 146.844 260.673 150.148C260.921 153.733 261.35 157.307 261.96 160.849C263.875 151.74 266.233 142.653 268.144 133.537Z" fill="#E35B27"/>
<path d="M284.861 130.111C282.035 130.274 279.337 132.593 277.656 135.423C275.975 138.252 275.149 141.539 274.483 144.769C273.759 148.273 273.189 151.797 272.774 155.321C276.685 146.879 280.95 138.55 284.861 130.111Z" fill="#E35B27"/>
<path d="M258.545 110.479C258.698 108.256 260.084 106.153 262.073 105.146C264.105 104.114 266.686 104.27 268.583 105.532C268.353 105.376 270.402 101.735 271.058 101.614C272.558 101.345 274.412 102.519 275.458 103.455C276.707 104.575 277.636 106 278.547 107.408C282.77 113.922 286.993 120.435 291.216 126.945C291.712 127.711 292.23 128.537 292.226 129.452C292.223 130.367 291.705 131.189 291.201 131.955C285.301 140.944 279.355 149.904 273.359 158.828C273.132 159.165 272.895 159.516 272.544 159.722C271.523 160.321 270.172 159.282 270.002 158.112C269.831 156.938 270.42 155.807 270.987 154.765C275.129 147.142 278.891 139.316 282.259 131.324C282.436 130.902 282.617 130.455 282.553 130.005C282.497 129.583 282.234 129.218 281.979 128.878C278.795 124.601 275.281 120.573 271.48 116.836C270.753 122.183 271.984 127.637 271.455 133.008C270.817 139.511 267.661 145.472 266.045 151.801C264.793 156.697 264.438 162.044 262.201 166.679C261.761 167.59 260.878 168.614 259.939 168.232C259.563 168.079 259.308 167.725 259.13 167.359C258.524 166.104 258.662 164.604 259.116 163.285C259.566 161.966 260.308 160.771 260.914 159.516C263.286 154.602 263.534 148.975 264.598 143.624C265.162 140.791 265.967 137.969 265.935 135.079C265.896 131.473 264.559 128.027 263.243 124.669C262.091 121.729 260.939 118.79 259.786 115.854C259.127 114.177 258.46 112.436 258.538 110.635C258.538 110.574 258.542 110.528 258.545 110.479Z" fill="#E35B27"/>
<path d="M252.149 83.5738C252.734 84.3539 253.361 85.1127 253.62 84.751C253.624 84.7439 253.631 84.7368 253.634 84.7297C254.4 83.6838 255.485 82.8895 256.709 82.2761L256.712 82.2726C256.719 82.269 256.723 82.2655 256.73 82.2655C257.872 81.6946 259.134 81.2833 260.368 80.9713C261.283 80.7408 262.187 80.5635 263.016 80.4181C263.414 80.3472 263.836 80.2905 264.268 80.2515C264.506 80.2302 264.747 80.216 264.991 80.2054C266.747 80.1309 270.384 79.8047 273.065 80.1912C276.692 77.2057 274.271 104.299 274.271 104.299L263.211 107.908L260.375 103.774C260.35 103.554 260.269 103.32 260.109 103.086C257.783 99.7033 255.581 96.2037 253.915 92.4417C253.064 90.5199 252.315 88.4067 252.081 86.3182C251.975 85.3432 251.975 84.4319 252.149 83.5738Z" fill="#E35B27"/>
<path d="M266.967 75.8368C266.655 75.9644 266.325 75.9644 266.031 75.8616C265.992 75.8474 265.956 75.8332 265.917 75.8155C265.616 75.6808 265.364 75.4361 265.233 75.1064C265.219 75.0709 265.205 75.0354 265.194 74.9964C265.137 74.8191 265.123 74.6383 265.141 74.4646C265.187 73.9894 265.492 73.5604 265.96 73.3689C265.988 73.3583 266.013 73.3477 266.042 73.3406C266.105 73.3193 266.169 73.3016 266.233 73.2909C266.836 73.1846 267.453 73.5108 267.694 74.0994C267.978 74.7837 267.648 75.5602 266.967 75.8368Z" fill="#E35B27"/>
<path d="M259.968 166.526C260.514 167.107 261.323 167.519 262.096 167.802C261.525 168.352 261.103 169.047 260.926 169.813C260.663 170.94 260.894 172.114 260.876 173.266C260.844 175.521 259.812 177.752 258.1 179.269L254.299 165.097L259.177 163.789C258.968 164.76 259.241 165.753 259.968 166.526Z" fill="#E1D1C2"/>
<path d="M259.968 166.526C260.514 167.108 261.323 167.519 262.092 167.799C261.525 168.349 261.103 169.047 260.926 169.809C260.663 170.937 260.894 172.111 260.876 173.263C260.844 175.518 259.812 177.748 258.1 179.266L254.299 165.094L259.177 163.785C258.968 164.76 259.241 165.753 259.968 166.526Z" fill="#E1D1C2"/>
<path d="M257.248 179.152L253.546 165.356C253.44 164.962 253.681 164.554 254.082 164.448C254.482 164.342 254.897 164.576 255 164.966L258.702 178.762C258.808 179.156 258.567 179.563 258.166 179.67C257.769 179.776 257.354 179.546 257.248 179.152Z" fill="#E1D1C2"/>
<path d="M256.461 169.994C256.461 169.994 259.333 168.398 257.858 164.051" stroke="#AD9D8E" stroke-width="0.8426" stroke-miterlimit="10" stroke-linecap="round" stroke-linejoin="round"/>
<path d="M270.964 158.598C271.513 159.176 272.325 159.584 273.102 159.857C272.534 160.41 272.12 161.108 271.946 161.874C271.691 163.005 271.932 164.175 271.921 165.328C271.903 167.583 270.889 169.82 269.187 171.352L265.283 157.208L270.152 155.864C269.953 156.843 270.233 157.832 270.964 158.598Z" fill="#E1D1C2"/>
<path d="M270.964 158.598C271.513 159.176 272.325 159.58 273.098 159.857C272.534 160.41 272.12 161.112 271.946 161.874C271.691 163.005 271.932 164.175 271.921 165.328C271.903 167.583 270.889 169.82 269.187 171.352L265.283 157.208L270.152 155.864C269.953 156.843 270.233 157.832 270.964 158.598Z" fill="#E1D1C2"/>
<path d="M268.337 171.245L264.539 157.474C264.433 157.084 264.67 156.673 265.067 156.563C265.468 156.453 265.883 156.683 265.989 157.073L269.787 170.845C269.893 171.235 269.656 171.646 269.258 171.756C268.858 171.87 268.443 171.639 268.337 171.245Z" fill="#E1D1C2"/>
<path d="M267.486 162.094C267.486 162.094 270.347 160.477 268.84 156.141" stroke="#AD9D8E" stroke-width="0.8426" stroke-miterlimit="10" stroke-linecap="round" stroke-linejoin="round"/>
<path d="M272.362 102.026C274.425 101.728 277.982 104.855 279.577 108.106C280.719 110.436 280.723 110.564 282.744 112.195C284.587 113.68 287.193 114.116 288.761 115.893C290.307 117.644 290.409 120.201 291.246 122.385C292.168 124.786 293.976 126.714 295.384 128.867C296.792 131.019 297.827 133.714 296.951 136.132C295.505 140.121 290.044 140.883 287.378 144.181C284.807 147.365 285.307 152.318 282.552 155.346C280.276 157.85 275.968 158.123 273.394 155.924C270.819 153.729 270.412 149.432 272.525 146.79C271.372 143.383 272.823 138.915 275.652 136.696C275.134 135.838 275.794 133.65 276.386 132.841C276.978 132.033 277.801 131.42 278.428 130.636C279.056 129.852 279.482 128.775 279.084 127.853C277.886 125.055 275.227 123.775 273.415 121.329C275.078 127.275 274.007 133.909 270.968 139.284C271.376 142.858 270.365 146.287 268.468 149.343C268.901 151.574 268.763 154.052 268.593 156.318C268.422 158.583 267.571 160.892 265.83 162.353C263.934 163.941 261.079 164.274 258.867 163.168C256.654 162.062 255.211 159.58 255.342 157.108C255.452 155.066 256.519 153.212 257.562 151.449C255.193 149.556 254.13 146.422 254.509 143.411C254.888 140.401 256.913 137.653 259.675 136.401C258.728 135.075 258.544 133.639 258.874 132.044C259.204 130.448 260.225 129.005 261.618 128.165C258.306 125.647 256.168 121.272 255.966 117.12C255.764 112.964 256.846 109.709 259.898 106.883C259.161 105.472 258.303 103.451 258.243 102.224L272.362 102.026Z" fill="#12A6B4"/>
<path d="M249.104 73.2807C249.033 76.5003 248.072 79.6914 246.363 82.4181C247.661 84.0917 249.04 85.8823 250.746 87.1339C251.061 90.0308 251.622 93.0127 252.721 95.7146H277.669C278.105 91.4349 277.523 87.2013 276.353 83.0599C277.647 81.2515 278.53 79.1596 278.832 76.9577C276.747 74.6139 274.233 72.4333 271.669 70.625C270.336 73.7984 269.141 76.9258 268.035 80.0992C264.078 80.1701 261.064 80.4183 257.181 81.2019C254.862 78.4504 252.075 75.316 249.104 73.2807Z" fill="#0B1119"/>
<path d="M262.152 69.4797C264.998 69.4797 267.304 67.1731 267.304 64.3277C267.304 61.4824 264.998 59.1758 262.152 59.1758C259.307 59.1758 257 61.4824 257 64.3277C257 67.1731 259.307 69.4797 262.152 69.4797Z" fill="#0B1119"/>
<path d="M266.146 75.0109C265.763 74.9471 265.408 74.7485 265.142 74.4648C264.933 74.245 264.777 73.9755 264.706 73.6812C264.554 73.0643 264.738 72.4154 264.738 71.7807C264.735 71.146 264.423 70.4014 263.791 70.3128C263.373 70.2525 262.972 70.5114 262.667 70.8021C262.363 71.0929 262.093 71.4403 261.714 71.6283C261.242 71.8658 260.639 71.8091 260.217 71.49C260.168 71.4545 260.122 71.412 260.079 71.3694C260.373 70.1851 261.423 69.2668 262.735 69.1817C264.362 69.0718 265.798 70.288 265.926 71.88L266.043 73.3408C266.107 73.3196 266.171 73.3018 266.234 73.2912C266.167 73.4188 266.114 73.5571 266.071 73.699C266.068 73.699 266.071 73.7025 266.071 73.7025C265.93 74.1564 265.926 74.6492 266.146 75.0109Z" fill="#0B1119"/>
<path d="M258.652 104.532C262.343 103.671 266.116 105.823 268.754 108.546C271.392 111.269 273.353 114.613 276.143 117.176C277.849 118.744 280.051 120.045 282.355 119.8C284.66 119.552 286.763 117.141 285.965 114.968" stroke="#0B1119" stroke-width="1.0375" stroke-miterlimit="10" stroke-linecap="round" stroke-linejoin="round"/>
<path d="M256.013 116.035C259.513 114.595 263.782 115.804 266.395 118.538C269.009 121.272 270.051 125.279 269.64 129.037C269.328 131.898 268.175 134.749 266.037 136.678C263.899 138.607 260.704 139.465 258.02 138.426" stroke="#0B1119" stroke-width="1.0375" stroke-miterlimit="10" stroke-linecap="round" stroke-linejoin="round"/>
<path d="M291.479 123.406C287.823 124.764 285.011 128.172 284.373 132.019C283.735 135.866 285.295 140 288.316 142.465" stroke="#0B1119" stroke-width="1.0375" stroke-miterlimit="10" stroke-linecap="round" stroke-linejoin="round"/>
<path d="M255.754 148.485C256.46 146.677 258.974 146.198 260.732 147.014C262.495 147.829 263.661 149.517 264.743 151.13C265.824 152.744 266.983 154.431 268.742 155.258" stroke="#0B1119" stroke-width="1.0375" stroke-miterlimit="10" stroke-linecap="round" stroke-linejoin="round"/>
<path d="M284.894 150.141C282.922 145.341 278.022 141.887 272.838 141.649" stroke="#0B1119" stroke-width="1.0375" stroke-miterlimit="10" stroke-linecap="round" stroke-linejoin="round"/>
<path d="M49.8485 122.073C50.0399 122.077 50.2456 122.062 50.43 122.034C50.4264 122.034 50.4229 122.034 50.4158 122.034H50.4087C50.4122 122.034 50.4016 122.034 50.391 122.038L50.3626 122.041L50.2562 122.059L50.1428 122.08L50.008 122.105L49.7315 122.158C49.345 122.236 48.9372 122.325 48.5224 122.417C47.6962 122.598 46.8523 122.793 46.0085 122.988C44.3171 123.381 42.6152 123.786 40.9132 124.197L35.8003 125.438L30.6909 126.697L33.5878 118.673L47.948 143.833C48.5826 144.943 48.1962 146.361 47.0828 146.996C46.1077 147.553 44.8986 147.322 44.1895 146.507L25.1277 124.693C23.3796 122.694 23.5853 119.655 25.5851 117.91C26.0318 117.52 26.5282 117.23 27.053 117.031L28.0281 116.669L33.1339 115.244L38.2469 113.836C39.9559 113.368 41.6649 112.907 43.3917 112.45C44.2533 112.223 45.122 111.996 46.0085 111.773C46.4517 111.659 46.902 111.549 47.3736 111.439L47.7423 111.354L47.9302 111.312L48.1394 111.266L48.3557 111.22L48.4727 111.195L48.6287 111.166L48.9408 111.113C49.2315 111.074 49.5471 111.049 49.8485 111.046C52.8943 111.046 55.3621 113.514 55.3621 116.56C55.3621 119.605 52.8943 122.073 49.8485 122.073Z" fill="#E35B27"/>
<path d="M58.8169 174.688L66.9189 142.745L67.1139 145.687L50.6475 118.616C48.7045 115.418 49.7186 111.251 52.9168 109.305C56.1151 107.362 60.2848 108.376 62.2279 111.574C62.4371 111.918 62.625 112.312 62.7668 112.673L74.0919 142.266L74.3259 142.876C74.6238 143.659 74.5883 144.493 74.2905 145.209L61.5471 175.599C61.2386 176.333 60.3912 176.681 59.6572 176.372C58.9906 176.092 58.6432 175.369 58.8169 174.688Z" fill="#E35B27"/>
<path d="M49.8494 122.073C49.9841 122.073 50.1153 122.066 50.2465 122.059C50.1153 122.07 49.9806 122.077 49.8494 122.073ZM50.3529 122.045L50.3635 122.041L50.3919 122.038C50.4025 122.038 50.4131 122.034 50.4096 122.034H50.4167C50.4202 122.034 50.4238 122.034 50.4309 122.034C50.406 122.038 50.3812 122.041 50.3529 122.045Z" fill="#889392"/>
<path d="M58.6608 90.0874C59.0331 91.2043 59.8486 92.2432 60.9691 92.8425C64.3056 94.626 68.5392 92.19 71.6736 90.9774C74.574 89.857 77.4922 88.4493 80.4777 87.57L80.811 87.4707C81.6052 87.2331 82.2612 86.5984 82.4845 85.7368L87.3812 66.8168C87.4025 66.7317 87.4166 66.6466 87.4237 66.5615C87.4592 65.9907 87.1365 65.4304 86.5799 65.1929C86.0976 64.9908 85.5693 65.0794 85.1864 65.3808C85.0056 65.5191 84.8602 65.707 84.7644 65.9304L79.96 77.3086L77.829 82.3507L74.4712 82.9712L69.181 83.9498L64.2914 84.8539L61.4194 85.3858C61.2953 85.4071 61.1641 85.439 61.04 85.4744C58.6395 86.1765 58.0474 88.2437 58.6608 90.0874Z" fill="#E35B27"/>
<path d="M54.5402 76.5495L55.4089 79.8222C55.5365 80.2973 55.7422 80.7228 56.0045 81.0845C56.6711 81.9957 57.6994 82.4886 58.717 82.3148C58.8199 82.2971 58.9262 82.2723 59.0291 82.2404C60.5431 81.7688 61.387 79.9108 60.9118 78.1096L60.6388 77.0743L60.5431 76.7161L60.0431 74.8334C59.5893 73.1243 58.1036 72.0571 56.6605 72.3549C56.5825 72.3726 56.5045 72.3904 56.4265 72.4152C55.1358 72.8158 54.331 74.227 54.4161 75.7517C54.4267 76.0212 54.4692 76.2871 54.5402 76.5495Z" fill="#E35B27"/>
<path d="M55.7131 80.0454C55.5358 81.9317 54.894 83.7791 53.8516 85.3782C54.1707 85.9526 54.8337 86.2079 55.4684 86.4171C56.1031 86.6263 56.7874 86.5341 57.4576 86.5589C58.6702 86.605 59.5531 86.4951 59.9679 85.7186C59.8084 85.4597 59.468 84.4244 59.2872 83.8358C58.9787 82.8217 59.4857 81.6977 60.1062 80.829C58.695 80.6446 57.0782 80.4248 55.7131 80.0454Z" fill="#E35B27"/>
<path d="M58.0679 79.4178C58.2487 79.8681 58.7593 80.1022 59.238 79.9426C59.7166 79.7831 59.9897 79.2831 59.8726 78.8115L58.0679 79.4178Z" fill="#FCFCFC"/>
<path d="M67.4036 93.9876L62.4857 114.854L49.3523 113.276L44.1862 90.7468C43.672 87.1798 46.7107 84.1128 50.2813 84.5914L63.2019 86.3253C66.8221 86.8182 68.9389 90.6724 67.4036 93.9876Z" fill="#E35B27"/>
<path d="M63.2019 86.3321L59.9256 85.6336C58.2379 86.7151 55.3977 86.747 53.9865 85.0947L50.2813 84.5983C46.7107 84.1196 43.672 87.1867 44.1862 90.7537L49.3523 113.283L62.4857 114.861L67.4036 93.9874C68.9389 90.6721 66.8221 86.8179 63.2019 86.3321Z" fill="#1F0F05"/>
<path d="M89.9633 62.9197C89.669 62.6148 88.3996 63.9374 88.3996 63.9374C88.3996 63.9374 89.9384 62.1113 89.7576 61.8418C89.4704 61.4199 87.7578 63.5225 87.7578 63.5225C87.7578 63.5225 89.5626 61.1859 89.0662 60.9093C88.5698 60.6327 87.0558 63.1467 87.0558 63.1467C87.0558 63.1467 88.3251 60.693 87.8607 60.5299C87.3962 60.3668 85.8821 63.5899 85.8821 63.5899C85.8821 63.5899 85.3964 61.8454 85.0276 61.9127C84.5348 62.0014 84.9673 64.338 85.173 65.3344C85.2333 65.6216 85.3574 65.8911 85.5347 66.1215L85.6198 66.2314C86.1587 66.9406 87.2189 66.9441 87.7649 66.2456C88.7932 64.9302 90.1476 63.1112 89.9633 62.9197Z" fill="#E35B27"/>
<path d="M26.9943 60.6754C27.3808 60.562 27.6893 62.2036 27.6893 62.2036C27.6893 62.2036 27.4304 60.0301 27.7105 59.8954C28.1502 59.6826 28.4055 62.1575 28.4055 62.1575C28.4055 62.1575 28.1998 59.4486 28.7317 59.4522C29.26 59.4522 29.1465 62.1717 29.1465 62.1717C29.1465 62.1717 29.4196 59.6117 29.8663 59.6897C30.3131 59.7677 29.8309 63.0617 29.8309 63.0617C29.8309 63.0617 31.1073 61.8632 31.3626 62.0866C31.7917 62.4625 29.1855 65.1076 29.1855 65.1076L27.1432 65.9692C27.1361 65.9657 26.6078 60.7889 26.9943 60.6754Z" fill="#E35B27"/>
<path d="M45.0719 82.2833L36.5196 78.4574L29.3218 64.9198C29.0877 64.4766 28.563 64.2497 28.0276 64.3986C27.3858 64.5759 26.9745 65.2283 27.1057 65.8524L30.6443 82.613C30.7968 83.3151 31.2577 83.9356 31.9598 84.2476L32.3108 84.4036L44.7918 89.9881C44.8059 87.421 44.9017 84.8504 45.0719 82.2833Z" fill="#E35B27"/>
<path d="M86.5797 65.1929C86.0975 64.9908 85.5692 65.0794 85.1863 65.3808C85.0054 65.5191 84.8601 65.707 84.7643 65.9304L79.9599 77.3086L77.8289 82.3507L74.4711 82.9712L69.1809 83.9498L68.3972 84.0952C68.3902 85.9389 68.149 87.7827 67.7413 89.5981C67.6668 90.6512 67.5356 91.7007 67.3123 92.7361C68.8582 92.2007 70.3616 91.4809 71.67 90.9739C74.5704 89.8534 77.4885 88.4458 80.474 87.5664L80.8073 87.4671C81.6015 87.2296 82.2575 86.5949 82.4809 85.7333L87.3775 66.8133C87.3988 66.7282 87.413 66.6431 87.4201 66.558C87.4591 65.9871 87.1364 65.4269 86.5797 65.1929Z" fill="#E35B27"/>
<path d="M54.6483 80.7088C55.4963 80.7088 56.1836 80.0214 56.1836 79.1735C56.1836 78.3256 55.4963 77.6382 54.6483 77.6382C53.8004 77.6382 53.113 78.3256 53.113 79.1735C53.113 80.0214 53.8004 80.7088 54.6483 80.7088Z" fill="#E35B27"/>
<path d="M61.2444 173.781C61.9606 173.433 62.5989 172.784 63.0953 172.128C63.4499 172.838 63.9888 173.447 64.6625 173.845C65.6624 174.43 66.8502 174.561 67.9458 174.919C70.0875 175.621 71.91 177.273 72.8496 179.358L58.188 178.762L58.3936 173.717C59.2623 174.206 60.2906 174.242 61.2444 173.781Z" fill="#E1D1C2"/>
<path d="M61.2428 173.781C61.9591 173.433 62.5937 172.784 63.0937 172.132C63.4483 172.837 63.9872 173.447 64.6644 173.844C65.6643 174.429 66.8522 174.561 67.9478 174.919C70.0894 175.621 71.9119 177.273 72.8515 179.358L58.1899 178.762L58.3956 173.717C59.2608 174.206 60.289 174.242 61.2428 173.781Z" fill="#E1D1C2"/>
<path d="M72.4869 180.138L58.2118 179.557C57.804 179.539 57.4885 179.188 57.5027 178.773C57.5204 178.358 57.8643 178.036 58.2721 178.05L72.5472 178.631C72.9549 178.649 73.2705 179 73.2563 179.415C73.2386 179.83 72.8911 180.156 72.4869 180.138Z" fill="#E1D1C2"/>
<path d="M63.5097 178.16C63.5097 178.16 62.8431 174.944 58.2549 175.054" stroke="#AD9D8E" stroke-width="0.8426" stroke-miterlimit="10" stroke-linecap="round" stroke-linejoin="round"/>
<path d="M45.9863 145.06C45.4225 145.613 44.6034 145.989 43.8269 146.237C44.3694 146.805 44.7594 147.51 44.9048 148.276C45.1175 149.404 44.8445 150.556 44.8126 151.701C44.7559 153.939 45.6884 156.19 47.323 157.764L51.6594 143.869L46.8762 142.376C47.0429 143.351 46.7344 144.323 45.9863 145.06Z" fill="#E1D1C2"/>
<path d="M45.9854 145.06C45.4216 145.613 44.6026 145.989 43.8296 146.237C44.3721 146.805 44.7586 147.514 44.9039 148.276C45.1167 149.404 44.8437 150.556 44.8118 151.701C44.755 153.939 45.6876 156.19 47.3221 157.764L51.6586 143.869L46.8754 142.376C47.042 143.351 46.7335 144.323 45.9854 145.06Z" fill="#E1D1C2"/>
<path d="M48.1699 157.687L52.3928 144.156C52.5134 143.77 52.29 143.355 51.8964 143.234C51.5029 143.11 51.0845 143.326 50.9639 143.713L46.7409 157.243C46.6204 157.63 46.8438 158.045 47.2374 158.165C47.6309 158.286 48.0493 158.073 48.1699 157.687Z" fill="#E1D1C2"/>
<path d="M49.3188 148.642C49.3188 148.642 46.5354 146.947 48.1736 142.695" stroke="#AD9D8E" stroke-width="0.836" stroke-miterlimit="10" stroke-linecap="round" stroke-linejoin="round"/>
<path d="M63.7486 109.67H48.3176V115.188H63.7486V109.67Z" fill="#12A6B4"/>
<path d="M23.9514 154.297C25.0648 155.201 23.6678 156.914 24.7811 157.821C25.8945 158.729 27.2879 157.016 28.4013 157.921C29.5147 158.828 28.1212 160.537 29.231 161.445C30.3444 162.353 31.7378 160.64 32.8512 161.544C33.9646 162.452 32.5711 164.161 33.6809 165.069" stroke="#0B1119" stroke-width="1.5563" stroke-miterlimit="10" stroke-linecap="round" stroke-linejoin="round"/>
<path d="M68.2813 84.1196L64.2924 84.8571L61.4203 85.389C61.2962 85.4103 61.165 85.4422 61.0409 85.4776C58.6369 86.1726 58.0483 88.2398 58.6617 90.0835C59.0341 91.2004 59.8496 92.2393 60.97 92.8386C63.8775 94.3951 67.4658 92.7428 70.4158 91.4912C69.9372 88.9915 69.1677 86.5236 68.2813 84.1196Z" fill="#1F0F05"/>
<path d="M50.6449 84.7757L43.3868 81.5278C42.8514 83.2227 42.2841 84.914 41.5182 86.5202C41.2629 87.0556 40.9828 87.5697 40.6814 88.0732V88.1512L47.3686 91.1438C49.0777 91.9097 51.1945 91.1013 52.0986 89.3426C53.0063 87.5839 52.3539 85.5416 50.6449 84.7757Z" fill="#1F0F05"/>
<path d="M51.1148 122.658C54.2067 127.151 57.0716 131.796 59.7025 136.572C61.8725 140.514 63.9397 145.007 62.8157 149.368C62.0923 152.173 60.0748 154.907 60.901 157.683C57.5822 160.658 56.6568 165.849 59.0395 169.618H67.0138C69.2654 166.884 70.5808 163.104 70.1021 159.594C72.8324 157.335 74.6407 153.183 74.2258 149.666C76.2753 147.216 77.5304 143.525 76.6724 140.444C76.1086 138.412 74.7896 136.692 73.7862 134.841C71.8147 131.218 71.0347 127.09 69.6802 123.194C68.3257 119.297 66.1628 115.382 62.4895 113.503H53.1784C51.8523 111.574 50.0156 110.532 47.6967 110.22C42.5412 109.518 36.8503 110.645 33.4003 114.542C30.429 114.698 27.4009 115.467 25.0679 117.311C22.7348 119.155 21.2278 122.215 21.7881 125.137C22.2951 127.789 24.3126 129.856 26.2344 131.757C30.2907 135.76 34.347 139.766 38.4069 143.769L45.9983 136.178C44.8211 132.09 43.3886 127.193 40.318 124.243C44.1084 124.732 47.4946 123.889 51.1148 122.658Z" fill="#12A6B4"/>
<path d="M46.9363 83.2725C47.4256 88.4847 52.6981 93.3884 58.2826 92.5694C62.4453 91.9559 67.0476 88.8534 67.2923 84.3787" stroke="#F2E4D7" stroke-width="1.0375" stroke-miterlimit="10" stroke-linecap="round" stroke-linejoin="round"/>
<path d="M45.3721 95.459C46.762 96.1717 48.2087 96.9978 49.1483 98.2814C50.2864 99.8415 50.1304 101.636 49.478 103.37C49.0774 104.437 48.3434 105.266 47.3009 105.742" stroke="#F2E4D7" stroke-width="1.0375" stroke-miterlimit="10" stroke-linecap="round" stroke-linejoin="round"/>
<path d="M67.2351 94.6045C65.2317 94.9165 63.2993 95.8739 61.9839 97.4198C60.6684 98.9622 60.0231 101.104 60.445 103.089C60.8705 105.071 62.4271 106.816 64.402 107.288" stroke="#F2E4D7" stroke-width="1.0375" stroke-miterlimit="10" stroke-linecap="round" stroke-linejoin="round"/>
<path d="M48.0642 107.528C48.8797 106.181 50.0498 105.004 51.5142 104.419C52.975 103.834 54.7479 103.912 56.0244 104.834C57.12 105.628 57.7441 106.926 58.7439 107.837C60.141 109.11 62.2755 109.5 64.0306 108.808" stroke="#F2E4D7" stroke-width="1.0375" stroke-miterlimit="10" stroke-linecap="round" stroke-linejoin="round"/>
<path d="M42.4741 84.6514C44.7044 86.1902 45.5341 89.0268 47.119 91.1152C49.7251 94.551 54.3133 98.0968 58.8767 96.682C60.49 96.1821 61.7948 95.0794 63.1776 94.1575C64.5605 93.2356 66.2199 92.4413 67.897 92.7073" stroke="#F2E4D7" stroke-width="1.0098" stroke-miterlimit="10" stroke-linecap="round" stroke-linejoin="round"/>
<path d="M57.2127 71.582C56.4362 72.5855 55.5463 73.4719 54.5924 74.1385C54.362 74.3016 54.1067 74.369 53.8549 74.3725C53.8408 74.4683 53.8266 74.5604 53.8159 74.6562C53.6918 75.6915 53.8266 76.8971 54.6705 77.5105C55.2484 77.9289 55.8689 78.8756 56.2554 79.4748C56.6809 78.6877 56.8192 77.7516 56.6419 76.8758C56.4646 76 55.9576 75.0639 55.259 74.5037C56.1348 75.2058 57.9361 75.8653 58.9892 75.2164C60.0564 74.564 59.9784 73.2769 59.6557 72.0891C58.8402 71.9366 58.0247 71.7664 57.2127 71.582Z" fill="#1F0F05"/>
<path d="M58.7995 71.6069C59.7817 71.9757 60.5795 72.8125 60.8986 73.8124C61.2177 74.8123 61.0546 75.9575 60.4695 76.8262C60.3064 75.4931 59.6363 74.4222 58.6116 73.5571C58.7676 72.8125 58.9236 72.3586 58.7995 71.6069Z" fill="#1F0F05"/>
<path d="M53.4163 74.4789C53.6893 73.5464 54.6608 73.0429 55.3487 72.3586C56.5613 71.153 56.9159 69.3234 56.8805 67.6179C56.845 65.9089 56.4762 64.2176 56.4975 62.5121C56.5082 61.6115 56.6358 60.6931 57.0577 59.8989C57.4797 59.1046 58.2385 58.4522 59.132 58.3317C60.8694 58.1012 62.2132 59.8422 62.8302 61.4803C63.9116 64.363 63.9967 67.6073 63.0642 70.5396C62.4863 72.3621 61.185 74.2839 59.2738 74.3477C58.5257 74.3725 57.8024 74.0995 57.0577 74.0215C56.5897 73.9719 55.9621 74.0109 55.565 74.3052C54.7991 74.876 55.331 75.3831 54.98 76C54.1112 77.5282 53.0865 75.5994 53.4163 74.4789Z" fill="#1F0F05"/>
<path d="M28.1251 86.4917C27.4018 89.3035 25.4481 91.7748 22.8845 93.1328" stroke="#FF9E00" stroke-width="2.5939" stroke-miterlimit="10" stroke-linecap="round" stroke-linejoin="round"/>
<path d="M68.3284 49.8291C69.8991 52.7579 72.5123 55.1122 75.5865 56.371" stroke="#FF9E00" stroke-width="2.5939" stroke-miterlimit="10" stroke-linecap="round" stroke-linejoin="round"/>
<path d="M87.4764 106.639C87.1289 108.404 85.6114 109.876 83.835 110.17" stroke="#FF9E00" stroke-width="2.5939" stroke-miterlimit="10" stroke-linecap="round" stroke-linejoin="round"/>
<path d="M45.4747 169.802C44.9145 171.887 43.3544 173.678 41.3652 174.518" stroke="#FF9E00" stroke-width="2.5939" stroke-miterlimit="10" stroke-linecap="round" stroke-linejoin="round"/>
<path d="M155.318 97.519C156.13 99.5649 158.083 101.118 160.26 101.444" stroke="#FF9E00" stroke-width="2.5939" stroke-miterlimit="10" stroke-linecap="round" stroke-linejoin="round"/>
<path d="M162.791 165.689C161.944 167.77 159.99 169.366 157.777 169.781" stroke="#FF9E00" stroke-width="2.5939" stroke-miterlimit="10" stroke-linecap="round" stroke-linejoin="round"/>
<path d="M183.624 48.2158C185.489 50.517 188.063 52.2367 190.903 53.077" stroke="#FF9E00" stroke-width="2.5939" stroke-miterlimit="10" stroke-linecap="round" stroke-linejoin="round"/>
<path d="M241.064 45.6274C239.958 47.4109 237.961 48.6059 235.869 48.7406" stroke="#FF9E00" stroke-width="2.5939" stroke-miterlimit="10" stroke-linecap="round" stroke-linejoin="round"/>
<path d="M293.432 78.2339C294.035 80.8755 296.372 83.0277 299.052 83.4142" stroke="#FF9E00" stroke-width="2.5939" stroke-miterlimit="10" stroke-linecap="round" stroke-linejoin="round"/>
<path d="M246.858 123.722C246.096 126.662 243.717 129.122 240.806 129.987" stroke="#FF9E00" stroke-width="2.5939" stroke-miterlimit="10" stroke-linecap="round" stroke-linejoin="round"/>
<path d="M215.601 171.767C216.076 174.139 218.566 175.919 220.966 175.603" stroke="#FF9E00" stroke-width="2.5939" stroke-miterlimit="10" stroke-linecap="round" stroke-linejoin="round"/>
<path d="M299.864 152.974C298.53 156.289 295.591 158.913 292.148 159.863" stroke="#FF9E00" stroke-width="2.5939" stroke-miterlimit="10" stroke-linecap="round" stroke-linejoin="round"/>
<path d="M27.8037 43.4468C27.8498 45.865 29.8567 48.0917 32.2536 48.386" stroke="#C8C7F9" stroke-width="2.5939" stroke-miterlimit="10" stroke-linecap="round" stroke-linejoin="round"/>
<path d="M95.4975 77.936C95.4372 79.9075 94.0012 81.7583 92.1113 82.3079" stroke="#C8C7F9" stroke-width="2.5939" stroke-miterlimit="10" stroke-linecap="round" stroke-linejoin="round"/>
<path d="M31.6963 149.688C34.0365 150.145 36.1745 151.545 37.5326 153.503" stroke="#C8C7F9" stroke-width="2.5939" stroke-miterlimit="10" stroke-linecap="round" stroke-linejoin="round"/>
<path d="M109.22 108.553C107.309 110.156 104.823 111.06 102.327 111.064" stroke="#C8C7F9" stroke-width="2.5939" stroke-miterlimit="10" stroke-linecap="round" stroke-linejoin="round"/>
<path d="M157.139 46.23C157.76 48.5773 159.806 50.4813 162.192 50.9281" stroke="#C8C7F9" stroke-width="2.5939" stroke-miterlimit="10" stroke-linecap="round" stroke-linejoin="round"/>
<path d="M145.971 155.158C147.049 157.066 148.995 158.456 151.147 158.86" stroke="#C8C7F9" stroke-width="2.5939" stroke-miterlimit="10" stroke-linecap="round" stroke-linejoin="round"/>
<path d="M227.885 134.49C228.505 137.359 230.824 139.795 233.664 140.546" stroke="#C8C7F9" stroke-width="2.5939" stroke-miterlimit="10" stroke-linecap="round" stroke-linejoin="round"/>
<path d="M309.255 88.144C309.241 90.3388 308.075 92.4911 306.245 93.7002" stroke="#C8C7F9" stroke-width="2.5939" stroke-miterlimit="10" stroke-linecap="round" stroke-linejoin="round"/>
<path d="M280.896 170.316C282.683 172.657 285.619 174.068 288.562 174" stroke="#C8C7F9" stroke-width="2.5939" stroke-miterlimit="10" stroke-linecap="round" stroke-linejoin="round"/>
</g>
</svg>
