<svg width="100" height="100" viewBox="0 0 100 100" fill="none" xmlns="http://www.w3.org/2000/svg">
<circle cx="50" cy="50" r="50" fill="#FF733B"/>
<path d="M66 68V64.1111C66 62.0483 65.1835 60.07 63.7301 58.6114C62.2767 57.1528 60.3054 56.3333 58.25 56.3333H42.75C40.6946 56.3333 38.7233 57.1528 37.2699 58.6114C35.8165 60.07 35 62.0483 35 64.1111V68" stroke="white" stroke-width="3" stroke-linecap="round" stroke-linejoin="round"/>
<path d="M50.5 48.5556C54.7802 48.5556 58.25 45.0733 58.25 40.7778C58.25 36.4822 54.7802 33 50.5 33C46.2198 33 42.75 36.4822 42.75 40.7778C42.75 45.0733 46.2198 48.5556 50.5 48.5556Z" stroke="white" stroke-width="3" stroke-linecap="round" stroke-linejoin="round"/>
</svg>
