<svg width="100" height="100" viewBox="0 0 100 100" fill="none" xmlns="http://www.w3.org/2000/svg">
<circle cx="50" cy="50" r="50" fill="#FF733B"/>
<path d="M50.5 55C52.9853 55 55 52.9853 55 50.5C55 48.0147 52.9853 46 50.5 46C48.0147 46 46 48.0147 46 50.5C46 52.9853 48.0147 55 50.5 55Z" stroke="white" stroke-width="3" stroke-linecap="round" stroke-linejoin="round"/>
<path d="M61.6 55C61.4003 55.4524 61.3408 55.9543 61.429 56.4409C61.5172 56.9275 61.7492 57.3765 62.095 57.73L62.185 57.82C62.4639 58.0986 62.6852 58.4295 62.8362 58.7937C62.9872 59.1579 63.0649 59.5483 63.0649 59.9425C63.0649 60.3367 62.9872 60.7271 62.8362 61.0913C62.6852 61.4555 62.4639 61.7864 62.185 62.065C61.9064 62.3439 61.5755 62.5652 61.2113 62.7162C60.8471 62.8672 60.4567 62.9449 60.0625 62.9449C59.6683 62.9449 59.2779 62.8672 58.9137 62.7162C58.5495 62.5652 58.2186 62.3439 57.94 62.065L57.85 61.975C57.4965 61.6292 57.0475 61.3972 56.5609 61.309C56.0743 61.2208 55.5724 61.2803 55.12 61.48C54.6763 61.6701 54.298 61.9859 54.0315 62.3883C53.7649 62.7907 53.6219 63.2623 53.62 63.745V64C53.62 64.7956 53.3039 65.5587 52.7413 66.1213C52.1787 66.6839 51.4156 67 50.62 67C49.8244 67 49.0613 66.6839 48.4987 66.1213C47.9361 65.5587 47.62 64.7956 47.62 64V63.865C47.6084 63.3685 47.4477 62.887 47.1588 62.4831C46.8699 62.0791 46.4661 61.7714 46 61.6C45.5476 61.4003 45.0457 61.3408 44.5591 61.429C44.0725 61.5172 43.6235 61.7492 43.27 62.095L43.18 62.185C42.9014 62.4639 42.5705 62.6852 42.2063 62.8362C41.8421 62.9872 41.4517 63.0649 41.0575 63.0649C40.6633 63.0649 40.2729 62.9872 39.9087 62.8362C39.5445 62.6852 39.2136 62.4639 38.935 62.185C38.6561 61.9064 38.4348 61.5755 38.2838 61.2113C38.1328 60.8471 38.0551 60.4567 38.0551 60.0625C38.0551 59.6683 38.1328 59.2779 38.2838 58.9137C38.4348 58.5495 38.6561 58.2186 38.935 57.94L39.025 57.85C39.3708 57.4965 39.6028 57.0475 39.691 56.5609C39.7792 56.0743 39.7197 55.5724 39.52 55.12C39.3299 54.6763 39.0141 54.298 38.6117 54.0315C38.2093 53.7649 37.7377 53.6219 37.255 53.62H37C36.2044 53.62 35.4413 53.3039 34.8787 52.7413C34.3161 52.1787 34 51.4156 34 50.62C34 49.8244 34.3161 49.0613 34.8787 48.4987C35.4413 47.9361 36.2044 47.62 37 47.62H37.135C37.6315 47.6084 38.113 47.4477 38.5169 47.1588C38.9209 46.8699 39.2286 46.4661 39.4 46C39.5997 45.5476 39.6592 45.0457 39.571 44.5591C39.4828 44.0725 39.2508 43.6235 38.905 43.27L38.815 43.18C38.5361 42.9014 38.3148 42.5705 38.1638 42.2063C38.0128 41.8421 37.9351 41.4517 37.9351 41.0575C37.9351 40.6633 38.0128 40.2729 38.1638 39.9087C38.3148 39.5445 38.5361 39.2136 38.815 38.935C39.0936 38.6561 39.4245 38.4348 39.7887 38.2838C40.1529 38.1328 40.5433 38.0551 40.9375 38.0551C41.3317 38.0551 41.7221 38.1328 42.0863 38.2838C42.4505 38.4348 42.7814 38.6561 43.06 38.935L43.15 39.025C43.5035 39.3708 43.9525 39.6028 44.4391 39.691C44.9257 39.7792 45.4276 39.7197 45.88 39.52H46C46.4437 39.3299 46.822 39.0141 47.0885 38.6117C47.3551 38.2093 47.4981 37.7377 47.5 37.255V37C47.5 36.2044 47.8161 35.4413 48.3787 34.8787C48.9413 34.3161 49.7044 34 50.5 34C51.2956 34 52.0587 34.3161 52.6213 34.8787C53.1839 35.4413 53.5 36.2044 53.5 37V37.135C53.5019 37.6177 53.6449 38.0893 53.9115 38.4917C54.178 38.8941 54.5563 39.2099 55 39.4C55.4524 39.5997 55.9543 39.6592 56.4409 39.571C56.9275 39.4828 57.3765 39.2508 57.73 38.905L57.82 38.815C58.0986 38.5361 58.4295 38.3148 58.7937 38.1638C59.1579 38.0128 59.5483 37.9351 59.9425 37.9351C60.3367 37.9351 60.7271 38.0128 61.0913 38.1638C61.4555 38.3148 61.7864 38.5361 62.065 38.815C62.3439 39.0936 62.5652 39.4245 62.7162 39.7887C62.8672 40.1529 62.9449 40.5433 62.9449 40.9375C62.9449 41.3317 62.8672 41.7221 62.7162 42.0863C62.5652 42.4505 62.3439 42.7814 62.065 43.06L61.975 43.15C61.6292 43.5035 61.3972 43.9525 61.309 44.4391C61.2208 44.9257 61.2803 45.4276 61.48 45.88V46C61.6701 46.4437 61.9859 46.822 62.3883 47.0885C62.7907 47.3551 63.2623 47.4981 63.745 47.5H64C64.7956 47.5 65.5587 47.8161 66.1213 48.3787C66.6839 48.9413 67 49.7044 67 50.5C67 51.2956 66.6839 52.0587 66.1213 52.6213C65.5587 53.1839 64.7956 53.5 64 53.5H63.865C63.3823 53.5019 62.9107 53.6449 62.5083 53.9115C62.1059 54.178 61.7901 54.5563 61.6 55V55Z" stroke="white" stroke-width="3" stroke-linecap="round" stroke-linejoin="round"/>
</svg>
