<svg width="564" height="482" viewBox="0 0 564 482" fill="none" xmlns="http://www.w3.org/2000/svg">
<path d="M295.916 217.083C295.574 217.083 295.232 216.955 294.976 216.699C294.719 216.443 294.591 216.123 294.569 215.761L293.03 2.36818C293.03 1.64279 293.607 1.02408 294.356 1.02408L436.211 0C436.553 0 436.895 0.12801 437.151 0.38403C437.408 0.64005 437.536 0.960074 437.557 1.32277L439.118 214.694C439.118 215.419 438.541 216.038 437.793 216.038L295.916 217.083C295.937 217.083 295.937 217.083 295.916 217.083ZM295.702 3.69095L297.241 214.395L436.424 213.371L434.885 2.66687L295.702 3.69095Z" fill="#C2AC96"/>
<path d="M294.57 32.5146C293.843 32.5146 293.244 31.9172 293.244 31.1918C293.244 30.4664 293.843 29.8477 294.57 29.8477L435.463 28.8236C436.189 28.8236 436.788 29.421 436.788 30.1464C436.788 30.8718 436.189 31.4905 435.463 31.4905L294.57 32.5146C294.591 32.5146 294.57 32.5146 294.57 32.5146Z" fill="#C2AC96"/>
<path d="M364.899 216.017C364.172 216.017 363.573 215.419 363.573 214.694L362.227 30.701C362.227 29.9756 362.804 29.3569 363.552 29.3569C364.279 29.3569 364.877 29.9543 364.877 30.6797L366.224 214.673C366.245 215.398 365.647 216.017 364.899 216.017Z" fill="#C2AC96"/>
<path d="M462.782 139.552C462.055 139.552 461.456 138.955 461.456 138.229L461.328 120.799C461.328 120.073 461.927 119.455 462.653 119.455C463.38 119.455 463.979 120.052 463.979 120.777L464.107 138.208C464.128 138.955 463.53 139.552 462.782 139.552C462.803 139.552 462.803 139.552 462.782 139.552Z" fill="#C2AC96"/>
<path d="M508.164 159.586C507.437 159.586 506.839 158.988 506.839 158.263L506.71 140.832C506.71 140.107 507.309 139.488 508.036 139.488C508.763 139.488 509.361 140.086 509.361 140.811L509.489 158.242C509.511 158.988 508.912 159.586 508.164 159.586C508.185 159.586 508.164 159.586 508.164 159.586Z" fill="#C2AC96"/>
<path d="M446.942 141.131C446.215 141.131 445.616 140.534 445.616 139.808C445.616 139.083 446.215 138.464 446.942 138.464L535.056 137.824C535.783 137.824 536.381 138.421 536.381 139.147C536.381 139.872 535.783 140.491 535.056 140.491L446.942 141.131Z" fill="#C2AC96"/>
<path d="M470.969 159.863C470.242 159.863 469.644 159.266 469.644 158.54C469.644 157.815 470.242 157.196 470.969 157.196L534.03 156.727C534.757 156.727 535.355 157.324 535.355 158.05C535.355 158.775 534.757 159.394 534.03 159.394L470.969 159.863Z" fill="#C2AC96"/>
<path d="M94.6553 261.524C93.9285 261.524 93.3299 260.927 93.3299 260.202L93.2017 242.771C93.2017 242.045 93.8002 241.427 94.527 241.427C95.2538 241.427 95.8524 242.024 95.8524 242.75L95.9806 260.18C96.002 260.927 95.4034 261.524 94.6553 261.524Z" fill="#C2AC96"/>
<path d="M49.5723 282.219C48.8455 282.219 48.2469 281.622 48.2469 280.897L48.1187 263.466C48.1187 262.74 48.6958 262.122 49.444 262.122C50.1708 262.122 50.7693 262.719 50.7693 263.444L50.8976 280.875C50.919 281.622 50.3204 282.219 49.5723 282.219Z" fill="#C2AC96"/>
<path d="M22.424 263.509C21.6972 263.509 21.0986 262.911 21.0986 262.186C21.0986 261.46 21.6758 260.842 22.424 260.842L110.538 260.202C111.265 260.202 111.864 260.799 111.864 261.524C111.864 262.25 111.286 262.869 110.538 262.869L22.424 263.509Z" fill="#C2AC96"/>
<path d="M23.7277 282.411C23.0009 282.411 22.4023 281.814 22.4023 281.089C22.4023 280.363 22.9795 279.744 23.7277 279.744L86.7886 279.275C87.5154 279.275 88.114 279.872 88.114 280.598C88.114 281.323 87.5154 281.942 86.7886 281.942L23.7277 282.411Z" fill="#C2AC96"/>
<path d="M563.188 465.508C563.252 473.402 437.215 480.72 281.701 481.851C126.186 482.981 0.0641542 477.498 2.4462e-05 469.604C-0.0641053 461.711 125.972 454.393 281.487 453.262C437.002 452.131 563.124 457.614 563.188 465.508Z" fill="#C2AC96"/>
<path d="M348.096 414.134L348.481 467.066L370.499 466.916L382.748 421.814L387.279 405.109L348.096 414.134Z" fill="#731F07"/>
<g opacity="0.5">
<g opacity="0.5">
<g opacity="0.5">
<g opacity="0.5">
<g opacity="0.5">
<path opacity="0.5" d="M348.096 414.134L348.203 427.639C358.186 426.465 372.401 423.841 382.748 421.814L387.279 405.109L348.096 414.134Z" fill="#731F07"/>
</g>
</g>
</g>
</g>
</g>
<path d="M224.091 415.03L224.476 467.983L202.479 468.132L189.568 423.222L184.779 406.581L224.091 415.03Z" fill="#731F07"/>
<g opacity="0.5">
<g opacity="0.5">
<g opacity="0.5">
<g opacity="0.5">
<g opacity="0.5">
<path opacity="0.5" d="M224.091 415.03L224.198 428.535C214.215 427.489 199.957 425.078 189.568 423.222L184.779 406.581L224.091 415.03Z" fill="#731F07"/>
</g>
</g>
</g>
</g>
</g>
<path d="M139.012 117.641C141.107 138.059 158.828 212.283 167.742 248.873C168.64 252.521 169.431 255.785 170.115 258.601C171.804 265.45 172.808 269.546 172.808 269.546L357.93 264.319C357.93 264.319 358.421 261.951 359.298 257.748C365.689 226.77 392.047 96.1354 384.736 83.4624C384.223 82.5664 383.475 81.6916 382.491 80.8382C381.807 80.2195 380.995 79.6221 380.097 79.0248C379.199 78.4274 378.173 77.8513 377.062 77.2753C363.616 70.3201 335.634 64.645 303.868 61.4021C266.417 57.5618 223.727 57.1351 193.48 61.9781C192.625 62.1061 191.769 62.2555 190.914 62.4048C188.713 62.7888 186.596 63.1729 184.566 63.5782C144.912 71.3655 137.302 82.225 137.174 97.5009V97.5222C137.152 103.517 138.242 110.195 139.012 117.641Z" fill="#A5410F"/>
<path d="M356.497 224.743C356.882 224.743 357.224 224.465 357.288 224.081C357.353 223.761 362.975 191.524 367.485 158.775C370.136 139.531 371.867 123.85 372.658 112.222C374.005 92.2312 372.273 88.2629 370.863 87.0041C362.675 79.7716 320.563 74.5018 296.194 72.0056C284.522 70.8109 272.637 70.4909 260.859 71.0669C232.706 72.4323 184.266 75.8673 176.1 83.4839C174.732 84.764 173.108 88.7963 175.032 108.744C176.143 120.372 178.345 135.968 181.53 155.148C186.96 187.769 193.522 219.836 193.586 220.156C193.672 220.582 194.099 220.86 194.527 220.774C194.955 220.689 195.232 220.262 195.147 219.836C195.083 219.516 188.542 187.492 183.112 154.892C173.621 97.8636 175.331 86.4281 177.191 84.6786C182.877 79.3662 213.381 74.9925 260.923 72.6884C272.616 72.1123 284.416 72.4323 296.002 73.6271C320.179 76.102 361.927 81.3077 369.772 88.2416C371.696 89.927 373.727 101.32 365.882 158.583C361.393 191.311 355.771 223.527 355.706 223.847C355.621 224.273 355.92 224.7 356.369 224.785C356.391 224.743 356.455 224.743 356.497 224.743Z" fill="#731F07"/>
<path d="M137.195 97.5009C137.324 103.112 138.286 109.278 138.991 116.084C141.086 136.501 158.807 210.726 167.721 247.315L197.969 247.102C197.969 247.102 163.724 125.898 161.543 96.0501C160.111 76.5713 174.455 67.5252 184.587 63.5782C144.934 71.3655 137.324 82.225 137.195 97.5009Z" fill="#731F07"/>
<path d="M359.234 260.095C359.234 260.095 390.358 256.852 392.987 268.074C395.039 276.843 392.945 355.441 391.94 389.598C391.662 398.559 398.631 406.069 407.609 406.517C409.597 406.624 411.67 406.688 413.829 406.752C424.154 407.05 435.847 406.816 443.864 404.938C461.307 400.863 461.692 376.115 467.592 335.023C473.492 293.932 478.601 220.774 440.165 206.992C438.84 206.523 437.515 206.096 436.189 205.691C399.187 194.81 364.15 217.105 364.15 217.105C355.792 240.68 359.234 260.095 359.234 260.095Z" fill="#731F07"/>
<path d="M413.808 406.752C424.133 407.05 435.826 406.816 443.842 404.938C461.286 400.863 461.67 376.115 467.57 335.023C473.47 293.932 478.579 220.774 440.144 206.992C438.819 206.523 437.493 206.096 436.168 205.691C429.648 207.291 423.684 211.664 420.52 221.18C411.927 247.038 426.527 336.474 413.808 406.752Z" fill="#A5410F"/>
<path d="M434.159 400.458C442.111 400.394 448.288 397.065 452.029 390.814C457.865 381.022 465.796 297.239 466.138 293.676C466.181 293.249 465.86 292.844 465.411 292.801C464.984 292.759 464.577 293.079 464.535 293.527C464.449 294.402 456.305 380.51 450.64 390.004C442.046 404.405 422.808 396.895 422.615 396.831C422.209 396.66 421.739 396.873 421.589 397.279C421.418 397.684 421.632 398.154 422.038 398.303C422.252 398.388 427.233 400.351 433.432 400.458C433.688 400.458 433.923 400.458 434.159 400.458Z" fill="#731F07"/>
<path d="M430.118 235.624C430.118 235.624 430.631 221.564 441.277 222.609C451.901 223.655 452.585 246.824 443.115 249.897C429.242 254.377 430.118 235.624 430.118 235.624Z" fill="#731F07"/>
<path d="M454.552 231.25C454.616 231.25 454.659 231.25 454.723 231.229C455.15 231.122 455.428 230.695 455.321 230.269C455.193 229.756 452.265 217.446 441.961 215.078C437.793 214.118 434.095 214.886 430.974 217.382C426.463 220.988 424.411 227.452 424.432 230.674C424.432 231.122 424.796 231.463 425.223 231.463C425.672 231.463 426.014 231.101 426.014 230.674C425.993 228.156 427.724 222.012 431.957 218.641C434.672 216.465 437.921 215.803 441.576 216.657C450.918 218.812 453.718 230.546 453.74 230.653C453.846 231.015 454.167 231.25 454.552 231.25Z" fill="#731F07"/>
<path d="M142.561 256.425C144.613 264.767 145.853 269.738 145.853 269.738L371.012 263.38C371.012 263.38 371.611 260.5 372.658 255.401C332.705 248.915 195.767 252.201 142.561 256.425Z" fill="#731F07"/>
<path d="M144.655 298.86C144.741 303.106 144.869 307.586 145.04 312.238C146.6 354.118 152.137 409.312 170.371 414.005C200.063 421.686 383.987 424.353 393.457 406.751C396.279 401.503 398.01 392.67 399.101 381.875C399.314 379.763 399.507 377.565 399.657 375.325C401.089 355.804 400.939 331.524 401.431 310.381C401.559 304.706 401.751 299.245 402.029 294.167C404.039 256.873 373.641 256.575 373.641 256.575C330.653 255.892 267.549 258.345 218.447 260.778C192.859 262.036 171.077 263.295 157.951 264.084C149.508 264.596 144.655 264.895 144.655 264.895C144.655 264.895 144.249 279.147 144.655 298.86Z" fill="#A5410F"/>
<path d="M289.31 383.219C293.009 383.198 296.835 383.134 300.79 383.027C360.131 381.384 394.184 367.815 394.526 367.666C395.018 367.452 395.274 366.898 395.06 366.386C394.847 365.895 394.291 365.639 393.778 365.852C393.436 365.98 359.682 379.443 300.725 381.064C241.705 382.686 209.212 374.536 208.892 374.472C208.357 374.344 207.844 374.642 207.695 375.176C207.566 375.688 207.866 376.221 208.4 376.37C208.699 376.435 237.258 383.603 289.31 383.219Z" fill="#731F07"/>
<path d="M144.655 298.86C144.741 303.106 144.869 307.586 145.04 312.238C146.601 354.118 152.137 409.312 170.371 414.005C200.063 421.686 383.988 424.353 393.457 406.751C396.279 401.503 398.011 392.67 399.101 381.875C399.315 379.763 399.507 377.565 399.657 375.325C390.978 381.192 364.856 389.001 346.878 390.964C271.932 399.178 213.488 389.15 213.488 389.15C223.043 348.55 219.944 283.862 218.426 260.735C192.838 261.994 171.055 263.252 157.93 264.042L144.655 298.86Z" fill="#731F07"/>
<path d="M365.113 265.855C362.932 267.84 360.495 269.717 357.78 271.488C357.695 271.552 357.609 271.594 357.524 271.659C355.621 272.896 353.612 274.048 351.496 275.157C350.726 275.563 349.957 275.947 349.187 276.31C343.009 279.296 336.019 281.771 328.516 283.563C327.832 283.734 327.148 283.883 326.442 284.033C324.454 284.481 322.424 284.865 320.371 285.206C319.687 285.334 318.982 285.441 318.298 285.548C310.367 286.742 302.052 287.19 293.672 286.742C292.689 286.678 291.705 286.636 290.722 286.55C288.093 286.358 285.463 286.06 282.856 285.654C282.791 285.654 282.727 285.633 282.663 285.633C281.872 285.505 281.081 285.398 280.29 285.249C276.036 284.523 271.825 283.521 267.678 282.262C264.065 281.174 260.496 279.872 257.011 278.336C256.413 278.08 255.835 277.803 255.237 277.547C254.51 277.206 253.762 276.864 253.057 276.502C252.992 276.48 252.928 276.438 252.843 276.395C248.653 264.554 244.335 222.439 243.181 209.83C242.945 207.312 242.774 204.816 242.625 202.298C242.603 201.872 242.582 201.424 242.561 200.997C242.518 200.336 242.497 199.696 242.475 199.034C242.283 194.447 242.24 189.839 242.283 185.166C242.283 184.42 242.304 183.652 242.325 182.905C242.325 182.542 242.325 182.158 242.347 181.796C242.347 181.753 242.347 181.689 242.347 181.646C242.368 181.113 242.368 180.579 242.39 180.025C242.518 175.203 242.732 170.317 243.01 165.346C243.031 164.877 243.052 164.429 243.095 163.959C243.116 163.725 243.116 163.49 243.138 163.255C243.309 160.354 243.501 157.41 243.715 154.444C243.736 153.996 243.779 153.527 243.822 153.057C243.843 152.887 243.843 152.716 243.865 152.545C244.378 145.419 244.955 138.08 245.511 130.442C245.81 126.261 246.344 122.378 247.05 118.815C247.135 118.367 247.221 117.94 247.328 117.513C248.781 110.921 250.919 105.48 253.783 101.299C254.018 100.936 254.275 100.573 254.532 100.232C255.472 98.9731 256.477 97.8637 257.546 96.8823C258.593 95.9222 259.705 95.0688 260.902 94.3434C263.125 92.9993 265.562 92.1246 268.234 91.7192C270.756 91.3565 273.044 90.8445 275.139 90.2684C275.523 90.1617 275.908 90.0551 276.272 89.9484C277.447 89.607 278.559 89.223 279.606 88.839C280.141 88.6256 280.675 88.4336 281.167 88.2203C281.573 88.0496 281.979 87.8789 282.364 87.7082C282.535 87.6229 282.727 87.5589 282.898 87.4735C283.048 87.4095 283.219 87.3242 283.369 87.2602C283.646 87.1322 283.903 87.0042 284.159 86.8762C288.456 84.7427 290.893 82.8225 290.893 82.8225L320.436 83.1212C320.671 83.4626 320.906 83.7826 321.12 84.1026C321.141 84.1239 321.162 84.1453 321.162 84.1666C322.317 85.6814 323.599 86.9615 324.967 88.0496C325.309 88.3269 325.673 88.583 326.036 88.839C326.699 89.3083 327.383 89.735 328.088 90.1404C328.58 90.4178 329.072 90.6738 329.542 90.9085C329.927 91.1005 330.312 91.2712 330.696 91.4418C330.803 91.4845 330.91 91.5485 331.017 91.5912C331.316 91.7192 331.594 91.8472 331.893 91.9539C332.043 92.0179 332.214 92.0819 332.364 92.1459C333.176 92.4659 333.988 92.7433 334.801 93.0206C334.822 93.0206 334.822 93.0206 334.843 93.0206C341.299 95.1541 347.883 96.2209 351.987 100.36C352.415 100.787 352.8 101.256 353.184 101.747C353.783 102.557 354.317 103.475 354.745 104.499C355.172 105.523 355.515 106.675 355.75 107.955C355.899 108.681 355.963 109.449 355.985 110.302C356.134 116.788 353.291 127.477 351.966 145.078C351.923 145.59 351.881 146.081 351.859 146.614C351.667 149.452 351.517 152.439 351.41 155.639C351.389 156.108 351.389 156.599 351.367 157.068C351.325 158.775 351.303 160.546 351.303 162.359C351.303 163.298 351.303 164.237 351.303 165.197C351.325 167.074 351.367 168.995 351.41 170.979C351.432 171.576 351.453 172.173 351.474 172.771C351.517 173.987 351.56 175.224 351.645 176.483C351.688 177.145 351.731 177.827 351.752 178.489C351.774 178.958 351.816 179.427 351.838 179.897C351.838 180.046 351.859 180.195 351.859 180.323C352.009 182.628 352.18 185.017 352.415 187.449C352.415 187.577 352.436 187.705 352.458 187.833C352.479 188.153 352.522 188.495 352.543 188.815C352.714 190.756 352.928 192.762 353.163 194.789C353.441 197.221 353.719 199.717 354.061 202.277C355.408 212.475 358.464 232.701 361.735 249.705C362.248 252.393 362.761 254.975 363.274 257.428C363.338 257.684 363.381 257.94 363.445 258.196C363.958 260.97 364.535 263.551 365.113 265.855Z" fill="white"/>
<path d="M371.653 153.207C364.492 153.207 357.609 150.753 351.794 146.635C351.773 146.614 351.73 146.593 351.709 146.571C350.619 145.803 349.592 144.971 348.609 144.118C339.225 135.925 334.223 123.999 332.149 111.817C331.145 105.886 330.161 98.4396 330.973 91.5911C331.273 91.7191 331.551 91.8471 331.85 91.9538C332 92.0178 332.171 92.0818 332.32 92.1458C332.192 93.2339 332.149 94.3219 332.128 95.41C331.871 108.595 334.458 122.868 341.64 134.09C343.586 137.141 345.98 139.979 348.673 142.432C349.699 143.371 350.79 144.267 351.901 145.078C357.609 149.281 364.406 151.884 371.653 151.884C372.487 151.905 372.487 153.207 371.653 153.207Z" fill="#D7C4AC"/>
<path d="M325.972 88.8601C323.15 93.6819 319.922 98.2475 316.203 102.429C305.087 114.974 289.396 123.892 272.445 124.66C272.081 124.682 271.696 124.703 271.333 124.703C262.847 124.916 254.36 122.868 246.964 118.836C242.902 116.638 239.204 113.822 235.998 110.472C236.297 110.174 236.617 109.875 236.917 109.576C239.909 112.734 243.415 115.422 247.22 117.534C248.995 118.516 250.833 119.391 252.735 120.137C259.191 122.676 265.946 123.636 272.68 123.273C282.192 122.783 291.619 119.647 299.828 114.59C310.409 108.104 318.704 98.6742 324.903 88.0281C325.266 88.3481 325.608 88.6041 325.972 88.8601Z" fill="#D7C4AC"/>
<path d="M308.678 111.561C302.415 111.497 296.686 107.55 291.962 100.018C287.921 93.5753 286.04 86.8547 285.976 86.5774C285.805 85.98 286.168 85.3826 286.746 85.2119C287.344 85.0413 287.943 85.404 288.114 85.98C288.178 86.236 295.51 112.051 311.35 109.107C315.497 108.339 318.554 106.419 320.478 103.389C324.668 96.7755 322.167 87.0041 322.145 86.9187C321.996 86.3214 322.338 85.724 322.936 85.5746C323.535 85.4253 324.133 85.7666 324.283 86.364C324.39 86.8121 327.04 97.1595 322.338 104.584C320.072 108.147 316.523 110.409 311.756 111.283C310.709 111.497 309.683 111.582 308.678 111.561Z" fill="#D5963D"/>
<path d="M363.53 161.442C362.889 161.634 362.269 161.826 361.628 161.997C360.815 161.634 360.024 161.25 359.212 160.866C356.583 159.628 353.953 158.37 351.324 157.089C350.191 156.535 349.08 156.001 347.947 155.447C328.387 145.953 308.314 136.501 286.168 136.757C279.328 136.843 272.658 137.952 266.352 140.171C261.243 141.963 256.369 144.481 251.837 147.723C248.952 149.793 246.237 152.076 243.65 154.508C241 156.961 238.498 159.586 236.083 162.274C235.613 162.146 235.164 161.997 234.715 161.847C237.601 158.626 240.593 155.511 243.8 152.609C247.092 149.622 250.598 146.849 254.403 144.438C258.55 141.814 262.889 139.829 267.336 138.421C286.489 132.341 307.801 136.672 326.378 144.182C333.71 147.147 340.892 150.582 348.054 154.039C349.165 154.572 350.255 155.105 351.367 155.639C355.386 157.623 359.447 159.564 363.53 161.442Z" fill="#D7C4AC"/>
<path d="M351.794 179.918C348.673 179.278 345.574 178.617 342.453 177.955C331.337 175.63 320.221 173.219 309.084 171.021C298.267 168.888 287.215 167.202 276.142 167.928C263.979 168.717 251.089 173.24 242.303 181.817C242.303 181.774 242.303 181.71 242.303 181.668C242.325 181.134 242.325 180.601 242.346 180.046C244.655 177.913 247.198 176.035 249.913 174.392C268.254 163.426 290.208 165.944 310.238 169.933C324.09 172.685 337.899 175.587 351.709 178.51C351.73 178.979 351.751 179.449 351.794 179.918Z" fill="#D7C4AC"/>
<path d="M283.581 211.579C281.807 220.561 277.831 229.479 273.834 237.672C269.772 245.992 264.684 253.822 257.951 260.244C257.352 260.82 256.412 259.903 257.032 259.327C263.958 252.734 269.088 244.627 273.192 236.05C276.741 228.626 280.182 220.689 282.042 212.646C283.902 204.666 283.261 195.364 275.565 190.649C269.152 186.745 260.772 187.236 254.295 190.671C249.593 193.167 245.787 196.837 242.56 200.997C242.517 200.335 242.495 199.695 242.474 199.034C246.343 194.319 251.003 190.287 256.775 188.111C263.466 185.572 271.803 186.084 277.617 190.479C284.223 195.492 285.099 203.984 283.581 211.579Z" fill="#D7C4AC"/>
<path d="M330.846 263.508C321.034 257.257 312.248 249.449 304.98 240.36C294.505 227.282 280.098 203.344 299.358 191.012C307.438 185.828 317.72 184.718 327.083 184.59C335.612 184.462 344.099 185.508 352.35 187.492C352.35 187.62 352.372 187.748 352.393 187.876C352.415 188.196 352.457 188.537 352.479 188.857C343.394 186.639 334.031 185.572 324.668 185.956C315.754 186.318 305.899 187.641 298.546 193.146C290.102 199.482 289.802 209.787 293.394 218.982C296.964 228.092 303.077 236.52 309.554 243.774C315.967 250.963 323.364 257.215 331.508 262.399C332.214 262.826 331.572 263.956 330.846 263.508Z" fill="#D7C4AC"/>
<path d="M234.522 141.771C229.99 145.505 223.855 145.889 218.404 144.118C216.523 143.499 214.749 142.667 213.082 141.686C213.317 141.28 213.552 140.875 213.766 140.469C219.73 144.096 226.421 145.803 232.727 141.494C237.964 137.931 238.733 131.615 235.869 126.218C234.18 123.06 231.551 120.649 228.665 118.558C228.943 118.217 229.221 117.897 229.477 117.577C232.876 120.073 235.955 122.996 237.665 126.943C239.952 132.192 239.033 138.059 234.522 141.771Z" fill="#D7C4AC"/>
<path d="M388.391 149.665C387.985 149.942 387.536 150.22 387.044 150.54C380.524 148.022 374.646 143.798 370.285 138.229C363.808 129.951 361.093 119.177 362.44 108.851C362.825 109.214 363.231 109.598 363.616 109.982C362.589 119.668 365.24 129.674 371.29 137.419C375.715 143.051 381.722 147.254 388.391 149.665Z" fill="#D7C4AC"/>
<path d="M274.732 105.203C273.556 105.779 272.338 106.184 271.119 106.44C266.438 107.443 261.457 106.376 257.288 103.901C256.006 103.133 254.809 102.259 253.719 101.298C252.778 100.466 251.88 99.549 251.068 98.5889C251.453 98.3756 251.837 98.1409 252.201 97.9489C252.906 98.7596 253.654 99.5277 254.467 100.253C255.365 101.042 256.305 101.768 257.331 102.408C261.265 104.904 266.074 106.142 270.606 105.245C271.782 105.011 272.958 104.627 274.09 104.093C279.755 101.362 282.491 95.602 281.38 89.4789C281.316 89.0735 281.209 88.6682 281.123 88.2841C281.53 88.1135 281.936 87.9428 282.32 87.7721C282.577 88.7535 282.769 89.7563 282.876 90.8017C283.432 96.9248 280.29 102.515 274.732 105.203Z" fill="#D7C4AC"/>
<path d="M265.497 329.135C265.497 329.135 263.295 330.074 259.725 331.674C258.699 332.122 257.588 332.634 256.369 333.188C254.745 333.914 252.992 334.725 251.089 335.621C250.021 336.111 248.888 336.645 247.755 337.178C233.518 343.899 214.813 353.499 207.93 360.327C207.438 360.817 206.989 361.287 206.541 361.756C196.173 372.637 195.254 380.232 192.667 379.315C189.974 378.355 188.093 372.338 191.043 367.452C193.095 364.081 194.057 359.601 196.643 354.395C197.349 352.987 198.161 351.537 199.166 350.043C203.569 343.429 211.286 335.877 215.348 330.5C215.604 330.159 215.861 329.817 216.074 329.476C219.345 324.782 219.217 316.611 226.207 312.579C229.627 310.616 234.116 310.083 238.605 310.275C239.396 310.296 240.209 310.36 241 310.424C242.175 310.531 243.351 310.68 244.484 310.851C246.044 311.085 247.541 311.384 248.909 311.683C250.234 311.981 251.431 312.28 252.479 312.558C255.001 313.24 256.583 313.795 256.583 313.795L265.497 329.135Z" fill="white"/>
<path d="M238.606 310.275C235.463 317.059 227.682 330.415 215.327 330.5C215.583 330.159 215.84 329.817 216.053 329.476C219.324 324.782 219.196 316.611 226.186 312.579C229.606 310.616 234.117 310.083 238.606 310.275Z" fill="#425045"/>
<path d="M206.52 361.756C196.152 372.637 195.233 380.232 192.646 379.315C189.953 378.355 188.072 372.338 191.022 367.452C193.074 364.082 194.036 359.601 196.622 354.396C200.128 355.868 203.997 358.193 206.52 361.756Z" fill="#425045"/>
<path d="M259.704 331.674C258.678 332.122 257.567 332.634 256.348 333.188C253.227 329.625 251.025 324.953 249.85 319.321C249.251 316.462 249.016 313.816 248.909 311.704C250.235 312.003 251.432 312.301 252.479 312.579C252.586 314.35 252.842 316.419 253.291 318.638C254.232 323.054 256.092 327.983 259.704 331.674Z" fill="#425045"/>
<path d="M244.484 310.851C243.351 310.68 242.197 310.531 241 310.424C240.743 312.664 240.487 316.376 240.936 320.601C241.662 327.428 243.993 333.06 247.733 337.178C248.888 336.645 249.999 336.111 251.068 335.621C243.437 328.153 243.95 315.651 244.484 310.851Z" fill="#425045"/>
<path d="M256.327 306.946C255.387 330.436 270.051 331.802 270.051 331.802C270.051 331.802 273.065 331.716 280.012 329.818C280.654 329.647 281.338 329.455 282.064 329.242C286.575 327.919 292.454 325.935 299.914 322.926C300.79 322.564 301.71 322.201 302.629 321.817C307.503 319.79 313.018 317.337 319.174 314.392C328.494 309.955 339.332 304.365 351.838 297.367C387.879 277.205 419.537 249.193 431.23 226.066C439.14 210.47 437.964 197.071 422.893 189.839C420.243 188.559 417.464 187.833 414.621 187.513C395.596 185.444 376.528 203.664 376.528 203.664C338.157 229.756 326.293 251.838 310.645 269.632C310.004 270.378 309.341 271.104 308.678 271.829C308.251 272.298 307.823 272.746 307.353 273.216C304.831 275.819 301.923 278.4 298.824 280.875C288.499 289.174 275.929 296.578 267.144 301.357C266.524 301.698 265.925 302.018 265.348 302.338C259.918 305.24 256.327 306.946 256.327 306.946Z" fill="#131E07"/>
<path d="M265.369 302.338C265.733 304.024 266.246 305.709 266.844 307.373C267.079 307.992 267.314 308.632 267.571 309.251C271.29 318.489 277.618 326.809 280.033 329.818C280.675 329.647 281.359 329.455 282.086 329.242C280.333 327.108 273.214 318.105 269.302 308.269C269.046 307.651 268.811 307.01 268.597 306.392C267.998 304.728 267.528 303.042 267.186 301.378C266.545 301.698 265.946 302.018 265.369 302.338Z" fill="#425045"/>
<path d="M431.252 226.066C414.044 211.216 413.381 195.749 414.621 187.535C417.464 187.833 420.243 188.58 422.894 189.839C437.964 197.071 439.161 210.448 431.252 226.066Z" fill="#425045"/>
<path d="M266.823 307.373C267.058 307.992 267.294 308.632 267.55 309.251C268.106 308.93 268.683 308.61 269.282 308.269C283.305 300.14 304.125 285.227 327.576 266.389C349.551 248.723 374.604 226.684 377.682 220.049C379.35 216.465 379.435 213.734 377.96 211.984C375.758 209.339 370.884 209.894 368.683 210.32C368.127 210.427 367.764 210.982 367.892 211.536C367.999 211.963 368.383 212.262 368.79 212.283C368.875 212.283 368.939 212.283 369.025 212.262C371.184 211.856 375.01 211.558 376.421 213.243C377.597 214.651 376.763 217.254 375.865 219.217C373.386 224.572 352.565 243.773 326.314 264.852C307.781 279.744 284.587 297.068 268.555 306.413C267.978 306.733 267.4 307.053 266.823 307.373Z" fill="#425045"/>
<path d="M260.838 303.064C264.472 314.67 269.474 324.932 277.682 332.036C277.682 332.036 272.659 337.199 266.866 335.151C262.441 333.594 251.389 316.398 252.586 305.965C255.622 303.533 258.401 302.381 260.838 303.064Z" fill="#425045"/>
<path d="M359.298 326.873C359.298 326.873 361.564 327.663 365.219 329.028C366.267 329.412 367.421 329.839 368.661 330.308C370.328 330.927 372.145 331.631 374.09 332.399C375.202 332.826 376.335 333.274 377.532 333.743C392.175 339.546 411.457 347.91 418.768 354.289C419.281 354.737 419.772 355.185 420.243 355.612C431.294 365.788 432.705 373.341 435.206 372.232C437.835 371.101 439.332 364.978 436.061 360.305C433.795 357.062 432.555 352.646 429.627 347.632C428.836 346.267 427.917 344.88 426.827 343.451C422.017 337.135 413.808 330.095 409.426 324.975C409.148 324.655 408.87 324.313 408.635 324.014C405.065 319.534 404.659 311.384 397.434 307.821C393.907 306.072 389.375 305.837 384.907 306.306C384.116 306.392 383.325 306.498 382.534 306.626C381.358 306.818 380.204 307.032 379.093 307.267C377.553 307.608 376.078 307.992 374.732 308.397C373.428 308.781 372.252 309.144 371.226 309.507C368.746 310.339 367.207 311.021 367.207 311.021L359.298 326.873Z" fill="white"/>
<path d="M384.907 306.306C388.498 312.878 397.092 325.7 409.448 324.996C409.17 324.676 408.892 324.334 408.657 324.036C405.087 319.555 404.681 311.405 397.455 307.843C393.907 306.072 389.375 305.837 384.907 306.306Z" fill="#425045"/>
<path d="M420.242 355.612C431.294 365.788 432.705 373.341 435.206 372.232C437.835 371.101 439.332 364.978 436.061 360.305C433.795 357.062 432.555 352.646 429.627 347.632C426.249 349.339 422.529 351.899 420.242 355.612Z" fill="#425045"/>
<path d="M365.24 329.028C366.288 329.412 367.442 329.839 368.682 330.308C371.568 326.553 373.47 321.753 374.283 316.035C374.689 313.155 374.774 310.488 374.71 308.376C373.406 308.76 372.23 309.123 371.204 309.485C371.204 311.256 371.097 313.347 370.777 315.566C370.157 320.067 368.618 325.103 365.24 329.028Z" fill="#425045"/>
<path d="M374.112 332.399C375.223 332.826 376.356 333.274 377.553 333.743C381.016 329.412 382.983 323.652 383.261 316.782C383.432 312.536 382.94 308.845 382.556 306.626C381.38 306.818 380.226 307.032 379.114 307.267C379.926 312.024 381.252 324.463 374.112 332.399Z" fill="#425045"/>
<path d="M187.366 237.16C201.41 258.943 235.121 281.835 271.098 299.052C305.407 315.459 326.934 323.182 339.353 326.831C339.76 326.959 340.166 327.065 340.572 327.172C349.871 329.818 353.612 330.031 353.612 330.031C353.612 330.031 368.148 327.727 365.711 304.344C365.711 304.344 361.393 301.015 354.937 296.044C354.381 295.618 353.804 295.17 353.227 294.721C340.935 285.27 322.295 270.954 310.089 261.588C275.886 235.346 272.744 236.882 241.213 211.11C241.213 211.11 221.355 193.743 203.249 194.959C199.315 195.215 195.468 196.197 191.94 198.181C176.635 206.779 177.062 221.158 187.366 237.16Z" fill="#131E07"/>
<path d="M339.375 326.809C339.417 326.873 339.46 326.937 339.524 326.98C339.674 327.108 339.845 327.193 340.016 327.236C340.208 327.279 340.401 327.257 340.593 327.172C340.7 327.129 340.828 327.044 340.914 326.937C347.733 319.705 351.752 308.12 353.697 301.122C353.889 300.418 354.06 299.756 354.231 299.159C354.573 297.815 354.809 296.727 354.958 296.044C354.402 295.617 353.825 295.169 353.248 294.721C353.227 294.764 353.227 294.785 353.227 294.828C353.227 294.871 352.97 296.172 352.436 298.22C352.286 298.818 352.115 299.479 351.923 300.183C350.042 306.968 346.087 318.574 339.524 325.572C339.161 325.935 339.118 326.425 339.375 326.809Z" fill="#425045"/>
<path d="M203.248 194.959C203.248 202.789 202.137 228.881 187.387 237.159C177.083 221.158 176.656 206.778 191.961 198.18C195.467 196.196 199.315 195.215 203.248 194.959Z" fill="#425045"/>
<path d="M241.085 220.646C244.569 227.089 270.991 247.464 294.078 263.679C317.015 279.808 337.472 292.673 351.901 300.183C352.521 300.503 353.12 300.802 353.697 301.101C353.889 300.396 354.06 299.735 354.231 299.138C353.633 298.839 353.034 298.519 352.436 298.199C336.018 289.58 313.509 274.88 295.232 262.036C267.699 242.685 245.66 224.871 242.838 219.686C241.812 217.809 240.829 215.249 241.897 213.776C243.18 212.006 247.028 212.048 249.208 212.304C249.251 212.304 249.294 212.304 249.336 212.304C249.807 212.304 250.213 211.963 250.298 211.494C250.405 210.939 250.02 210.406 249.443 210.32C247.22 210.043 242.325 209.808 240.294 212.582C238.926 214.481 239.183 217.19 241.085 220.646Z" fill="#425045"/>
<path d="M360.965 300.738C358.079 312.557 353.761 323.118 346.023 330.735C346.023 330.735 351.367 335.557 357.011 333.167C361.329 331.332 371.247 313.475 369.388 303.127C366.202 300.887 363.359 299.906 360.965 300.738Z" fill="#425045"/>
<path d="M404.531 200.442C399.55 212.368 387.857 211.963 375.223 193.871C367.912 183.396 361.499 172.472 356.476 163.255C354.531 159.692 352.821 156.385 351.324 153.463L351.517 136.181L372.915 122.442C372.915 122.442 380.696 134.517 388.648 149.452C398.502 167.928 408.592 190.735 404.531 200.442Z" fill="#E8A36F"/>
<path d="M326.934 225.98C337.729 218.62 350.982 209.958 356.241 205.264C369.174 193.7 391.876 175.182 403.74 184.292C403.74 184.292 413.573 203.365 397.498 215.974C382.192 227.986 347.861 241.363 331.85 246.462C329.99 239.699 327.874 232.935 326.934 225.98Z" fill="#E8A36F"/>
<path d="M373.556 192.164C373.727 192.164 373.898 192.1 374.048 191.972C380.054 186.767 388.584 183.545 388.669 183.502C389.075 183.353 389.289 182.884 389.139 182.478C388.99 182.073 388.519 181.86 388.113 182.009C387.75 182.137 379.221 185.38 373 190.756C372.658 191.055 372.637 191.546 372.915 191.887C373.064 192.1 373.321 192.186 373.556 192.164Z" fill="#B05935"/>
<path d="M374.86 191.098C375.245 191.076 375.565 190.799 375.608 190.415C376.121 186.831 380.61 183.353 380.653 183.31C380.995 183.033 381.059 182.542 380.802 182.18C380.525 181.838 380.033 181.753 379.67 182.03C379.456 182.18 374.625 185.956 374.005 190.18C373.941 190.628 374.24 191.034 374.689 191.076C374.753 191.098 374.817 191.098 374.86 191.098Z" fill="#B05935"/>
<path d="M390.764 148.044C390.764 148.044 390.037 148.577 388.691 149.473C388.605 149.537 388.498 149.601 388.413 149.665C388.007 149.942 387.558 150.22 387.066 150.54C385.527 151.5 383.56 152.673 381.252 153.932C380.888 154.124 380.503 154.337 380.119 154.529C375.63 156.898 369.943 159.479 363.552 161.442C362.911 161.634 362.291 161.826 361.649 161.997C361.521 162.039 361.414 162.061 361.286 162.103C360.858 162.231 360.452 162.338 360.003 162.445C358.87 162.743 357.695 163.021 356.519 163.255C355.3 163.511 354.061 163.746 352.821 163.938C352.821 163.938 352.244 163.383 351.26 162.381L351.367 153.463L351.56 136.181L351.966 100.36C355.108 102.451 358.657 105.224 362.462 108.83C362.846 109.193 363.253 109.577 363.637 109.961C365.476 111.774 367.4 113.78 369.345 115.998C369.644 116.34 369.922 116.66 370.221 117.001C373.406 120.692 376.698 124.98 380.033 129.93C380.332 130.357 380.61 130.805 380.91 131.253C384.159 136.181 387.472 141.75 390.764 148.044Z" fill="white"/>
<path d="M361.243 162.103C360.815 162.231 360.409 162.338 359.96 162.445C356.647 146.422 360.024 129.589 369.323 116.02C369.623 116.361 369.9 116.681 370.2 117.023C361.243 130.229 358.058 146.55 361.243 162.103Z" fill="#D7C4AC"/>
<path d="M381.23 153.932C380.867 154.124 380.482 154.337 380.097 154.529C376.805 146.827 376.634 137.931 380.033 129.93C380.332 130.357 380.61 130.805 380.909 131.253C378.024 138.678 378.237 146.827 381.23 153.932Z" fill="#D7C4AC"/>
<path d="M226.464 123.53C226.464 123.53 188.413 184.505 196.002 201.957C201.154 213.798 212.847 213.243 225.202 194.959C242.603 169.251 254.638 141.024 254.638 141.024L226.464 123.53Z" fill="#E8A36F"/>
<path d="M273.962 226.364C263.06 219.153 249.678 210.704 244.356 206.096C231.252 194.725 208.293 176.526 196.558 185.828C196.558 185.828 187.002 205.029 203.249 217.425C218.725 229.223 253.248 242.088 269.345 246.953C271.119 240.125 273.129 233.341 273.962 226.364Z" fill="#E8A36F"/>
<path d="M226.87 193.23C226.699 193.23 226.528 193.166 226.378 193.038C220.286 187.918 211.714 184.824 211.628 184.782C211.201 184.632 210.987 184.163 211.136 183.757C211.286 183.331 211.756 183.117 212.163 183.267C212.526 183.395 221.098 186.51 227.404 191.801C227.746 192.078 227.789 192.59 227.511 192.932C227.34 193.145 227.105 193.252 226.87 193.23Z" fill="#B05935"/>
<path d="M225.545 192.186C225.16 192.164 224.839 191.887 224.775 191.503C224.219 187.94 219.666 184.505 219.623 184.462C219.26 184.206 219.196 183.694 219.452 183.332C219.709 182.969 220.222 182.905 220.585 183.161C220.799 183.31 225.694 187.023 226.357 191.226C226.421 191.652 226.122 192.079 225.694 192.143C225.63 192.186 225.587 192.186 225.545 192.186Z" fill="#B05935"/>
<path d="M272.68 123.295C272.615 123.743 272.53 124.212 272.444 124.66C272.166 126.111 271.803 127.605 271.333 129.119C270.414 132.17 269.003 135.328 267.335 138.422C267.015 138.998 266.694 139.574 266.352 140.15C258.87 153.1 247.22 164.685 247.22 164.685C245.809 164.493 244.42 164.237 243.052 163.981C240.657 163.49 238.327 162.914 236.083 162.231C235.613 162.103 235.164 161.954 234.715 161.805C219.772 157.111 209.02 149.324 209.02 149.324C210.367 146.635 211.735 144.075 213.103 141.643C213.338 141.238 213.573 140.832 213.787 140.427C218.832 131.53 223.877 124.34 228.686 118.537C228.964 118.196 229.242 117.876 229.499 117.556C231.722 114.91 233.902 112.564 235.997 110.473C236.297 110.174 236.617 109.875 236.916 109.577C242.303 104.371 247.134 100.893 251.025 98.6104C251.41 98.3971 251.795 98.1624 252.158 97.9704C257.331 95.0902 260.58 94.4074 260.794 94.3861C264.963 96.9676 268.383 100.637 270.563 105.267C270.756 105.651 270.927 106.056 271.098 106.462C273.043 111.177 273.727 116.831 272.68 123.295Z" fill="white"/>
<path d="M272.68 123.295C272.616 123.743 272.531 124.212 272.445 124.66C272.082 124.682 271.697 124.703 271.334 124.703C262.847 124.917 254.361 122.868 246.964 118.836C242.903 116.639 239.205 113.822 235.998 110.473C236.297 110.174 236.618 109.875 236.917 109.577C239.91 112.734 243.416 115.422 247.221 117.535C248.995 118.516 250.833 119.391 252.736 120.137C259.192 122.698 265.968 123.658 272.68 123.295Z" fill="#D7C4AC"/>
<path d="M267.314 138.422C266.993 138.998 266.673 139.574 266.331 140.15C261.222 141.942 256.348 144.459 251.816 147.702C248.93 149.772 246.215 152.055 243.629 154.487C240.978 156.94 238.477 159.565 236.061 162.253C235.591 162.125 235.142 161.975 234.693 161.826C237.579 158.604 240.572 155.49 243.778 152.588C247.07 149.601 250.576 146.828 254.381 144.417C258.55 141.814 262.868 139.83 267.314 138.422Z" fill="#D7C4AC"/>
<path d="M234.523 141.771C229.991 145.505 223.856 145.889 218.405 144.118C216.524 143.499 214.749 142.667 213.082 141.686C213.317 141.28 213.552 140.875 213.766 140.47C219.73 144.097 226.421 145.803 232.727 141.494C237.964 137.931 238.734 131.616 235.869 126.218C234.181 123.06 231.551 120.65 228.666 118.559C228.943 118.217 229.221 117.897 229.478 117.577C232.877 120.073 235.955 122.996 237.665 126.943C239.952 132.192 239.033 138.059 234.523 141.771Z" fill="#D7C4AC"/>
<path d="M271.12 106.462C266.438 107.465 261.457 106.398 257.289 103.923C256.006 103.155 254.809 102.28 253.719 101.32C252.778 100.488 251.881 99.5706 251.068 98.6105C251.453 98.3972 251.838 98.1625 252.201 97.9705C252.907 98.7812 253.655 99.5493 254.467 100.275C255.365 101.064 256.306 101.789 257.332 102.429C261.265 104.926 266.075 106.163 270.607 105.267C270.778 105.651 270.949 106.056 271.12 106.462Z" fill="#D7C4AC"/>
<path d="M248.075 164.471C248.225 164.471 248.374 164.429 248.481 164.322C261.692 153.057 269.238 136.117 269.302 135.968C269.452 135.648 269.302 135.264 268.96 135.115C268.639 134.965 268.255 135.115 268.105 135.456C268.041 135.627 260.602 152.289 247.626 163.362C247.348 163.597 247.327 164.002 247.562 164.279C247.712 164.386 247.883 164.471 248.075 164.471Z" fill="#131E07"/>
<path d="M263.167 146.486C263.21 146.486 263.231 146.486 263.274 146.486C268.02 145.654 272.316 142.39 272.487 142.24C272.765 142.027 272.829 141.622 272.616 141.344C272.402 141.067 271.996 141.003 271.718 141.216C271.675 141.238 267.507 144.417 263.06 145.206C262.718 145.27 262.483 145.611 262.547 145.953C262.59 146.273 262.868 146.486 263.167 146.486Z" fill="#131E07"/>
<path d="M351.367 161.591C351.709 161.591 351.987 161.335 352.008 160.994C352.072 160.013 353.633 136.693 350.063 126.751C349.935 126.41 349.571 126.239 349.229 126.367C348.887 126.495 348.716 126.858 348.844 127.199C352.307 136.885 350.725 160.695 350.704 160.93C350.683 161.293 350.939 161.591 351.303 161.613C351.345 161.591 351.367 161.591 351.367 161.591Z" fill="#131E07"/>
<path d="M265.946 264.981L258.379 250.857C256.498 247.337 259.063 243.07 263.06 243.091L380.482 243.496L377.147 261.674L265.946 264.981Z" fill="#A36A24"/>
<path d="M374.775 262.271L269.709 263.039C267.165 263.061 265.327 261.012 265.583 258.495L272.274 193.658C272.531 191.119 274.797 189.049 277.341 189.028L382.407 188.26C384.95 188.239 386.789 190.287 386.532 192.804L379.841 257.641C379.585 260.18 377.319 262.25 374.775 262.271Z" fill="#D5963D"/>
<path d="M268.491 263.765C268.448 263.765 268.426 263.765 268.384 263.765C267.892 263.701 267.55 263.274 267.614 262.783L275.823 193.316C275.887 192.826 276.314 192.484 276.806 192.548C277.298 192.612 277.64 193.039 277.576 193.53L269.367 262.996C269.303 263.423 268.94 263.765 268.491 263.765Z" fill="#A36A24"/>
<path d="M319.323 224.764C318.96 229.97 322.829 234.429 327.981 234.728C333.133 235.026 337.579 231.037 337.942 225.831C338.306 220.625 334.437 216.166 329.285 215.889C324.155 215.569 319.687 219.558 319.323 224.764Z" fill="#A36A24"/>
<path d="M375.651 265.834L269.131 266.602C266.78 266.623 264.963 264.575 265.262 262.25L266.224 254.825L380.546 253.993L379.456 262.463C379.199 264.383 377.575 265.813 375.651 265.834Z" fill="#A36A24"/>
<path d="M99.9781 270.08C99.9781 270.08 98.781 263.274 99.5292 252.82C100.726 236.136 112.12 221.82 128.152 216.956C141.406 212.945 158.935 210.384 176.934 215.675C178.259 216.059 179.585 216.486 180.91 216.977C219.324 230.759 214.236 303.917 208.336 345.008C202.436 386.121 202.051 410.869 184.608 414.923C176.592 416.779 164.899 417.014 154.574 416.736C152.415 416.672 150.341 416.587 148.353 416.502C148.353 416.502 126.656 418.55 115.433 409.098C104.211 399.647 99.9781 270.08 99.9781 270.08Z" fill="#731F07"/>
<path d="M154.552 416.736C164.877 417.035 176.57 416.8 184.586 414.923C202.03 410.869 202.414 386.099 208.314 345.008C214.214 303.917 219.323 230.759 180.888 216.977C179.563 216.507 178.238 216.081 176.912 215.675C170.392 217.276 164.428 221.649 161.264 231.165C152.671 257.023 167.271 346.459 154.552 416.736Z" fill="#A5410F"/>
<path d="M176.143 409.76C184.095 409.696 190.273 406.367 194.014 400.116C199.871 390.324 207.78 306.541 208.122 302.978C208.165 302.551 207.844 302.146 207.396 302.103C206.947 302.061 206.562 302.381 206.519 302.829C206.434 303.704 198.289 389.812 192.624 399.306C189.033 405.322 183.261 408.288 175.48 408.181C169.559 408.096 164.642 406.154 164.6 406.133C164.193 405.962 163.723 406.176 163.573 406.581C163.402 406.986 163.616 407.456 164.022 407.605C164.236 407.69 169.217 409.653 175.416 409.76C175.651 409.76 175.908 409.76 176.143 409.76Z" fill="#731F07"/>
<path d="M167.208 240.189C167.656 240.189 167.998 239.827 167.998 239.378C167.977 236.861 169.709 230.716 173.941 227.346C176.656 225.169 179.905 224.508 183.561 225.361C192.881 227.516 195.702 239.25 195.724 239.357C195.831 239.784 196.258 240.061 196.686 239.955C197.113 239.848 197.391 239.421 197.284 238.994C197.156 238.482 194.228 226.172 183.924 223.804C179.756 222.844 176.057 223.612 172.936 226.108C168.426 229.714 166.374 236.178 166.395 239.4C166.395 239.848 166.759 240.189 167.208 240.189Z" fill="#731F07"/>
<path d="M171.418 245.075C171.418 245.075 171.931 231.015 182.577 232.061C193.201 233.106 193.885 256.276 184.415 259.348C170.542 263.828 171.418 245.075 171.418 245.075Z" fill="#731F07"/>
<path d="M289.203 43.4595C289.203 43.4595 277.403 50.3507 281.593 55.1084C285.783 59.8874 290.358 58.9274 290.358 58.9274C290.358 58.9274 284.586 65.5625 291.298 69.4882C297.989 73.4138 305.749 57.4126 305.749 57.4126C305.749 57.4126 298.78 39.1712 289.203 43.4595Z" fill="#A36A24"/>
<path d="M285.869 40.4725C285.869 40.4725 277.853 28.9729 280.739 22.7218C283.624 16.4706 288.37 17.3454 288.37 17.3454C288.37 17.3454 286.959 5.80315 292.667 2.83759C298.374 -0.127971 305.728 3.47764 305.728 3.47764C305.728 3.47764 309.918 2.45356 316.801 2.85893C323.064 3.22162 324.24 8.04333 324.24 8.04333C324.24 8.04333 340.679 4.56573 345.873 10.0061C351.068 15.4466 343.842 22.4444 343.842 22.4444C343.842 22.4444 360.58 24.0232 357.63 35.4161C355.343 44.2488 341.64 44.0354 341.64 44.0354C341.64 44.0354 343.735 54.4042 334.052 54.8096C330.161 54.9803 297.028 37.5923 285.869 40.4725Z" fill="#A36A24"/>
<path d="M288.776 85.4466C292.987 89.5643 298.053 91.7404 302.329 92.9138C308.977 94.77 316.651 92.9565 321.845 89.927L322.23 79.9849L322.316 77.958L322.465 74.1177L298.823 57.4551L297.455 56.495L296.536 55.855L296.194 56.7084L295.809 57.6898L295.916 58.1165C293.778 67.7172 292.581 78.6407 288.776 85.4466Z" fill="#E8A36F"/>
<path d="M321.91 87.8574C312.29 85.2119 307.267 76.5499 305.172 71.7495C309.811 75.7605 315.475 78.47 320.67 78.15C321.226 78.1073 321.782 78.0433 322.295 77.958L321.91 87.8574Z" fill="#131E07"/>
<path d="M295.403 56.7085C295.446 56.7298 295.51 56.7298 295.552 56.7298C295.617 57.0498 295.681 57.3699 295.766 57.6899C295.809 57.8392 295.83 57.9672 295.873 58.1166C298.588 67.8027 310.473 78.7689 320.67 78.1501C321.226 78.1075 321.782 78.0435 322.295 77.9581C331.914 76.2727 334.714 65.2851 333.838 57.2845C333.838 57.2845 333.859 56.9858 333.923 56.4524C333.945 56.2604 333.966 56.0471 333.988 55.8124C334.073 55.0657 334.18 54.0416 334.33 52.8468C334.33 52.8255 334.33 52.8255 334.33 52.8042C334.778 49.2199 335.505 43.9502 336.553 38.7871C338.37 29.677 333.026 15.788 314.449 11.521C295.873 7.25397 288.113 20.6523 288.156 30.3384C288.156 32.7706 288.626 35.5868 289.31 38.4457C287.515 38.4671 285.57 39.3418 284.394 42.414C282.192 48.0678 288.776 55.6844 295.403 56.7085Z" fill="#E8A36F"/>
<path d="M326.207 62.5755C323.107 63.3863 319.837 62.4049 317.742 59.9727C317.25 59.3966 318.062 58.5219 318.575 59.0979C320.392 61.2101 323.15 62.1275 325.865 61.4021C326.634 61.2101 326.955 62.3622 326.207 62.5755Z" fill="#B05935"/>
<g opacity="0.5">
<g opacity="0.5">
<g opacity="0.5">
<g opacity="0.5">
<g opacity="0.5">
<g opacity="0.5">
<path opacity="0.5" d="M306.797 51.8228C306.69 52.8469 309.17 53.9776 312.355 54.3403C315.54 54.703 318.212 54.1483 318.34 53.1242C318.468 52.1001 315.967 50.9694 312.782 50.6067C309.576 50.244 306.904 50.7774 306.797 51.8228Z" fill="#B05935"/>
</g>
</g>
</g>
</g>
</g>
</g>
<g opacity="0.5">
<g opacity="0.5">
<g opacity="0.5">
<g opacity="0.5">
<g opacity="0.5">
<g opacity="0.5">
<path opacity="0.5" d="M333.924 56.4737C333.945 56.2817 333.966 56.0683 333.988 55.8336C334.073 55.0869 334.18 54.0628 334.33 52.8681C334.33 52.8467 334.33 52.8467 334.33 52.8254C331.722 52.7187 329.691 53.2521 329.606 54.1482C329.499 55.0229 331.337 55.983 333.924 56.4737Z" fill="#B05935"/>
</g>
</g>
</g>
</g>
</g>
</g>
<path d="M313.466 39.9818C313.167 39.8964 312.91 39.7258 312.675 39.4911C311.927 38.7443 311.927 37.5283 312.675 36.7602C312.846 36.5895 317.143 32.4292 322.316 34.7974C323.278 35.2454 323.705 36.3762 323.256 37.3576C322.807 38.3176 321.674 38.7444 320.691 38.2963C317.912 37.0162 315.411 39.4697 315.39 39.4911C314.877 40.0244 314.129 40.1738 313.466 39.9818Z" fill="#A36A24"/>
<path d="M333.411 42.222C332.876 42.0513 332.406 41.6673 332.192 41.0912C331.593 39.5765 328.921 39.2564 328.237 39.2351C327.169 39.2351 326.313 38.3604 326.335 37.2936C326.335 36.2269 327.211 35.3735 328.28 35.3948C330.439 35.4161 334.458 36.3335 335.805 39.6618C336.189 40.6432 335.719 41.774 334.736 42.158C334.266 42.35 333.817 42.35 333.411 42.222Z" fill="#A36A24"/>
<path d="M330.439 48.8785C330.204 50.1799 329.477 51.14 328.793 51.0333C328.109 50.9266 327.746 49.7745 327.981 48.4731C328.216 47.1717 328.943 46.2116 329.627 46.3183C330.311 46.4249 330.674 47.577 330.439 48.8785Z" fill="#131E07"/>
<path d="M326.57 45.8703C326.506 45.8489 326.442 45.7849 326.42 45.7209C326.335 45.5502 326.377 45.3369 326.548 45.2515C326.698 45.1662 330.033 43.3314 332.641 45.5502C332.79 45.6782 332.812 45.8916 332.684 46.0409C332.555 46.1903 332.342 46.2116 332.192 46.0836C329.947 44.1848 326.933 45.8489 326.89 45.8703C326.784 45.9129 326.655 45.9129 326.57 45.8703Z" fill="#131E07"/>
<path d="M334.885 41.6886C330.674 40.7712 326.527 43.4381 325.586 47.641C325.394 48.4731 325.373 49.3052 325.437 50.0946L326.762 50.5853C326.591 49.7319 326.613 48.8145 326.805 47.9184C327.574 44.3768 331.059 42.158 334.607 42.926C338.134 43.6941 340.379 47.1717 339.609 50.7133C338.84 54.2549 335.334 56.4737 331.807 55.7057C330.161 55.343 328.772 54.4042 327.874 53.1241L326.805 53.7429C327.874 55.3216 329.541 56.4951 331.551 56.9218C335.74 57.8178 339.909 55.1723 340.828 50.9693C341.747 46.745 339.075 42.606 334.885 41.6886Z" fill="white"/>
<path d="M308.442 46.5744C309.361 42.3927 313.53 39.7259 317.72 40.6219C321.91 41.5393 324.582 45.6997 323.684 49.8813C322.765 54.063 318.596 56.7299 314.406 55.8338C310.195 54.9164 307.523 50.7561 308.442 46.5744ZM309.639 46.8304C308.87 50.3507 311.114 53.8496 314.641 54.6177C318.169 55.3857 321.674 53.1456 322.444 49.6253C323.213 46.105 320.969 42.6061 317.442 41.838C313.915 41.07 310.409 43.3101 309.639 46.8304Z" fill="white"/>
<path d="M339.225 51.3321C339.417 51.3747 339.631 51.3321 339.781 51.1827C340.037 50.948 340.037 50.564 339.802 50.308C339.738 50.244 338.327 48.7719 335.484 48.2812C335.142 48.2172 334.821 48.4518 334.757 48.7932C334.693 49.1346 334.928 49.4546 335.27 49.5186C337.686 49.9453 338.883 51.1614 338.904 51.1827C339.011 51.2467 339.118 51.3107 339.225 51.3321Z" fill="white"/>
<path d="M309.81 43.7795C304.637 41.3474 300.832 41.4754 298.566 41.9874L298.695 43.2462C300.704 42.7768 304.317 42.5848 309.297 44.9103C309.597 45.0596 309.981 44.9316 310.131 44.6116C310.259 44.3129 310.131 43.9289 309.81 43.7795Z" fill="white"/>
<path d="M289.31 38.4457C289.31 38.4457 293.457 38.0617 296.001 40.5365C298.545 42.99 298.395 49.3052 301.837 49.6466C305.278 49.9879 300.64 33.88 302.457 31.6398C304.252 29.3996 314.321 32.0452 317.399 28.0982C320.456 24.1726 324.09 24.1939 327.617 27.8635C331.144 31.5331 339.695 34.9254 338.989 29.4423C338.284 23.9592 325.33 9.4301 314.043 9.08874C302.777 8.74738 291.084 11.2009 288.049 22.4444C285.014 33.6666 289.31 38.4457 289.31 38.4457Z" fill="#A36A24"/>
<path d="M300.383 56.1751C299.913 56.7511 299.357 57.1778 298.801 57.4765C297.775 58.0099 296.685 58.1379 295.894 58.1379C295.851 57.9885 295.809 57.8605 295.787 57.7112C295.702 57.3912 295.638 57.0711 295.573 56.7298C295.531 56.7298 295.488 56.7084 295.424 56.7084C295.638 56.7298 295.894 56.7298 296.172 56.7084C296.557 56.6871 296.984 56.6444 297.433 56.4951C298.096 56.3031 298.759 55.9404 299.293 55.279C299.528 54.9803 299.977 54.9376 300.276 55.1723C300.576 55.4497 300.618 55.8764 300.383 56.1751Z" fill="#B05935"/>
<path d="M321.525 65.3278C320.563 65.0291 320.114 64.3037 320.093 64.2611C319.964 64.0477 320.029 63.7704 320.242 63.6423C320.456 63.5143 320.734 63.5783 320.862 63.7917C320.884 63.8344 321.482 64.7518 322.786 64.5171C323.043 64.4744 323.278 64.6451 323.321 64.8798C323.363 65.1358 323.192 65.3705 322.957 65.4132C322.38 65.4985 321.91 65.4558 321.525 65.3278Z" fill="#B05935"/>
<path d="M294.313 51.8441C294.035 51.7588 293.843 51.5028 293.821 51.2041C293.586 46.2544 288.092 43.3528 288.049 43.3101C287.707 43.1395 287.579 42.7128 287.75 42.3714C287.921 42.03 288.349 41.902 288.691 42.0727C288.947 42.2007 294.933 45.3583 295.232 51.1401C295.253 51.5241 294.954 51.8441 294.569 51.8655C294.484 51.8655 294.398 51.8655 294.313 51.8441Z" fill="#B05935"/>
<path d="M288.669 48.2811C288.584 48.2598 288.498 48.2171 288.434 48.1531C288.135 47.8971 288.092 47.4704 288.349 47.1717C288.413 47.0863 290.037 45.1875 292.838 45.6996C293.222 45.7636 293.479 46.1263 293.393 46.5103C293.308 46.8943 292.966 47.1503 292.581 47.065C290.572 46.7023 289.439 48.0464 289.439 48.0677C289.225 48.3024 288.926 48.3664 288.669 48.2811Z" fill="#B05935"/>
<path d="M324.475 55.6417C324.304 55.599 324.175 55.4923 324.068 55.3216C323.876 54.9803 323.983 54.5536 324.325 54.3616L328.386 52.0147L325.159 50.6279C324.966 50.5426 324.838 50.3933 324.774 50.2012L322.145 41.6673C322.038 41.3046 322.23 40.8992 322.615 40.7925C322.978 40.6858 323.384 40.8779 323.491 41.2619L326.035 49.4759L330.246 51.2893C330.481 51.396 330.652 51.6307 330.674 51.8867C330.695 52.1427 330.546 52.3988 330.332 52.5268L325.073 55.5777C324.859 55.6843 324.646 55.7057 324.475 55.6417Z" fill="#B05935"/>
<path d="M323 46.2543C323.192 46.297 323.406 46.2543 323.556 46.105C323.748 45.9129 324.774 45.0809 325.843 46.1476C326.078 46.3823 326.484 46.3823 326.719 46.1476C326.954 45.9129 326.954 45.5076 326.719 45.2729C325.137 43.6728 323.406 44.5262 322.701 45.2089C322.444 45.4436 322.444 45.8276 322.679 46.0836C322.786 46.169 322.893 46.233 323 46.2543Z" fill="white"/>
<path d="M319.045 47.1076C318.81 48.409 318.084 49.3691 317.399 49.2624C316.715 49.1558 316.352 48.0037 316.587 46.7022C316.822 45.4008 317.549 44.4407 318.233 44.5474C318.896 44.6541 319.259 45.8062 319.045 47.1076Z" fill="#131E07"/>
<path d="M314.556 44.4835C314.492 44.4621 314.428 44.4195 314.385 44.3554C314.278 44.2061 314.3 43.9714 314.449 43.8647C314.578 43.7581 317.656 41.5179 320.542 43.3954C320.713 43.502 320.755 43.7154 320.648 43.8861C320.542 44.0568 320.328 44.0994 320.157 43.9928C317.699 42.3926 314.898 44.4194 314.877 44.4408C314.77 44.4835 314.663 44.5048 314.556 44.4835Z" fill="#131E07"/>
<path d="M147.242 41.8165L120.264 15.2971C119.922 14.9557 119.452 14.7637 118.939 14.7851C118.447 14.8064 117.977 15.0197 117.656 15.3824L79.4351 57.8177C79.1359 58.1591 78.9648 58.5858 78.9648 59.0338L81.8507 452.835L85.4633 452.814L82.5775 59.6952L119.089 19.1801L144.719 44.398C145.425 45.1021 146.579 45.0807 147.263 44.3767C147.968 43.6513 147.947 42.5205 147.242 41.8165Z" fill="#131E07"/>
<path d="M120.863 469.135L46.6651 469.668L46.6437 466.895C46.5582 456.547 54.9165 448.099 65.2841 448.035L101.966 447.757C112.334 447.672 120.799 456.014 120.863 466.361V469.135Z" fill="#131E07"/>
<path d="M184.33 54.6388C190.294 61.4659 189.589 71.8561 182.748 77.8085C175.908 83.761 165.497 83.0569 159.533 76.2298C153.569 69.3812 154.275 59.0124 161.115 53.06C167.956 47.0862 178.366 47.7902 184.33 54.6388Z" fill="white"/>
<path d="M208.08 38.2749C190.23 22.3803 162.89 21.8469 144.377 37.9335C125.865 54.0414 122.68 81.1368 136.019 100.957L208.08 38.2749Z" fill="#131E07"/>
<path d="M537.899 389.406L537.707 390.857L537.493 392.585L537.215 394.633L536.125 403.21L535.997 404.149L534.842 413.131L534.714 414.091L530.118 449.699L530.011 450.659L527.638 469.028L475.971 469.412L475.223 464.207L475.095 463.247L474.689 460.452L474.539 459.534L472.273 443.746L472.123 442.637L467.036 407.285L466.865 406.176L465.946 399.775L464.535 389.94L537.899 389.406Z" fill="#D5963D"/>
<path d="M481.379 428.94C480.503 434.871 477.147 440.29 472.273 443.725L472.123 442.637C478.194 438.092 481.721 430.156 480.332 422.603C479.028 415.541 473.663 409.738 467.036 407.263L466.865 406.154C468.917 406.858 470.884 407.882 472.658 409.183C478.921 413.728 482.512 421.238 481.379 428.94Z" fill="#A36A24"/>
<path d="M536.125 403.21L535.997 404.127C529.755 403.509 523.919 405.514 518.789 409.056C514.385 412.107 509.939 415.819 504.317 415.883C499.507 415.925 494.697 413.387 492.196 409.269C489.503 404.853 489.588 399.156 492.175 394.74C492.496 394.185 493.351 394.676 493.03 395.231C489.567 401.14 491.149 409.013 496.985 412.768C502.158 416.096 507.951 415.072 512.932 411.957C517.656 408.992 521.739 405.301 527.275 403.871C530.225 403.103 533.218 402.911 536.125 403.21Z" fill="#A36A24"/>
<path d="M537.707 390.857L537.493 392.585C537.001 393.353 536.446 394.057 535.826 394.74C533.004 397.876 529.113 400.01 524.86 400.543C520.05 401.14 515.155 399.562 511.478 396.489C510.708 395.849 509.981 395.124 509.319 394.356C508.913 393.887 509.597 393.182 510.003 393.652C510.879 394.676 511.863 395.593 512.931 396.383C516.202 398.772 520.264 400.01 524.368 399.604C528.173 399.242 531.7 397.471 534.372 394.825C535.484 393.716 536.467 392.457 537.237 391.092C537.343 390.9 537.536 390.836 537.707 390.857Z" fill="#A36A24"/>
<path d="M534.842 413.131L534.714 414.091C532.854 414.176 531.016 414.773 529.455 415.925C526.377 418.208 524.923 422.305 525.778 426.017C526.462 428.961 528.301 431.607 528.386 434.722C528.45 437.218 527.318 439.522 525.693 441.378C521.482 446.2 514.855 447.224 509.917 451C504.829 454.905 503.162 462.329 506.347 467.983C506.582 468.41 506.86 468.815 507.138 469.22H505.941C505.706 468.858 505.471 468.474 505.278 468.068C502.499 462.628 503.611 455.502 508.057 451.299C513.337 446.285 521.973 445.73 526.035 439.287C528.429 435.511 526.847 432.097 525.458 428.321C524.346 425.334 524.197 422.283 525.522 419.339C527.275 415.477 530.973 413.301 534.842 413.131Z" fill="#A36A24"/>
<path d="M520.648 460.26C520.584 464.164 522.85 467.428 526.056 469.05L524.175 469.071C521.289 467.023 519.451 463.609 519.686 459.769C520.028 454.073 524.71 449.934 530.139 449.699L530.011 450.659C524.988 450.936 520.712 454.99 520.648 460.26Z" fill="#A36A24"/>
<path d="M516.651 430.156C516.202 434.444 512.162 436.962 509.062 439.351C504.979 442.509 501.025 445.944 498.032 450.189C494.184 455.651 492.175 463.055 494.163 469.284H493.137C491.384 463.439 492.837 456.633 496.087 451.32C498.545 447.309 501.901 443.917 505.492 440.909C507.245 439.437 509.105 438.071 510.922 436.663C513.081 434.999 515.283 432.93 515.625 430.071C516.352 423.777 508.229 422.859 503.782 423.201C499.25 423.542 494.526 425.1 491.811 428.961C489.225 432.631 488.754 437.325 487.985 441.634C487.151 446.2 485.847 450.83 483.025 454.606C480.973 457.358 477.916 459.513 474.646 460.452L474.518 459.534C476.035 459.129 477.489 458.425 478.772 457.486C483.432 454.072 485.591 448.44 486.702 442.978C487.557 438.839 487.899 434.508 489.716 430.625C491.384 427.062 494.355 424.588 498.053 423.329C501.88 422.006 506.647 421.601 510.559 422.667C513.979 423.606 517.057 426.401 516.651 430.156Z" fill="#A36A24"/>
<path d="M485.313 469.327H484.308C483.902 467.599 483.068 465.999 481.486 464.996C479.456 463.673 477.275 463.567 475.223 464.185L475.095 463.247C477.681 462.457 480.418 462.734 482.812 464.761C484.201 465.977 484.949 467.599 485.313 469.327Z" fill="#A36A24"/>
<path d="M537.899 389.406L537.707 390.857L537.493 392.585L537.215 394.633L535.826 394.74L534.372 394.847L512.953 396.383L511.478 396.489L465.946 399.775L464.535 389.94L537.899 389.406Z" fill="#171612"/>
<path d="M544.44 389.79C515.646 392.436 486.83 392.649 458.015 390.43L457.951 382.6L544.376 381.982L544.44 389.79Z" fill="#D5963D"/>
<path d="M524.026 289.772C521.354 293.015 519.494 304.984 514.342 306.946C510.794 308.29 508.87 303.191 515.71 296.663C520.114 292.46 522.059 287.468 522.871 284.438C521.61 279.168 519.986 273.771 517.912 268.863C513.957 272.554 507.63 277.803 505.792 275.328C503.782 272.64 509.661 264.063 512.931 259.668C511.371 257.449 509.661 255.508 507.737 253.972C504.616 251.454 501.003 250.046 496.813 250.174C493.799 250.281 491.042 251.39 488.562 253.246C492.153 260.223 497.476 272.021 493.821 274.773C490.443 277.333 485.441 267.562 482.299 260.265C478.002 266.986 475.159 276.16 473.962 285.014C474.817 286.593 476.313 288.428 478.857 290.22C485.612 294.999 493.65 304.664 489.674 306.861C485.698 309.059 481.486 303.362 478.494 298.284C476.955 295.682 475.223 293.569 473.363 292.183C473.321 293.74 473.321 295.234 473.385 296.706C474.646 324.505 501.837 324.292 501.837 324.292C501.837 324.292 529.049 317.827 524.026 289.772ZM489.802 290.561C487.108 290.561 482.79 285.569 480.76 282.795C478.729 280 480.332 278.102 482.256 278.614C482.277 278.614 482.299 278.635 482.341 278.635C485.056 279.446 493.286 290.582 489.802 290.561ZM513.487 283.734C513.509 283.734 513.551 283.713 513.573 283.713C515.497 283.158 517.1 284.438 516.202 286.892C515.048 290.113 513.466 291.415 511.05 290.22C509.511 289.473 510.772 284.566 513.487 283.734Z" fill="#7F784B"/>
<path d="M498.63 282.987C501.11 295.127 500.426 307.693 499.614 319.982C498.737 333.103 497.519 346.267 498.117 359.43C498.459 366.898 499.4 374.344 501.26 381.598C501.409 382.216 502.371 381.939 502.222 381.32C495.574 355.27 501.324 328.665 501.324 302.295C501.324 295.724 500.896 289.153 499.592 282.689C499.464 282.091 498.502 282.368 498.63 282.987Z" fill="#171612"/>
<path d="M486.702 324.526C486.467 328.729 492.025 339.482 489.032 344.112C486.959 347.291 482.406 344.283 484.073 335.002C485.142 329.007 483.752 323.844 482.641 320.921C478.515 317.401 474.005 314.008 469.43 311.256C468.425 316.569 466.416 324.526 463.466 323.609C460.259 322.606 459.939 312.237 459.981 306.754C457.416 305.88 454.872 305.325 452.414 305.218C448.417 305.026 444.654 306.008 441.341 308.589C438.968 310.445 437.386 312.963 436.489 315.928C443.522 319.449 454.766 325.849 453.462 330.202C452.243 334.255 442.431 329.306 435.591 325.273C436.104 333.231 439.225 342.32 443.479 350.171C445.103 350.939 447.391 351.537 450.512 351.494C458.784 351.366 471.012 354.459 469.088 358.556C467.185 362.673 460.409 360.54 454.979 358.214C452.2 357.02 449.55 356.337 447.22 356.316C448.096 357.596 448.994 358.812 449.913 359.943C467.356 381.64 489.203 365.468 489.203 365.468C489.203 365.468 507.331 344.261 486.702 324.526ZM459.533 345.328C457.352 346.907 450.918 345.413 447.647 344.368C444.355 343.323 444.526 340.826 446.386 340.122C446.407 340.122 446.429 340.101 446.471 340.101C449.122 339.141 462.354 343.28 459.533 345.328ZM474.624 325.871C474.646 325.849 474.667 325.828 474.667 325.807C475.886 324.228 477.938 324.313 478.665 326.831C479.627 330.116 479.114 332.079 476.463 332.548C474.817 332.847 472.936 328.132 474.624 325.871Z" fill="#7F784B"/>
<path d="M462.141 333.978C468.575 339.802 474.945 345.84 480.161 352.817C484.159 358.15 487.237 364.017 490.037 370.034C492.025 374.301 493.906 378.611 495.852 382.878C496.108 383.454 496.963 382.942 496.707 382.366C493.522 375.325 490.55 368.156 486.831 361.372C483.496 355.291 479.349 349.766 474.625 344.709C470.905 340.698 466.908 336.943 462.846 333.274C462.376 332.847 461.671 333.551 462.141 333.978Z" fill="#171612"/>
<path d="M510.687 370.311C510.687 370.311 532.662 386.313 549.935 364.487C550.832 363.335 551.73 362.119 552.585 360.839C550.255 360.881 547.626 361.564 544.847 362.801C539.439 365.17 532.684 367.346 530.738 363.249C528.793 359.153 540.999 355.974 549.251 356.038C552.372 356.06 554.637 355.441 556.262 354.651C560.473 346.779 563.53 337.647 563.958 329.69C557.16 333.786 547.391 338.8 546.13 334.767C544.783 330.415 555.984 323.929 562.996 320.366C562.076 317.401 560.473 314.904 558.1 313.048C554.787 310.488 551.003 309.549 547.006 309.763C544.548 309.891 542.025 310.467 539.46 311.363C539.546 316.846 539.31 327.236 536.104 328.26C533.175 329.199 531.08 321.241 530.054 315.95C525.48 318.723 521.012 322.158 516.908 325.721C515.796 328.665 514.449 333.85 515.582 339.824C517.314 349.104 512.782 352.134 510.687 348.976C507.652 344.389 513.124 333.594 512.868 329.391C492.389 349.232 510.687 370.311 510.687 370.311ZM553.248 344.603C553.269 344.624 553.312 344.624 553.333 344.624C555.215 345.328 555.386 347.803 552.115 348.891C548.844 349.958 542.431 351.494 540.23 349.936C537.365 347.931 550.576 343.685 553.248 344.603ZM523.171 337.306C520.52 336.858 519.986 334.895 520.927 331.61C521.653 329.092 523.684 328.985 524.924 330.543C524.945 330.564 524.967 330.586 524.967 330.607C526.677 332.868 524.838 337.583 523.171 337.306Z" fill="#7F784B"/>
<path d="M536.81 337.925C523.706 351.238 513.317 366.642 503.291 382.323C502.949 382.856 503.804 383.347 504.146 382.814C514.129 367.218 524.454 351.878 537.515 338.608C537.964 338.16 537.259 337.455 536.81 337.925Z" fill="#171612"/>
<path d="M544.376 381.96C544.376 382.75 525.03 383.539 501.174 383.71C477.296 383.88 457.951 383.39 457.951 382.579C457.951 381.79 477.297 381 501.153 380.829C525.03 380.659 544.376 381.171 544.376 381.96Z" fill="#171612"/>
</svg>
