<svg width="652" height="432" viewBox="0 0 652 432" fill="none" xmlns="http://www.w3.org/2000/svg">
<path d="M615.314 223.262H469.045C468.35 223.262 467.778 222.691 467.778 221.996V1.53063C467.778 0.836246 468.35 0.264404 469.045 0.264404H615.314C616.008 0.264404 616.58 0.836246 616.58 1.53063V221.996C616.6 222.691 616.028 223.262 615.314 223.262ZM470.331 220.73H614.047V2.81727H470.331V220.73Z" fill="#C2AC96"/>
<path d="M614.332 32.5938H469.044C468.349 32.5938 467.777 32.0219 467.777 31.3276C467.777 30.6332 468.349 30.0613 469.044 30.0613H614.332C615.027 30.0613 615.599 30.6332 615.599 31.3276C615.599 32.0219 615.047 32.5938 614.332 32.5938Z" fill="#C2AC96"/>
<path d="M540.177 222.69C539.482 222.69 538.911 222.119 538.911 221.424V31.3071C538.911 30.6127 539.482 30.0409 540.177 30.0409C540.871 30.0409 541.443 30.6127 541.443 31.3071V221.404C541.443 222.119 540.871 222.69 540.177 222.69Z" fill="#C2AC96"/>
<path d="M544.938 281.162C544.243 281.162 543.671 280.59 543.671 279.895V261.882C543.671 261.188 544.243 260.616 544.938 260.616C545.632 260.616 546.204 261.188 546.204 261.882V279.895C546.204 280.59 545.632 281.162 544.938 281.162Z" fill="#C2AC96"/>
<path d="M591.583 302.197C590.888 302.197 590.316 301.626 590.316 300.931V282.918C590.316 282.224 590.888 281.652 591.583 281.652C592.277 281.652 592.849 282.224 592.849 282.918V300.931C592.849 301.626 592.277 302.197 591.583 302.197Z" fill="#C2AC96"/>
<path d="M615.44 282.673H524.578C523.884 282.673 523.312 282.101 523.312 281.407C523.312 280.712 523.884 280.141 524.578 280.141H615.44C616.134 280.141 616.706 280.712 616.706 281.407C616.706 282.101 616.134 282.673 615.44 282.673Z" fill="#C2AC96"/>
<path d="M614.235 302.197H549.208C548.514 302.197 547.942 301.625 547.942 300.931C547.942 300.237 548.514 299.665 549.208 299.665H614.235C614.929 299.665 615.501 300.237 615.501 300.931C615.501 301.625 614.929 302.197 614.235 302.197Z" fill="#C2AC96"/>
<path d="M302.925 149.924H80.9894C80.295 149.924 79.7231 149.352 79.7231 148.657V1.38756C79.7231 0.69318 80.295 0.121338 80.9894 0.121338H302.925C303.62 0.121338 304.192 0.69318 304.192 1.38756V148.637C304.212 149.352 303.64 149.924 302.925 149.924ZM82.2556 147.371H301.659V2.6742H82.2556V147.371Z" fill="#C2AC96"/>
<path d="M302.354 33.1045H80.9894C80.295 33.1045 79.7231 32.5327 79.7231 31.8383C79.7231 31.1439 80.295 30.5721 80.9894 30.5721H302.354C303.048 30.5721 303.62 31.1439 303.62 31.8383C303.62 32.5327 303.048 33.1045 302.354 33.1045Z" fill="#C2AC96"/>
<path d="M189.19 149.924C188.495 149.924 187.923 149.352 187.923 148.658V31.818C187.923 31.1236 188.495 30.5518 189.19 30.5518C189.884 30.5518 190.456 31.1236 190.456 31.818V148.658C190.456 149.352 189.904 149.924 189.19 149.924Z" fill="#C2AC96"/>
<path d="M290.793 392.079C290.793 398.001 356.555 402.801 437.675 402.801C518.795 402.801 584.557 398.001 584.557 392.079C584.557 386.156 518.795 381.357 437.675 381.357C356.535 381.357 290.793 386.156 290.793 392.079Z" fill="#C2AC96"/>
<path d="M326.288 362.547C328.902 365.161 331.761 367.673 334.845 370.042C350.285 381.887 371.627 390.404 399.974 393.242C544.977 407.743 592.869 339.734 604.591 235.087C609.799 188.441 597.586 157.684 582.453 137.895C580.86 135.832 579.246 133.871 577.633 132.054C576.714 131.012 575.775 130.011 574.794 129.031C555.229 109.057 527.005 99.6628 499.27 104.217C477.459 107.812 457.669 119.453 441.596 142.735C415.904 179.945 440.207 211.948 366.746 214.093C310.542 215.686 274.904 311.285 326.288 362.547Z" fill="#D5963D"/>
<path d="M476.233 166.099C486.812 142.163 520.081 140.141 533.438 162.627C542.036 177.107 547.407 198.592 538.503 228.838C518.713 296.172 481.135 293.497 473.803 294.334C440.146 298.174 377.917 296.826 367.113 268.07C358.372 244.768 391.805 230.717 433.202 227.47C459.221 225.407 464.939 191.668 476.233 166.099Z" fill="#A36A24"/>
<path d="M534.541 319.312C534.867 319.312 535.194 319.189 535.439 318.924C535.909 318.433 535.888 317.657 535.398 317.188C520.592 303.116 506.459 294.824 497.207 290.352C487.139 285.491 480.665 283.98 480.399 283.919C479.725 283.776 479.072 284.184 478.929 284.838C478.786 285.512 479.194 286.165 479.848 286.308C480.154 286.369 505.908 292.537 533.703 318.964C533.928 319.209 534.234 319.312 534.541 319.312Z" fill="#A36A24"/>
<path d="M529.64 302.83C530.028 302.83 530.416 302.647 530.661 302.279C531.049 301.707 530.885 300.951 530.334 300.563C529.762 300.175 515.977 291.046 494.655 288.718C493.981 288.636 493.368 289.127 493.287 289.801C493.205 290.474 493.695 291.087 494.369 291.169C515.098 293.436 528.802 302.524 528.945 302.606C529.17 302.769 529.415 302.83 529.64 302.83Z" fill="#A36A24"/>
<path d="M540.565 201.185C541.178 201.185 541.709 200.736 541.791 200.103C543.588 185.827 549.715 174.942 554.555 168.304C559.804 161.095 564.705 157.215 564.766 157.174C565.297 156.745 565.399 155.969 564.971 155.438C564.542 154.907 563.786 154.805 563.235 155.234C563.03 155.397 558.068 159.318 552.615 166.793C547.591 173.676 541.219 184.99 539.34 199.817C539.258 200.491 539.728 201.104 540.402 201.185C540.463 201.185 540.504 201.185 540.565 201.185Z" fill="#A36A24"/>
<path d="M326.288 362.547C328.902 365.161 331.761 367.673 334.845 370.042C352.694 380.764 374.465 387.81 398.442 390.567C405.876 391.425 413.391 391.854 420.907 391.854C441.616 391.854 462.366 388.627 481.931 382.296C532.825 365.815 569.545 330.544 585.332 282.979C593.991 256.899 598.239 231.554 597.953 207.619C597.729 188.441 594.645 170.142 588.743 153.212C586.782 147.555 584.638 142.469 582.473 137.895C580.88 135.832 579.266 133.871 577.653 132.054C576.734 131.012 575.795 130.011 574.814 129.031C578.674 135.648 582.82 144.062 586.353 154.213C595.441 180.395 602.242 223.855 582.881 282.162C567.36 328.91 531.232 363.589 481.155 379.804C427.953 397.041 366.398 390.057 328.003 362.424C327.452 362.036 326.737 362.098 326.288 362.547Z" fill="#A36A24"/>
<path d="M435.898 114.306C456.464 114.122 476.703 125.171 496.104 111.773C495.349 107.362 492.837 66.2712 493.204 60.0013C493.899 47.6046 491.652 13.0694 466.103 12.0075C440.554 10.9659 422.99 29.612 430.914 51.7301C434.366 61.3901 436.694 101.93 435.898 114.306Z" fill="#131E07"/>
<path d="M353.307 211.989C349.856 205.372 352.408 197.203 359.046 193.751C359.128 193.71 367.154 189.524 375.854 184.234C390.947 175.064 394.255 171.102 394.602 170.653C402.567 157.603 413.677 122.291 417.313 109.772C419.375 102.604 426.891 98.4579 434.059 100.541C441.228 102.604 445.374 110.119 443.291 117.288C441.861 122.271 428.913 166.466 417.598 184.908C415.066 189.054 409.674 195.303 390.477 207.006C380.755 212.928 371.933 217.544 371.565 217.748C369.89 218.626 368.114 219.117 366.337 219.239C361.088 219.607 355.88 216.931 353.307 211.989Z" fill="#B96F38"/>
<path d="M407.082 182.498C407.265 182.58 407.47 182.58 407.633 182.457C407.899 182.294 407.98 181.926 407.817 181.641C403.61 174.962 396.135 170.755 395.829 170.592C395.543 170.428 395.195 170.531 395.032 170.816C394.869 171.102 394.971 171.45 395.257 171.613C395.338 171.654 402.772 175.84 406.816 182.274C406.898 182.376 406.979 182.437 407.082 182.498Z" fill="#6B2D18"/>
<path d="M397.238 172.512C397.381 172.573 397.565 172.593 397.708 172.512C400.628 171.245 404.468 172.43 404.509 172.45C404.815 172.552 405.142 172.369 405.244 172.062C405.346 171.756 405.162 171.429 404.856 171.327C404.672 171.266 400.546 169.979 397.218 171.429C396.911 171.552 396.789 171.899 396.911 172.205C397.013 172.348 397.115 172.45 397.238 172.512Z" fill="#6B2D18"/>
<path d="M418.559 224.835C420.07 225.244 421.561 225.632 423.052 225.999C423.664 226.163 424.297 226.306 424.91 226.449C449.193 232.085 470.29 231.289 483.626 229.676C484.28 229.594 484.913 229.512 485.525 229.43C493.327 228.368 498.065 227.102 498.637 226.939C498.657 226.939 498.678 226.939 498.698 226.918C497.412 221.098 496.819 218.484 496.493 212.663C496.411 211.029 496.329 209.457 496.288 207.966C496.207 205.168 496.186 202.615 496.207 200.532V200.409C496.207 199 496.247 197.795 496.268 196.835C486.955 195.079 469.82 191.995 453.911 190.035C442.372 188.605 431.507 187.768 424.767 188.442L424.379 190.954L423.807 194.65L423.317 197.428L422.276 203.493L418.661 224.406L418.559 224.835Z" fill="#B96F38"/>
<path d="M496.655 215.053C496.655 215.053 443.821 221.323 421.356 207.762C421.356 207.762 416.475 230.166 416.904 236.109C417.925 250.344 497.697 247.198 499.698 233.27C500.576 227.123 496.655 215.053 496.655 215.053Z" fill="#131E07"/>
<path d="M449.152 203.493C449.172 205.495 449.867 207.108 450.684 207.088C451.5 207.088 452.154 205.454 452.134 203.452C452.113 201.451 451.419 199.838 450.602 199.858C449.785 199.858 449.131 201.492 449.152 203.493Z" fill="#6B2D18"/>
<path d="M423.787 194.65C429.363 195.059 436.756 195.773 445.047 197.06C461.039 199.552 480.379 204.147 496.472 212.663C496.391 211.029 496.309 209.457 496.268 207.966C496.186 205.168 496.166 202.615 496.186 200.532V200.409C496.186 199 496.227 197.795 496.248 196.835C486.935 195.079 469.8 191.995 453.891 190.035C442.352 188.605 431.487 187.768 424.747 188.442L424.359 190.954L423.787 194.65Z" fill="#6B2D18"/>
<path d="M419.886 191.995C419.886 191.995 419.049 195.794 423.358 197.448L424.359 190.953C424.359 190.933 421.111 191.219 419.886 191.995Z" fill="#D7C4AC"/>
<path d="M496.288 207.946C505.376 207.558 503.6 202.431 503.6 202.431L503.538 202.411L496.207 200.369V200.491L496.288 207.946Z" fill="#D7C4AC"/>
<path d="M408.96 158.093C409.001 158.686 409.062 159.298 409.185 159.911C409.225 160.156 409.287 160.401 409.328 160.646C410.778 166.834 416.823 174.391 419.539 177.271C419.866 177.618 420.152 177.904 420.376 178.108C420.499 178.21 420.601 178.312 420.703 178.394C420.989 178.659 421.132 178.782 421.132 178.782C421.132 178.823 421.132 178.864 421.132 178.904C421.112 179.19 421.112 179.497 421.091 179.803C421.071 180.334 421.03 180.906 420.969 181.519C420.907 182.315 420.846 183.173 420.744 184.092L420.723 184.235C420.601 185.521 420.458 186.91 420.295 188.401C420.172 189.545 420.029 190.75 419.866 191.996C419.866 191.996 419.866 191.996 419.886 191.996C421.295 191.587 422.786 191.24 424.338 190.954C432.528 189.484 442.617 189.831 452.992 191.117C468.615 193.058 484.872 197.163 496.166 200.41C498.943 201.206 501.415 201.942 503.498 202.595V202.452C503.375 200.92 503.293 199.43 503.212 197.959C503.028 194.344 502.967 190.954 503.008 187.727C503.048 184.725 503.191 181.907 503.416 179.252C503.416 179.19 503.416 179.129 503.436 179.088C504.029 171.818 505.948 161.504 508.726 150.66C509.073 149.271 509.461 147.841 509.849 146.432C509.951 146.024 510.074 145.615 510.196 145.227C510.258 145.002 510.319 144.778 510.38 144.553C510.421 144.369 510.482 144.206 510.523 144.022C510.666 143.491 510.829 142.981 510.972 142.45C511.115 141.939 511.279 141.428 511.422 140.918C511.708 139.958 511.994 139.018 512.3 138.079C512.484 137.507 512.647 136.935 512.831 136.384C513.423 134.546 514.036 132.708 514.669 130.911C515.037 129.849 515.404 128.766 515.711 127.684C515.976 126.826 516.201 125.968 516.425 125.09C516.65 124.232 516.854 123.374 517.038 122.517C517.12 122.088 517.201 121.659 517.283 121.23C517.528 119.943 517.712 118.657 517.855 117.411C518.12 114.899 518.182 112.448 517.978 110.1C517.937 109.752 517.916 109.385 517.875 109.038C517.875 109.017 517.875 108.997 517.875 108.976C517.835 108.609 517.773 108.241 517.712 107.894C517.692 107.71 517.651 107.526 517.61 107.363L517.508 106.832C517.467 106.648 517.426 106.485 517.385 106.301V106.28C517.365 106.158 517.324 106.056 517.304 105.933C517.283 105.872 517.283 105.831 517.263 105.77C517.222 105.607 517.181 105.464 517.14 105.3C517.079 105.096 517.018 104.892 516.956 104.688C516.813 104.218 516.67 103.768 516.487 103.319C516.487 103.299 516.466 103.278 516.466 103.258C516.405 103.095 516.344 102.931 516.262 102.768C516.201 102.604 516.119 102.441 516.058 102.298C515.976 102.135 515.915 101.971 515.833 101.808C515.69 101.522 515.547 101.216 515.384 100.93C515.282 100.766 515.2 100.603 515.098 100.44C515.016 100.297 514.935 100.174 514.853 100.052C514.669 99.7656 514.485 99.4797 514.281 99.1937C514.179 99.0508 514.077 98.9282 513.975 98.7853C513.893 98.6832 513.811 98.5606 513.73 98.4585C513.709 98.4177 513.668 98.3768 513.627 98.336C513.546 98.2339 513.444 98.1113 513.362 98.0092C513.117 97.7233 512.851 97.4374 512.586 97.1514C512.484 97.0493 512.382 96.9472 512.28 96.8451C512.157 96.7226 512.034 96.6 511.891 96.4775C511.769 96.355 511.626 96.2528 511.503 96.1303C511.381 96.0078 511.238 95.9056 511.095 95.7831C511.013 95.7014 510.911 95.6401 510.809 95.5585C510.013 94.9458 509.155 94.3943 508.195 93.9042C508.072 93.8429 507.95 93.7817 507.827 93.7204C507.562 93.5979 507.296 93.4549 507.01 93.3324C506.888 93.2711 506.745 93.2098 506.622 93.169C506.051 92.9239 505.438 92.6992 504.805 92.495C504.764 92.4746 504.723 92.4746 504.682 92.4542C504.519 92.3929 504.335 92.3521 504.172 92.2908C503.927 92.2295 503.681 92.1478 503.436 92.0866C502.824 91.9232 502.211 91.7802 501.619 91.6168C501.006 91.4739 500.414 91.3105 499.842 91.1675C492.428 89.3703 486.199 88.2266 483.912 87.8182C483.749 87.7977 483.606 87.7569 483.483 87.7365C483.401 87.7161 483.34 87.7161 483.279 87.6956C483.259 87.6956 483.259 87.6956 483.238 87.6956C483.197 87.6752 483.156 87.6752 483.116 87.6752C483.095 87.6752 483.095 87.6752 483.095 87.6752C483.075 87.6752 483.034 87.6752 483.013 87.6548C482.993 87.6548 482.973 87.6548 482.973 87.6548L479.95 88.1041L451.991 92.3316L451.052 92.4746L449.336 92.7401L448.642 92.8422L445.374 93.3324C440.595 94.1901 436.694 95.0683 433.508 95.9873C430.71 96.8043 428.464 97.662 426.646 98.6219C425.278 99.3367 424.155 100.113 423.236 100.95C423.154 101.011 423.072 101.093 423.011 101.175C422.725 101.44 422.459 101.726 422.235 101.992C422.174 102.053 422.112 102.135 422.051 102.196C421.459 102.911 420.989 103.687 420.581 104.504C420.499 104.688 420.397 104.871 420.315 105.055C420.152 105.443 420.009 105.831 419.866 106.219C419.804 106.383 419.764 106.526 419.702 106.689C419.621 106.934 419.539 107.2 419.478 107.465C419.396 107.751 419.335 108.037 419.273 108.343C419.192 108.67 419.131 109.017 419.049 109.364C418.988 109.65 418.947 109.916 418.906 110.222C418.865 110.467 418.824 110.692 418.783 110.957C418.661 111.795 418.538 112.673 418.436 113.612C418.416 113.857 418.375 114.123 418.354 114.368C418.334 114.572 418.314 114.797 418.293 115.001C418.273 115.246 418.232 115.491 418.211 115.736C418.109 116.676 418.007 117.676 417.885 118.718C417.885 118.759 417.885 118.8 417.864 118.841C417.844 119.045 417.823 119.269 417.783 119.494C417.762 119.617 417.762 119.739 417.742 119.862C417.721 120.005 417.701 120.148 417.701 120.291C417.68 120.495 417.66 120.679 417.64 120.883C417.64 120.944 417.619 121.026 417.619 121.087C417.374 123.048 417.068 124.988 416.7 126.908C416.68 127.03 416.659 127.153 416.618 127.275C416.23 129.297 415.781 131.299 415.291 133.259C412.473 145.043 408.511 151.109 408.96 158.093Z" fill="white"/>
<path d="M502.536 96.4974C502.639 98.8869 504.64 100.745 507.03 100.643C509.419 100.541 511.277 98.5397 511.175 96.1502C511.175 96.0277 511.155 95.8848 511.135 95.7622C509.419 94.3735 507.336 93.2706 504.865 92.4741C503.435 93.2298 502.475 94.7615 502.536 96.4974Z" fill="#D7C4AC"/>
<path d="M487.547 98.8867C487.649 101.276 489.651 103.135 492.04 103.033C494.43 102.93 496.288 100.929 496.186 98.5395C496.084 96.15 494.082 94.2915 491.693 94.3937C489.324 94.4958 487.465 96.4972 487.547 98.8867Z" fill="#D7C4AC"/>
<path d="M472.495 100.827C472.597 103.217 474.599 105.075 476.988 104.973C479.378 104.871 481.236 102.869 481.134 100.48C481.032 98.0904 479.031 96.2319 476.641 96.334C474.252 96.4361 472.393 98.4376 472.495 100.827Z" fill="#D7C4AC"/>
<path d="M457.342 102.297C457.444 104.687 459.445 106.545 461.835 106.443C464.224 106.341 466.083 104.34 465.981 101.95C465.879 99.5607 463.877 97.7023 461.488 97.8044C459.098 97.8861 457.24 99.9079 457.342 102.297Z" fill="#D7C4AC"/>
<path d="M442.106 103.237C442.208 105.626 444.209 107.485 446.599 107.383C448.988 107.281 450.847 105.279 450.744 102.89C450.642 100.5 448.641 98.6417 446.251 98.7438C443.862 98.8255 442.003 100.847 442.106 103.237Z" fill="#D7C4AC"/>
<path d="M426.768 103.645C426.87 106.035 428.872 107.893 431.261 107.791C433.651 107.689 435.509 105.688 435.407 103.298C435.305 100.909 433.304 99.0503 430.914 99.1524C428.525 99.2545 426.666 101.256 426.768 103.645Z" fill="#D7C4AC"/>
<path d="M505.254 118.656C505.274 121.046 507.214 122.966 509.604 122.945C511.993 122.925 513.913 120.985 513.892 118.595C513.872 116.206 511.932 114.286 509.542 114.306C507.153 114.327 505.233 116.267 505.254 118.656Z" fill="#D7C4AC"/>
<path d="M490.427 120.392C490.447 122.782 492.388 124.702 494.777 124.681C497.166 124.661 499.086 122.721 499.066 120.331C499.045 117.942 497.105 116.022 494.716 116.042C492.326 116.063 490.406 118.003 490.427 120.392Z" fill="#D7C4AC"/>
<path d="M475.313 121.781C475.334 124.171 477.274 126.09 479.663 126.07C482.053 126.05 483.972 124.109 483.952 121.72C483.932 119.33 481.991 117.411 479.602 117.431C477.212 117.451 475.293 119.392 475.313 121.781Z" fill="#D7C4AC"/>
<path d="M459.936 122.802C459.956 125.192 461.896 127.112 464.286 127.091C466.675 127.071 468.595 125.13 468.574 122.741C468.554 120.352 466.614 118.432 464.224 118.452C461.855 118.473 459.936 120.413 459.936 122.802Z" fill="#D7C4AC"/>
<path d="M444.413 123.394C444.434 125.784 446.374 127.704 448.763 127.683C451.153 127.663 453.073 125.723 453.052 123.333C453.032 120.944 451.092 119.024 448.702 119.044C446.313 119.044 444.393 121.005 444.413 123.394Z" fill="#D7C4AC"/>
<path d="M428.77 123.497C428.79 125.886 430.731 127.806 433.12 127.785C435.51 127.765 437.429 125.825 437.409 123.435C437.389 121.046 435.448 119.126 433.059 119.146C430.69 119.146 428.77 121.107 428.77 123.497Z" fill="#D7C4AC"/>
<path d="M416.7 127.316C416.945 127.357 417.211 127.377 417.456 127.377C419.845 127.357 421.765 125.416 421.745 123.027C421.724 120.842 420.09 119.044 417.966 118.779C417.905 119.29 417.844 119.8 417.783 120.331C417.762 120.515 417.742 120.719 417.721 120.923C417.721 120.985 417.701 121.066 417.701 121.128C417.456 123.088 417.149 125.028 416.782 126.948C416.761 127.05 416.741 127.173 416.7 127.316Z" fill="#D7C4AC"/>
<path d="M510.379 144.532C510.42 144.348 510.481 144.185 510.522 144.001C510.665 143.47 510.828 142.96 510.971 142.429C511.564 140.386 512.176 138.364 512.83 136.363C512.667 136.343 512.503 136.322 512.34 136.322C509.95 136.261 507.969 138.14 507.908 140.529C507.888 142.265 508.909 143.817 510.379 144.532Z" fill="#D7C4AC"/>
<path d="M493.286 141.591C493.224 143.981 495.103 145.962 497.493 146.023C499.882 146.084 501.863 144.205 501.925 141.816C501.986 139.426 500.107 137.445 497.717 137.384C495.328 137.323 493.347 139.202 493.286 141.591Z" fill="#D7C4AC"/>
<path d="M478.111 142.449C478.05 144.839 479.929 146.82 482.318 146.881C484.708 146.942 486.689 145.063 486.75 142.674C486.811 140.284 484.933 138.303 482.543 138.242C480.154 138.16 478.173 140.06 478.111 142.449Z" fill="#D7C4AC"/>
<path d="M462.528 143C462.467 145.39 464.345 147.371 466.735 147.432C469.124 147.493 471.105 145.614 471.167 143.225C471.228 140.835 469.349 138.854 466.96 138.793C464.57 138.732 462.589 140.631 462.528 143Z" fill="#D7C4AC"/>
<path d="M446.701 143.225C446.639 145.615 448.518 147.596 450.908 147.657C453.297 147.718 455.278 145.839 455.34 143.45C455.401 141.06 453.522 139.079 451.132 139.018C448.743 138.957 446.762 140.836 446.701 143.225Z" fill="#D7C4AC"/>
<path d="M430.771 143.041C430.71 145.431 432.589 147.412 434.978 147.473C437.368 147.534 439.349 145.655 439.41 143.266C439.471 140.876 437.592 138.895 435.203 138.834C432.813 138.753 430.832 140.652 430.771 143.041Z" fill="#D7C4AC"/>
<path d="M414.861 142.367C414.8 144.757 416.679 146.738 419.068 146.799C421.458 146.86 423.439 144.981 423.5 142.592C423.561 140.202 421.683 138.221 419.293 138.16C416.904 138.078 414.923 139.978 414.861 142.367Z" fill="#D7C4AC"/>
<path d="M496.104 162.321C495.961 164.71 497.799 166.753 500.168 166.875C502.558 167.018 504.6 165.18 504.722 162.811C504.865 160.422 503.027 158.379 500.658 158.257C498.289 158.114 496.247 159.931 496.104 162.321Z" fill="#D7C4AC"/>
<path d="M480.868 162.627C480.725 165.016 482.563 167.059 484.932 167.181C487.322 167.324 489.364 165.486 489.487 163.117C489.63 160.728 487.792 158.685 485.422 158.563C483.053 158.42 481.011 160.237 480.868 162.627Z" fill="#D7C4AC"/>
<path d="M465.102 162.75C464.959 165.139 466.797 167.181 469.166 167.304C471.556 167.447 473.598 165.609 473.721 163.24C473.863 160.85 472.025 158.808 469.656 158.685C467.267 158.543 465.225 160.36 465.102 162.75Z" fill="#D7C4AC"/>
<path d="M448.967 162.607C448.824 164.996 450.662 167.038 453.031 167.161C455.421 167.304 457.463 165.466 457.586 163.097C457.729 160.707 455.891 158.665 453.522 158.543C451.153 158.4 449.11 160.217 448.967 162.607Z" fill="#D7C4AC"/>
<path d="M432.731 162.116C432.588 164.506 434.427 166.548 436.796 166.671C439.185 166.814 441.227 164.976 441.35 162.607C441.493 160.217 439.655 158.175 437.286 158.052C434.917 157.909 432.874 159.727 432.731 162.116Z" fill="#D7C4AC"/>
<path d="M416.577 161.177C416.434 163.567 418.272 165.609 420.641 165.731C423.031 165.874 425.073 164.036 425.196 161.667C425.339 159.278 423.501 157.235 421.131 157.113C418.762 156.97 416.72 158.788 416.577 161.177Z" fill="#D7C4AC"/>
<path d="M502.864 187.706C502.925 187.706 502.966 187.706 503.027 187.727C503.068 184.725 503.211 181.906 503.436 179.251C503.436 179.19 503.436 179.129 503.456 179.088C501.148 178.965 499.147 180.701 498.943 183.029C498.718 185.398 500.474 187.482 502.864 187.706Z" fill="#D7C4AC"/>
<path d="M483.646 182.764C483.442 185.153 485.198 187.257 487.567 187.461C489.936 187.666 492.06 185.909 492.265 183.54C492.469 181.151 490.712 179.047 488.343 178.843C485.954 178.639 483.85 180.395 483.646 182.764Z" fill="#D7C4AC"/>
<path d="M467.655 182.458C467.451 184.847 469.207 186.951 471.576 187.155C473.966 187.359 476.069 185.603 476.273 183.234C476.478 180.844 474.721 178.741 472.352 178.536C469.963 178.312 467.859 180.068 467.655 182.458Z" fill="#D7C4AC"/>
<path d="M451.235 181.947C451.031 184.337 452.787 186.44 455.156 186.644C457.546 186.849 459.649 185.092 459.853 182.723C460.058 180.334 458.301 178.23 455.932 178.026C453.563 177.801 451.46 179.558 451.235 181.947Z" fill="#D7C4AC"/>
<path d="M434.692 181.151C434.488 183.54 436.244 185.644 438.613 185.848C440.982 186.052 443.106 184.296 443.31 181.927C443.515 179.537 441.758 177.434 439.389 177.229C437 177.005 434.896 178.761 434.692 181.151Z" fill="#D7C4AC"/>
<path d="M420.764 184.091L420.743 184.234C421.192 184.459 421.703 184.602 422.234 184.643C424.623 184.847 426.727 183.091 426.931 180.722C427.136 178.332 425.379 176.229 423.01 176.024C421.683 175.902 420.437 176.412 419.559 177.291C419.885 177.638 420.171 177.924 420.396 178.128C420.866 178.577 421.152 178.802 421.152 178.802C421.152 178.843 421.152 178.884 421.152 178.924C421.131 179.21 421.131 179.517 421.111 179.823C421.029 181.028 420.906 182.458 420.764 184.091Z" fill="#D7C4AC"/>
<path d="M457.996 114.041C457.669 114.061 457.342 114.061 457.036 114.041C454.054 113.878 451.767 112.713 450.276 110.549C445.885 104.258 449.704 91.7595 449.867 91.2285C449.99 90.7996 450.439 90.5749 450.868 90.6975C451.297 90.82 451.521 91.2693 451.399 91.6982C451.358 91.8208 447.662 103.993 451.603 109.63C452.829 111.386 454.646 112.305 457.138 112.427C467.594 112.979 482.687 88.2467 482.83 88.0017C483.054 87.634 483.545 87.5115 483.933 87.7362C484.3 87.9608 484.423 88.451 484.198 88.839C483.545 89.8806 469.249 113.285 457.996 114.041Z" fill="#D5963D"/>
<path d="M471.535 180.191C471.412 180.456 471.147 180.62 470.861 180.64C470.718 180.64 470.595 180.62 470.453 180.558C470.31 180.497 456.871 174.064 441.248 178.23C433.324 180.334 426.462 180.64 421.09 179.823C421.111 179.496 421.131 179.21 421.131 178.925C421.131 178.884 421.131 178.843 421.131 178.802C421.131 178.802 420.845 178.557 420.375 178.128C425.645 179.088 432.609 178.884 440.839 176.698C457.055 172.389 470.595 178.863 471.147 179.149C471.555 179.313 471.719 179.803 471.535 180.191Z" fill="#D7C4AC"/>
<path d="M450.233 200.327C450.397 197.958 449.253 195.691 447.292 194.384C446.619 193.935 445.904 193.608 445.271 193.71C443.576 193.976 444.107 196.876 444.107 196.876C444.107 196.876 440.206 195.487 440.022 198.632C439.838 201.777 444.474 202.268 444.474 202.268C444.474 202.268 449.907 204.861 450.233 200.389C450.233 200.389 450.233 200.368 450.233 200.327Z" fill="#A36A24"/>
<path d="M482.808 201.022C482.971 198.653 481.828 196.386 479.867 195.079C479.193 194.629 478.478 194.303 477.845 194.405C476.15 194.67 476.681 197.57 476.681 197.57C476.681 197.57 472.78 196.181 472.597 199.327C472.413 202.472 477.049 202.962 477.049 202.962C477.049 202.962 482.481 205.556 482.808 201.083C482.808 201.083 482.808 201.042 482.808 201.022Z" fill="#A36A24"/>
<path d="M470.82 202.104C471.739 199.919 471.413 197.407 469.983 195.507C469.493 194.854 468.921 194.323 468.308 194.2C466.613 193.894 466.164 196.815 466.164 196.815C466.164 196.815 462.937 194.221 461.712 197.141C460.486 200.062 464.714 202.043 464.714 202.043C464.714 202.043 468.982 206.27 470.759 202.165C470.8 202.145 470.82 202.124 470.82 202.104Z" fill="#A36A24"/>
<path d="M458.832 201.757C459.751 199.572 459.424 197.059 457.995 195.16C457.504 194.507 456.933 193.976 456.32 193.853C454.625 193.547 454.176 196.467 454.176 196.467C454.176 196.467 450.949 193.874 449.723 196.794C448.498 199.714 452.726 201.695 452.726 201.695C452.726 201.695 456.994 205.923 458.771 201.818C458.812 201.818 458.832 201.777 458.832 201.757Z" fill="#A36A24"/>
<path d="M438.266 203.125C439.185 200.94 438.858 198.428 437.429 196.529C436.939 195.875 436.367 195.344 435.754 195.221C434.059 194.915 433.61 197.836 433.61 197.836C433.61 197.836 430.383 195.242 429.157 198.162C427.932 201.083 432.16 203.064 432.16 203.064C432.16 203.064 436.428 207.291 438.205 203.186C438.246 203.186 438.266 203.146 438.266 203.125Z" fill="#A36A24"/>
<path d="M469.676 196.835C471.208 195.038 473.598 194.18 475.926 194.609C476.722 194.752 477.458 195.017 477.846 195.528C478.867 196.896 476.477 198.612 476.477 198.612C476.477 198.612 480.256 200.327 478.193 202.717C476.13 205.106 472.454 202.227 472.454 202.227C472.454 202.227 466.756 200.307 469.615 196.876C469.636 196.876 469.656 196.855 469.676 196.835Z" fill="#D5963D"/>
<path d="M464.305 201.369C464.469 199 463.325 196.733 461.364 195.426C460.69 194.977 459.975 194.65 459.342 194.752C457.647 195.017 458.178 197.917 458.178 197.917C458.178 197.917 454.278 196.529 454.094 199.674C453.91 202.819 458.546 203.309 458.546 203.309C458.546 203.309 463.978 205.903 464.305 201.43C464.285 201.41 464.285 201.389 464.305 201.369Z" fill="#D5963D"/>
<path d="M444.761 200.327C444.925 197.958 443.781 195.691 441.82 194.384C441.146 193.935 440.432 193.608 439.798 193.71C438.103 193.976 438.634 196.876 438.634 196.876C438.634 196.876 434.734 195.487 434.55 198.632C434.366 201.777 439.002 202.268 439.002 202.268C439.002 202.268 444.434 204.861 444.761 200.389C444.761 200.389 444.761 200.368 444.761 200.327Z" fill="#D5963D"/>
<path d="M445.292 198.939C445.455 196.569 446.885 194.486 449.009 193.445C449.723 193.098 450.499 192.873 451.092 193.057C452.726 193.547 451.807 196.345 451.807 196.345C451.807 196.345 455.85 195.487 455.626 198.653C455.381 201.798 450.724 201.655 450.724 201.655C450.724 201.655 445.006 203.493 445.271 199.02C445.292 199 445.292 198.979 445.292 198.939Z" fill="#D5963D"/>
<path d="M475.559 203.023V261.331H477.601L483.605 201.9C483.176 199.817 481.563 198.285 479.643 198.285C478.52 198.285 477.499 198.816 476.764 199.674C476.028 200.511 475.559 201.716 475.559 203.023Z" fill="#A5410F"/>
<path d="M467.635 261.331H475.804V203.023C475.804 200.389 473.966 198.265 471.72 198.265C469.453 198.265 467.635 200.389 467.635 203.023V261.331Z" fill="#F1EADC"/>
<path d="M459.69 261.331H467.859V203.023C467.859 200.389 466.021 198.265 463.775 198.265C461.508 198.265 459.69 200.389 459.69 203.023V261.331Z" fill="#A5410F"/>
<path d="M451.767 261.331H459.936V203.023C459.936 200.389 458.098 198.265 455.852 198.265C453.585 198.265 451.767 200.389 451.767 203.023V261.331Z" fill="#F1EADC"/>
<path d="M443.822 261.331H451.991V203.023C451.991 200.389 450.153 198.265 447.907 198.265C445.64 198.265 443.822 200.389 443.822 203.023V261.331Z" fill="#A5410F"/>
<path d="M428.913 199.653C428.546 200.082 428.26 200.572 428.056 201.124L434.142 261.31H435.878V203.023C435.878 200.389 434.06 198.265 431.793 198.265C430.67 198.265 429.649 198.796 428.913 199.653Z" fill="#A5410F"/>
<path d="M427.729 202.982L427.933 201.532C427.79 201.981 427.729 202.472 427.729 202.982Z" fill="#A5410F"/>
<path d="M435.897 261.331H444.067V203.023C444.067 200.389 442.229 198.265 439.982 198.265C437.715 198.265 435.897 200.389 435.897 203.023V261.331Z" fill="#F1EADC"/>
<path d="M427.934 201.532C427.974 201.389 428.015 201.267 428.056 201.144L428.036 200.838L427.934 201.532Z" fill="#A5410F"/>
<path d="M535.173 267.254C535.173 267.254 541.852 262.801 546.508 266.845C551.164 270.889 549.96 277.179 556.025 281.223C562.091 285.267 583.964 297.623 582.146 311.592L561.294 293.783C561.294 293.783 541.464 279.405 535.173 267.254Z" fill="#F1EADC"/>
<path d="M506.99 288.31C506.99 288.31 509.032 288.759 512.361 289.576C513.3 289.8 514.362 290.066 515.486 290.331C516.997 290.699 518.651 291.128 520.408 291.577C521.408 291.843 522.45 292.108 523.532 292.394C536.868 295.927 554.493 301.196 561.499 305.975C561.989 306.323 562.458 306.649 562.928 306.976C573.589 314.696 575.611 321.109 577.674 319.883C579.838 318.617 580.492 313.144 577.183 309.406C574.876 306.813 573.344 303.116 570.26 299.052C569.423 297.949 568.483 296.826 567.401 295.703C562.561 290.699 554.698 285.43 550.348 281.427C550.062 281.162 549.796 280.916 549.551 280.671C545.977 277.138 544.793 270.092 538.135 267.744C534.888 266.6 530.925 266.865 527.086 267.723C526.412 267.887 525.718 268.05 525.064 268.234C524.063 268.52 523.083 268.826 522.144 269.153C520.836 269.623 519.591 270.092 518.467 270.582C517.385 271.052 516.384 271.501 515.547 271.91C513.484 272.89 512.218 273.646 512.218 273.646L506.99 288.31Z" fill="#B96F38"/>
<path d="M554.207 284.062C554.207 284.062 556.025 296.806 544.486 298.848C544.486 298.848 561.294 314.737 569.994 320.006C578.694 325.275 587.211 314.839 579.103 304.934C571.015 294.988 554.207 284.062 554.207 284.062Z" fill="#F1EADC"/>
<path d="M581.431 309.733C581.512 309.733 581.574 309.713 581.655 309.692C582.003 309.57 582.186 309.202 582.064 308.855C581.9 308.406 578.02 297.541 555.228 284.429C554.922 284.245 554.493 284.348 554.309 284.674C554.125 285.001 554.227 285.41 554.554 285.593C576.815 298.399 580.736 309.182 580.777 309.284C580.9 309.549 581.145 309.733 581.431 309.733Z" fill="#C2AC96"/>
<path d="M410.818 338.325C410.818 338.325 402.792 338.774 401.505 344.82C400.219 350.844 404.957 355.133 402.527 362.036C400.096 368.919 390.048 391.935 399.892 402.004L405.855 375.229C405.876 375.209 413.106 351.804 410.818 338.325Z" fill="#F1EADC"/>
<path d="M446.007 338.244C446.007 338.244 444.639 339.837 442.474 342.492C441.861 343.247 441.167 344.085 440.432 344.983C439.451 346.188 438.369 347.516 437.246 348.945C436.592 349.762 435.918 350.599 435.244 351.478C426.707 362.302 415.781 377.108 413.065 385.135C412.881 385.707 412.697 386.258 412.534 386.789C408.653 399.369 410.88 405.701 408.51 405.966C406.019 406.252 402.2 402.27 402.608 397.286C402.894 393.835 401.893 389.934 401.914 384.849C401.914 383.48 401.996 382.01 402.2 380.437C403.078 373.534 406.182 364.589 407.265 358.789C407.326 358.421 407.387 358.054 407.448 357.707C408.184 352.744 404.916 346.392 408.817 340.511C410.716 337.631 414.045 335.487 417.64 333.873C418.273 333.587 418.926 333.322 419.58 333.077C420.54 332.709 421.52 332.362 422.48 332.055C423.807 331.647 425.073 331.279 426.278 330.993C427.422 330.708 428.484 330.483 429.424 330.299C431.67 329.85 433.141 329.686 433.141 329.686L446.007 338.244Z" fill="#B96F38"/>
<path d="M405.691 363.201C405.691 363.201 412.002 374.556 422.458 369.246C422.458 369.246 418.455 391.976 414.657 401.412C410.858 410.847 397.808 407.62 398.318 394.815C398.829 382.03 405.691 363.201 405.691 363.201Z" fill="#F1EADC"/>
<path d="M399.136 399.839C399.34 399.676 399.442 399.41 399.381 399.145C397.298 390.281 406.141 364.916 406.223 364.651C406.345 364.303 406.161 363.915 405.814 363.793C405.467 363.67 405.079 363.854 404.956 364.201C404.589 365.263 395.909 390.2 398.074 399.451C398.155 399.819 398.523 400.023 398.87 399.941C398.993 399.921 399.075 399.88 399.136 399.839Z" fill="#C2AC96"/>
<path d="M347.895 225.958C361.681 244.032 393.398 263.107 427.626 274.728C439.513 278.772 449.724 281.835 458.445 284.184C464.224 285.736 469.351 286.961 473.864 287.942C474.722 288.126 475.559 288.309 476.376 288.473C496.125 292.496 503.477 291.352 503.477 291.352C503.477 291.352 515.874 287.84 511.299 267.743C511.299 267.743 488.242 261.596 470.535 252.079C467.472 250.425 464.572 248.689 461.978 246.83C461.508 246.504 461.059 246.177 460.63 245.85C459.956 245.339 459.262 244.809 458.588 244.278C442.27 231.431 428.545 214.297 391.355 197.938C391.355 197.938 372.035 185.276 356.003 190.095C353.614 190.81 351.326 191.893 349.243 193.424C337.459 202.043 338.582 213.766 347.895 225.958Z" fill="#2D4446"/>
<path d="M502.844 260.8C502.701 260.718 502.558 260.677 502.375 260.677C501.905 260.698 501.537 261.086 501.558 261.576C502.048 273.932 493.041 289.657 492.96 289.821C492.715 290.229 492.857 290.76 493.266 290.985C493.674 291.23 494.205 291.087 494.43 290.679C494.818 290.025 503.763 274.381 503.273 261.515C503.253 261.188 503.089 260.943 502.844 260.8Z" fill="#131E07"/>
<path d="M458.445 284.184C464.225 285.736 469.351 286.962 473.865 287.942C488.385 284.164 508.359 276.035 508.359 276.035L507.746 269.275L458.445 284.184Z" fill="#131E07"/>
<path d="M347.895 225.958C360.312 210.416 358.413 196.978 356.024 190.075C353.634 190.79 351.347 191.872 349.284 193.384C337.459 202.043 338.582 213.766 347.895 225.958Z" fill="#131E07"/>
<path d="M356.963 189.83C356.963 189.83 349.346 186.277 347.651 190.157C345.955 194.037 350.836 202.778 352.756 205.74C354.676 208.68 355.432 200.552 354.247 197.06C353.553 194.997 353.328 191.627 353.328 191.627L356.963 189.83Z" fill="#B96F38"/>
<path d="M348.488 198.449C348.488 198.449 341.402 196.427 339.38 201.042C337.358 205.658 343.158 216.033 345.445 219.525C347.733 223.017 348.917 213.255 347.222 209.232C345.527 205.209 346.752 203.187 346.752 203.187L348.488 198.449Z" fill="#B96F38"/>
<path d="M344.281 203.452C344.281 203.452 338.011 201.676 336.234 205.74C334.458 209.804 339.563 218.974 341.585 222.058C343.607 225.142 344.649 216.523 343.158 212.97C341.667 209.416 342.729 207.619 342.729 207.619L344.281 203.452Z" fill="#B96F38"/>
<path d="M352.409 191.28C352.409 191.28 345.322 189.259 343.3 193.874C341.278 198.49 347.078 208.865 349.366 212.357C351.653 215.849 352.838 206.087 351.142 202.064C349.447 198.04 350.673 196.019 350.673 196.019L352.409 191.28Z" fill="#B96F38"/>
<path d="M509.135 273.585C497.126 270.807 472.598 259.779 443.537 244.135C421.807 232.432 396.707 217.442 393.01 212.193C391.009 209.355 390.498 207.047 391.479 205.29C392.949 202.676 397.238 202.37 399.178 202.37C399.689 202.37 400.077 202.799 400.056 203.289C400.036 203.738 399.648 204.106 399.198 204.106C397.279 204.106 393.929 204.473 392.99 206.148C392.214 207.537 393.337 209.661 394.44 211.193C397.422 215.42 418.416 228.634 444.374 242.603C466.717 254.632 495.574 268.663 509.544 271.89L509.135 273.585Z" fill="#131E07"/>
<path d="M506.827 265.089C505.561 275.688 502.885 285.328 496.983 292.741C496.983 292.741 502.129 296.377 506.786 293.701C510.34 291.659 517.099 275.076 514.404 266.273C511.381 264.66 508.808 264.108 506.827 265.089Z" fill="#131E07"/>
<path d="M422.582 328.665C428.341 348.455 440.901 345.514 440.901 345.514C440.901 345.514 458.505 339.02 499.168 294.15C522.613 268.275 540.626 237.456 544.772 215.134C547.815 198.734 543.383 186.93 528.148 185.01C524.635 184.561 521.204 185.051 517.936 186.134C502.864 191.137 491.223 209.028 491.223 209.028C465.633 242.725 477.009 243.91 458.015 276.525C447.109 295.172 422.582 328.665 422.582 328.665Z" fill="#2D4446"/>
<path d="M468.513 251.324C465.511 262.617 460.344 273.135 453.237 282.428C452.706 283.142 453.89 283.816 454.421 283.122C461.59 273.748 466.798 263.087 469.82 251.691C470.065 250.813 468.738 250.445 468.513 251.324Z" fill="#131E07"/>
<path d="M428.424 318.474L428.444 318.515C428.608 318.76 430.221 321.231 432.855 324.458C433.203 324.907 433.57 325.357 433.958 325.806C438.043 330.626 443.986 336.589 450.48 339.551C450.766 339.673 451.052 339.653 451.297 339.489C451.42 339.408 451.542 339.285 451.604 339.122C451.808 338.693 451.624 338.182 451.195 337.978C444.966 335.119 439.105 329.196 435.122 324.458C434.734 323.988 434.346 323.539 433.999 323.09V323.069C431.467 319.924 429.935 317.596 429.894 317.535C429.649 317.126 429.118 317.024 428.71 317.29C428.322 317.596 428.219 318.107 428.424 318.474Z" fill="#131E07"/>
<path d="M517.916 186.113C520.509 192.465 530.067 213.276 544.772 215.114C547.815 198.714 543.383 186.91 528.147 184.99C524.614 184.541 521.183 185.031 517.916 186.113Z" fill="#131E07"/>
<path d="M432.875 324.478C433.223 324.928 433.59 325.377 433.978 325.826C434.346 325.397 434.734 324.948 435.122 324.499C444.374 313.675 456.872 296.193 470.372 275.116C483.688 254.326 498.331 229.042 499.025 222.67C499.393 219.239 498.719 216.931 497.003 215.89C494.451 214.297 490.55 216.114 488.855 217.074C488.405 217.319 488.262 217.871 488.548 218.3C488.793 218.688 489.304 218.81 489.692 218.586C491.387 217.646 494.471 216.339 496.105 217.34C497.473 218.177 497.514 220.587 497.31 222.466C496.758 227.613 484.811 249.363 468.922 274.177C458.179 290.944 444.537 310.734 434.019 323.11V323.131C433.611 323.6 433.223 324.029 432.875 324.478Z" fill="#131E07"/>
<path d="M425.237 324.172C431.486 332.811 438.491 339.939 447.273 343.553C447.273 343.553 444.536 349.231 439.165 349.149C435.06 349.088 421.111 337.876 419.191 328.869C421.029 326.01 423.031 324.295 425.237 324.172Z" fill="#131E07"/>
<path d="M491.388 117.635L495.922 125.477L500.435 133.361C503.437 138.63 506.399 143.899 509.339 149.168C512.26 154.437 515.16 159.727 517.958 164.996C519.347 167.63 520.735 170.265 522.043 172.859L523.023 174.799L523.513 175.759L523.983 176.718L524.452 177.678L524.881 178.618L525.31 179.557L525.698 180.435C525.984 181.048 526.188 181.559 526.413 182.09L526.495 182.274L526.556 182.437L526.679 182.743L526.801 183.029C526.74 182.845 526.699 182.662 526.638 182.478C526.576 182.274 526.536 182.008 526.495 181.783L526.433 181.375C526.413 181.232 526.393 181.089 526.393 180.946C526.393 180.803 526.372 180.619 526.352 180.456C526.352 180.292 526.331 180.109 526.352 179.945C526.352 179.578 526.372 179.169 526.413 178.781C526.454 178.352 526.536 177.923 526.638 177.495C526.74 177.045 526.883 176.596 527.026 176.147C527.189 175.697 527.373 175.268 527.577 174.86C527.679 174.656 527.802 174.452 527.904 174.247C528.006 174.063 528.129 173.88 528.251 173.696C528.374 173.512 528.517 173.328 528.619 173.165C528.741 173.002 528.864 172.859 528.986 172.695C530.007 171.49 530.927 170.878 531.56 170.489C532.213 170.101 532.622 169.958 532.887 169.856C533.03 169.816 533.112 169.775 533.193 169.775C533.234 169.754 533.316 169.754 533.316 169.754C533.377 169.754 533.316 169.775 533.255 169.795C533.091 169.836 532.744 169.897 532.315 169.918C531.458 169.999 530.334 170.02 529.129 169.999C526.699 169.938 523.983 169.713 521.226 169.407C518.448 169.08 515.609 168.692 512.75 168.223C507.032 167.303 501.211 166.18 495.411 164.934C492.511 164.322 489.59 163.668 486.69 162.994L482.34 161.973L480.176 161.442L478.072 160.911L477.888 160.87C471.128 159.175 464.266 163.301 462.591 170.061C460.937 176.678 464.858 183.376 471.373 185.255L473.701 185.929L475.968 186.562L480.502 187.788C483.525 188.605 486.547 189.381 489.59 190.136C495.677 191.648 501.803 193.057 508.094 194.303C511.239 194.915 514.425 195.487 517.692 195.977C520.981 196.467 524.33 196.876 528.006 197.101C529.844 197.203 531.784 197.264 533.97 197.162C535.072 197.101 536.257 197.019 537.584 196.815C538.258 196.713 538.973 196.59 539.749 196.406C540.137 196.324 540.566 196.202 540.975 196.079C541.424 195.936 541.873 195.814 542.363 195.63C543.344 195.262 544.446 194.813 545.754 194.037C546.101 193.833 546.407 193.629 546.754 193.384C546.938 193.261 547.122 193.118 547.285 192.996C547.469 192.853 547.632 192.75 547.816 192.587C548 192.424 548.184 192.281 548.368 192.117C548.551 191.954 548.735 191.791 548.919 191.607C549.103 191.423 549.307 191.219 549.491 191.035L549.777 190.729L550.063 190.402C550.247 190.177 550.43 189.953 550.614 189.707C550.798 189.483 550.982 189.197 551.145 188.952C551.329 188.686 551.492 188.421 551.656 188.155C551.819 187.869 551.983 187.583 552.125 187.298C552.432 186.726 552.677 186.093 552.922 185.48C553.147 184.847 553.33 184.234 553.473 183.601C553.616 182.988 553.718 182.355 553.78 181.743C553.841 181.171 553.882 180.558 553.882 180.007C553.882 179.741 553.882 179.476 553.861 179.21C553.841 178.945 553.841 178.659 553.8 178.434C553.78 178.189 553.759 177.944 553.718 177.719C553.678 177.474 553.657 177.229 553.616 177.025C553.535 176.616 553.453 176.167 553.351 175.779C553.249 175.411 553.147 175.044 553.045 174.676L552.779 173.88L552.514 173.104L552.391 172.716L552.268 172.368C551.942 171.49 551.595 170.571 551.268 169.795L550.778 168.57L550.287 167.406L549.797 166.241L549.307 165.118L548.817 163.995L548.306 162.892L547.306 160.707C545.958 157.807 544.589 154.988 543.221 152.191C540.464 146.595 537.666 141.08 534.848 135.587C532.029 130.113 529.17 124.66 526.29 119.228L521.961 111.1L517.57 102.951C513.628 95.6598 504.52 92.9232 497.229 96.8648C489.938 100.806 487.201 109.915 491.143 117.206C491.204 117.329 491.265 117.431 491.347 117.553L491.388 117.635Z" fill="#B96F38"/>
<path d="M467.33 160.891C467.33 160.891 452.38 167.099 451.237 172.287C450.093 177.474 450.379 179.721 450.379 179.721L467.33 160.891Z" fill="#6B2D18"/>
<path d="M478.889 161.524C474.274 158.644 468.33 159.093 464.021 162.381C459.896 165.527 453.994 170.469 450.154 175.554C444.15 183.519 442.332 195.222 445.048 196.426C447.765 197.631 447.908 186.092 451.951 183.213C451.951 183.213 445.007 197.774 447.377 200.348C449.95 203.125 451.788 189.973 455.852 186.276C455.852 186.276 449.929 200.389 451.972 201.185C455.117 202.41 455.668 193.853 459.957 190.504C459.957 190.504 455.137 199.837 457.343 201.43C459.528 203.023 464.123 188.87 469.964 186.358C475.826 183.846 481.074 182.498 483.239 177.127C484.832 173.185 485.302 165.547 478.889 161.524Z" fill="#B96F38"/>
<path d="M536.319 172.838C536.503 172.818 536.686 172.716 536.788 172.532C536.931 172.246 536.829 171.899 536.543 171.735C529.538 168.08 520.981 168.202 520.613 168.202C520.287 168.202 520.021 168.468 520.042 168.794C520.042 169.121 520.307 169.387 520.634 169.366C520.716 169.366 529.252 169.244 535.992 172.756C536.094 172.838 536.196 172.859 536.319 172.838Z" fill="#6B2D18"/>
<path d="M522.799 169.183C522.962 169.162 523.105 169.081 523.207 168.938C525.086 166.364 529.028 165.466 529.068 165.466C529.395 165.404 529.579 165.078 529.518 164.771C529.456 164.445 529.13 164.261 528.823 164.322C528.64 164.363 524.412 165.323 522.268 168.243C522.084 168.509 522.125 168.876 522.39 169.06C522.513 169.142 522.656 169.183 522.799 169.183Z" fill="#6B2D18"/>
<path d="M437.716 50.5661C437.716 50.5661 434.775 51.0358 434.469 54.8345C434.163 58.6536 436.491 64.8213 440.249 63.7797C444.006 62.7586 437.716 50.5661 437.716 50.5661Z" fill="#6B2D18"/>
<path d="M439.534 70.2948C436.675 70.6215 434.081 68.5588 433.754 65.6996C433.427 62.8404 435.49 60.2467 438.349 59.9199C441.209 59.5931 443.802 61.6559 444.129 64.5151C444.456 67.3743 442.393 69.968 439.534 70.2948ZM438.513 61.4312C436.491 61.6559 435.041 63.4939 435.266 65.5158C435.49 67.5377 437.328 68.9877 439.35 68.763C441.372 68.5384 442.822 66.7003 442.597 64.6784C442.373 62.6566 440.535 61.2066 438.513 61.4312Z" fill="#ECB46B"/>
<path d="M482.176 87.4908C482.176 87.4908 477.682 97.5797 466.736 99.9284C452.828 102.931 450.806 96.9875 450.806 96.9875C451.276 95.0473 451.5 93.1275 451.521 91.0852C451.521 90.3092 451.521 89.5331 451.459 88.7162C451.337 86.4901 451.01 84.0597 450.54 81.2822C450.438 80.6287 450.295 79.9547 450.173 79.2604L450.152 79.1787C459.71 76.1969 467.369 71.3363 472.332 63.7798L473.72 62.7995L474.66 62.1459L474.885 62.6974L474.823 64.515C474.537 73.0926 476.927 79.9956 482.176 87.4908Z" fill="#B96F38"/>
<path d="M466.124 71.7244C464.388 76.5033 460.202 85.0401 451.481 88.7367C451.358 86.5106 451.032 84.0802 450.562 81.3027C450.46 80.6492 450.317 79.9752 450.194 79.2808C450.378 79.2808 450.582 79.3013 450.787 79.3013C456.097 79.2604 461.652 76.1153 466.124 71.7244Z" fill="#131E07"/>
<path d="M485.526 47.3189C486.22 52.5676 482.646 59.5931 475.804 60.6959H475.764L475.621 60.7164C475.559 61.0227 475.457 61.3495 475.376 61.6762C475.335 61.8192 475.294 61.9622 475.253 62.0847C475.253 62.1051 475.253 62.1051 475.233 62.1255C472.149 71.6018 460.14 78.5456 453.298 79.6484C450.848 80.0364 449.132 79.7097 448.581 79.6688C441.086 79.0561 438.41 69.3961 438.553 61.7171C438.574 60.5938 438.655 59.5318 438.798 58.5311C438.798 58.4698 438.819 58.3881 438.819 58.3269C438.819 58.3269 434.979 48.1358 433.795 43.6224C431.507 34.8813 435.408 25.16 454.687 20.7895C473.966 16.419 480.257 27.8967 482.483 34.1461C482.85 35.1877 483.484 41.6005 482.565 42.7646C484.525 43.4385 485.301 45.5625 485.526 47.3189Z" fill="#B96F38"/>
<path d="M474.62 56.6725C474.906 56.5908 475.11 56.3457 475.131 56.0393C475.417 50.9745 481.033 48.054 481.074 48.0336C481.421 47.8498 481.564 47.4209 481.38 47.0737C481.196 46.7265 480.768 46.5835 480.42 46.7673C480.155 46.8899 474.028 50.0759 473.701 55.9781C473.681 56.3661 473.987 56.7133 474.375 56.7337C474.457 56.7133 474.539 56.7133 474.62 56.6725Z" fill="#6B2D18"/>
<path d="M480.399 53.0986C480.481 53.0782 480.563 53.0374 480.644 52.9761C480.951 52.731 480.992 52.2817 480.746 51.9754C480.685 51.8937 479.051 49.9331 476.192 50.4232C475.804 50.4845 475.539 50.8521 475.62 51.2401C475.682 51.6282 476.049 51.8937 476.437 51.812C478.48 51.4648 479.623 52.8331 479.644 52.8536C479.827 53.0986 480.134 53.1803 480.399 53.0986Z" fill="#6B2D18"/>
<g opacity="0.5">
<g opacity="0.5">
<g opacity="0.5">
<g opacity="0.5">
<g opacity="0.5">
<g opacity="0.5">
<g opacity="0.5">
<g opacity="0.5">
<g opacity="0.5">
<g opacity="0.5">
<path opacity="0.5" d="M442.352 59.6748C442.434 60.4509 440.82 61.3086 438.553 61.7171C438.574 60.5938 438.655 59.5319 438.798 58.5311C440.779 58.5311 442.27 58.96 442.352 59.6748Z" fill="#6B2D18"/>
</g>
</g>
</g>
</g>
</g>
</g>
</g>
</g>
</g>
</g>
<g opacity="0.5">
<g opacity="0.5">
<g opacity="0.5">
<g opacity="0.5">
<g opacity="0.5">
<g opacity="0.5">
<g opacity="0.5">
<g opacity="0.5">
<g opacity="0.5">
<g opacity="0.5">
<path opacity="0.5" d="M454.484 58.1635C454.586 59.0622 456.893 59.5319 459.63 59.2051C462.367 58.8988 464.511 57.9185 464.409 57.0199C464.307 56.1213 461.999 55.6515 459.262 55.9783C456.505 56.3051 454.381 57.2854 454.484 58.1635Z" fill="#6B2D18"/>
</g>
</g>
</g>
</g>
</g>
</g>
</g>
</g>
</g>
</g>
<path d="M475.804 60.6958H475.764L475.621 60.7163C475.559 61.0226 475.457 61.3494 475.376 61.6761C475.335 61.8191 475.294 61.9621 475.253 62.0846C475.253 62.105 475.253 62.105 475.233 62.1255C474.436 62.105 473.415 61.9416 472.435 61.4311C471.863 61.1247 471.311 60.6958 470.842 60.1036C470.597 59.7972 470.637 59.3479 470.964 59.1029C471.271 58.8578 471.72 58.8986 471.965 59.205C472.496 59.8789 473.19 60.2465 473.844 60.4508C474.293 60.5937 474.742 60.655 475.13 60.6754C475.376 60.6958 475.621 60.6958 475.804 60.6958Z" fill="#6B2D18"/>
<path d="M474.048 60.7572C474.559 60.8389 475.131 60.8389 475.58 60.798C475.58 60.8184 475.58 60.8593 475.58 60.8797C475.805 62.9016 477.643 64.3516 479.665 64.127C481.687 63.9023 483.137 62.0642 482.912 60.0424C482.708 58.2247 481.196 56.8564 479.399 56.7747C478.889 56.305 478.807 55.7944 479.215 55.243C481.83 55.243 484.096 57.2036 484.423 59.8586C484.75 62.7178 482.687 65.3115 479.828 65.6383C476.969 65.965 474.375 63.9023 474.048 61.0431C474.069 60.941 474.048 60.8593 474.048 60.7572Z" fill="#ECB46B"/>
<path d="M454.442 62.0031C454.442 62.0031 454.83 68.1912 449.704 69.1102C444.578 70.0293 443.434 65.0256 443.434 65.0256L454.442 62.0031Z" fill="white"/>
<path d="M451.011 71.2953C451.992 70.9686 452.441 70.2129 452.482 70.1516C452.604 69.927 452.543 69.6411 452.318 69.5185C452.094 69.396 451.808 69.4573 451.685 69.6819C451.665 69.7228 451.052 70.6826 449.704 70.458C449.439 70.4171 449.214 70.5805 449.173 70.846C449.132 71.0911 449.296 71.3362 449.561 71.377C450.113 71.4996 450.603 71.4383 451.011 71.2953Z" fill="#6B2D18"/>
<path d="M451.338 53.65C451.644 53.6092 451.909 53.3845 451.971 53.0578C452.093 52.343 452.624 50.8113 453.4 50.5866C454.544 50.2598 455.933 51.138 455.953 51.1584C456.28 51.3831 456.729 51.281 456.954 50.9542C457.179 50.6274 457.076 50.1781 456.75 49.9535C456.668 49.8922 454.789 48.6873 453.012 49.1978C451.154 49.7288 450.602 52.4859 450.541 52.8127C450.48 53.2007 450.725 53.5888 451.133 53.65C451.195 53.65 451.256 53.65 451.338 53.65Z" fill="#131E07"/>
<path d="M443.781 54.9979C443.843 54.9979 443.924 54.9775 443.986 54.9366C444.353 54.7733 444.517 54.3444 444.374 53.9768C444.272 53.7317 443.332 51.669 441.719 51.5873C440.228 51.5056 439.023 52.731 438.9 52.8739C438.614 53.1598 438.635 53.6296 438.921 53.8951C439.207 54.1606 439.676 54.1606 439.942 53.8746C440.187 53.6296 440.943 52.9965 441.657 53.0373C442.188 53.0577 442.822 54.038 443.046 54.5486C443.148 54.8754 443.455 55.0388 443.781 54.9979Z" fill="#131E07"/>
<path d="M475.518 23.8737C470.739 20.0954 464.449 17.3996 457.485 18.7475C447.723 20.6264 439.084 25.2828 434.775 31.2872C432.691 34.1668 431.609 37.3528 431.875 40.7022C432.712 50.9953 434.632 48.708 434.632 48.708C434.632 48.708 434.55 48.4833 434.55 46.2572C434.55 44.9297 434.611 42.867 434.734 39.7014C435.04 32.1654 458.363 28.1829 457.485 33.1457C457.485 33.1457 457.485 33.7584 457.689 34.657C457.893 35.6169 458.302 36.9443 459.139 38.2106C459.323 38.2106 459.507 38.231 459.691 38.231C462.1 38.3535 464.122 38.762 465.817 39.3542C466.042 39.4768 469.922 41.5803 469.922 45.379C469.922 49.2798 469.167 54.4876 471.658 53.201C474.15 51.8939 474.599 48.6671 474.599 48.6671C475.763 46.7678 477.234 44.8276 479.685 43.6431C479.685 36.8014 479.011 29.8984 475.518 23.8737Z" fill="#131E07"/>
<path d="M477.479 28.0601C470.147 26.5896 459.548 33.2884 457.709 34.6771C457.914 35.637 458.322 36.9645 459.16 38.2307C459.343 38.2307 459.527 38.2511 459.711 38.2511C462.121 38.3737 464.143 38.7821 465.838 39.3744C466.062 39.4969 469.943 41.6005 469.943 45.3992C469.943 49.2999 470.004 71.3976 472.741 71.9898C479.909 73.5624 475.661 48.5035 475.661 48.5035C476.825 46.6041 477.254 44.8273 479.705 43.6428C481.645 37.8835 480.011 32.8186 477.479 28.0601Z" fill="#131E07"/>
<path d="M475.844 27.8559C475.844 27.8559 480.909 33.4109 479.725 43.6632C479.725 43.6632 483.013 42.3561 484.688 42.7237C486.383 43.0914 487.261 36.9849 484.933 31.7771C482.584 26.5692 474.027 20.9733 474.027 20.9733C474.027 20.9733 474.149 26.2833 475.844 27.8559Z" fill="#131E07"/>
<path d="M447.253 61.5333C447.151 61.5538 447.028 61.5333 446.926 61.4925L444.046 60.2875C443.842 60.2058 443.72 60.022 443.679 59.8178C443.658 59.6136 443.74 59.3889 443.904 59.2664C445.844 57.7347 446.865 55.6515 447.11 52.7106C447.13 52.3839 447.416 52.1388 447.763 52.1592C448.09 52.1796 448.335 52.486 448.315 52.8127C448.07 55.7332 447.151 57.8981 445.415 59.5727L447.416 60.4101C447.723 60.5326 447.866 60.8798 447.743 61.1861C447.641 61.37 447.457 61.4925 447.253 61.5333Z" fill="#6B2D18"/>
<path d="M448.233 54.1604C447.498 50.2801 450.071 46.5427 453.931 45.8075C457.812 45.0722 461.549 47.6455 462.284 51.5055C463.02 55.3858 460.446 59.1232 456.586 59.8584C452.706 60.5937 448.969 58.0408 448.233 54.1604ZM449.336 53.9562C449.949 57.2239 453.114 59.3683 456.382 58.7556C459.65 58.1429 461.794 54.9774 461.182 51.7097C460.569 48.442 457.403 46.2976 454.136 46.9103C450.888 47.523 448.724 50.6885 449.336 53.9562Z" fill="white"/>
<path d="M431.568 57.3057C430.833 53.4253 433.406 49.6879 437.266 48.9527C441.146 48.2174 444.884 50.7907 445.619 54.6507C446.354 58.531 443.781 62.2684 439.921 63.0037C436.061 63.7389 432.303 61.1656 431.568 57.3057ZM432.671 57.081C433.283 60.3487 436.449 62.5135 439.717 61.8804C442.984 61.2677 445.129 58.1021 444.516 54.8345C443.903 51.5668 440.738 49.4224 437.47 50.0351C434.223 50.6682 432.058 53.8338 432.671 57.081Z" fill="white"/>
<path d="M476.295 47.4414L476.764 46.5428C476.458 46.3794 468.35 42.4582 459.916 47.5639L460.508 48.5238C468.411 43.7244 476.233 47.4005 476.295 47.4414Z" fill="white"/>
<path d="M448.478 54.0176L448.968 53.0168C448.069 52.5675 445.986 52.1591 444.557 53.8542L445.414 54.569C446.619 53.1598 448.396 53.9972 448.478 54.0176Z" fill="white"/>
<path d="M450.787 43.745C449.255 44.2147 448.193 42.2133 449.439 41.2126C450.092 40.702 451.011 40.3344 452.277 40.3752C457.771 40.559 460.487 44.9704 460.487 44.9704C460.487 44.9704 455.177 43.1528 452.38 43.4182C451.746 43.4795 451.215 43.6021 450.787 43.745Z" fill="#131E07"/>
<path d="M442.453 45.4401C444.046 45.3584 444.393 43.1119 442.861 42.6013C442.065 42.3359 441.085 42.295 439.9 42.7647C434.794 44.7866 435.101 48.6261 435.101 48.6261C435.101 48.6261 438.103 46.3387 440.819 45.6648C441.473 45.5218 442.004 45.4606 442.453 45.4401Z" fill="#131E07"/>
<path d="M570.059 431.413C615.154 431.413 651.71 425.78 651.71 418.832C651.71 411.884 615.154 406.252 570.059 406.252C524.965 406.252 488.408 411.884 488.408 418.832C488.408 425.78 524.965 431.413 570.059 431.413Z" fill="#C2AC96"/>
<path d="M508.014 406.313C508.218 407.171 508.443 408.008 508.708 408.825C510.505 414.319 513.793 418.71 518.266 420.528C535.217 427.41 551.127 425.021 583.558 424.265C615.969 423.509 640.028 414.932 637.025 388.239C636.78 386.135 636.372 384.175 635.821 382.337C635.106 379.927 634.125 377.742 632.982 375.761C631.634 373.432 630.02 371.39 628.264 369.613C619.176 360.382 605.472 357.36 593.198 361.567C581.087 365.713 559.663 367.734 537.382 368.184C513.426 368.674 504.481 391.037 508.014 406.313Z" fill="#D5963D"/>
<path d="M508.013 406.313C508.217 407.171 508.442 408.008 508.708 408.825C514.446 413.829 525.271 416.995 540.955 418.24C545.877 418.628 551.31 418.833 557.13 418.833C570.61 418.833 586.335 417.791 603.511 415.728C618.032 413.992 627.855 408.866 632.716 400.513C636.33 394.305 636.514 387.524 635.82 382.337C635.105 379.927 634.125 377.742 632.981 375.761C634.247 379.621 637.004 390.588 631.613 399.86C626.956 407.845 617.46 412.747 603.368 414.442C552.433 420.569 517.755 417.607 508.013 406.313Z" fill="#A36A24"/>
<path d="M604.88 373.289C614.826 374.086 622.198 383.174 620.565 393.038C620.524 393.222 620.503 393.426 620.462 393.61C618.318 404.353 603.879 404.026 563.789 404.393C532.378 404.679 516.244 393.447 524.597 379.58C531.214 368.551 583.681 371.594 604.88 373.289Z" fill="#A36A24"/>
<path d="M529.131 381.418C543.734 399.614 603.348 400.636 611.17 387.014C614.989 380.376 613.927 371.88 611.844 364.916C611.619 364.181 611.395 363.466 611.15 362.772C609.005 356.502 606.309 351.906 606.309 351.906C606.309 351.906 606.554 358.381 584.579 356.052C582.067 355.787 579.208 355.664 576.145 355.705C575.573 355.705 575.001 355.726 574.409 355.746C550.698 356.461 516.51 365.692 529.131 381.418Z" fill="#131E07"/>
<path d="M577.022 370.573C580.453 374.413 586.437 375.863 594.3 374.76C594.484 374.739 594.647 374.719 594.831 374.678C604.736 373.146 609.576 368.449 611.843 364.896C611.619 364.16 611.394 363.446 611.149 362.751C609.454 365.998 605.022 371.554 594.055 373.085C586.784 374.106 581.311 372.84 578.268 369.45C575.511 366.387 574.796 361.648 576.144 355.705C575.572 355.705 575 355.726 574.408 355.746C573.06 362.057 573.959 367.163 577.022 370.573Z" fill="#D5963D"/>
<path d="M537.381 368.184C537.381 368.184 523.392 367.142 521.717 360.096C520.063 353.03 552.147 359.218 555.701 344.677C559.234 330.136 545.04 318.535 540.445 322.783C534.992 327.828 546.939 329.972 547.593 337.447C548.124 343.656 544.264 349.394 532.317 350.232C520.369 351.09 515.018 352.948 515.08 358.503C515.141 364.548 524.821 370.777 530.703 371.165C536.585 371.574 537.381 368.184 537.381 368.184Z" fill="#131E07"/>
<path d="M598.793 346.556C598.793 346.556 602.939 341.164 609.699 337.57C610.68 337.039 611.844 337.835 611.742 338.938L610.455 351.314C610.455 351.314 600.754 352.131 598.793 346.556Z" fill="#131E07"/>
<path d="M608.085 349.803C608.637 347.005 608.78 344.044 609.413 340.735C609.413 340.735 602.122 345.085 601.672 347.475C601.672 347.475 605.696 350.538 608.085 349.803Z" fill="#425045"/>
<path d="M586.111 347.046C586.111 347.046 580.413 343.615 572.938 342.675C571.712 342.512 570.814 343.819 571.365 344.922L576.471 355.113C576.491 355.092 586.315 352.968 586.111 347.046Z" fill="#131E07"/>
<path d="M578.636 353.459C577.104 351.049 575.899 348.353 574.102 345.494C574.102 345.494 582.475 346.882 583.762 348.966C583.762 348.966 581.107 353.275 578.636 353.459Z" fill="#425045"/>
<path d="M604.205 346.76C604.205 346.76 612.844 348.087 612.191 358.197C611.537 368.327 601.693 369.409 601.693 369.409C601.693 369.409 599.937 372.656 593.851 373.984C589.95 374.821 584.15 374.556 582.68 371.696C582.68 371.696 574.225 368.592 574.306 361.056C574.408 352.703 584.497 342.43 604.205 346.76Z" fill="#131E07"/>
<path d="M612.987 370.696C612.987 370.696 609.453 385.074 606.513 388.035C603.551 390.996 600.345 392.63 596.24 393.12C589.582 393.917 590.828 398.349 592.809 399.88C595.096 401.637 599.181 400.636 605.287 400.636C610.556 400.636 615.54 399.574 617.316 396.122C619.093 392.651 618.971 382.378 617.092 376.619C615.907 373.045 614.253 371.186 612.987 370.696Z" fill="#131E07"/>
<path d="M568.342 371.656C568.342 371.656 571.875 386.033 574.816 388.995C577.778 391.956 581.005 393.447 585.089 394.08C590.093 394.876 589.643 399.615 588.52 400.84C586.58 403.005 582.148 401.596 576.042 401.596C570.773 401.596 564.523 399.492 562.746 396.02C560.97 392.548 562.358 383.337 564.237 377.558C565.422 374.004 567.056 372.146 568.342 371.656Z" fill="#131E07"/>
<path d="M538.832 368.776C538.832 368.776 529.539 366.55 526.537 373.555C521.82 384.583 525.598 390.874 538.158 392.63C550.718 394.386 564.994 396.755 554.21 387.831C543.386 378.885 538.832 368.776 538.832 368.776Z" fill="#131E07"/>
<path d="M588.868 363.119C588.868 363.119 592.625 362.71 593.626 363.18C595.301 363.956 592.605 367.081 590.889 367.346C589.174 367.612 587.499 365.61 587.52 364.283C587.54 362.976 588.868 363.119 588.868 363.119Z" fill="#425045"/>
<path d="M586.948 360.239C587.132 360.137 587.336 360.362 587.193 360.525C586.437 361.424 585.069 362.588 583.211 362.2C581.679 361.873 581.087 360.791 580.882 359.851C580.842 359.647 581.127 359.524 581.23 359.708C581.618 360.403 582.394 361.117 583.905 361.219C585.008 361.281 586.172 360.709 586.948 360.239Z" fill="#425045"/>
<path d="M601.489 359.463C601.652 359.32 601.877 359.504 601.775 359.688C601.203 360.709 600.059 362.098 598.16 362.057C596.587 362.016 595.811 361.077 595.444 360.178C595.362 359.974 595.627 359.81 595.75 359.974C596.261 360.586 597.159 361.138 598.65 360.954C599.794 360.831 600.815 360.076 601.489 359.463Z" fill="#425045"/>
<path d="M203.323 425C289.519 425 359.395 421.187 359.395 416.484C359.395 411.78 289.519 407.967 203.323 407.967C117.126 407.967 47.2505 411.78 47.2505 416.484C47.2505 421.187 117.126 425 203.323 425Z" fill="#C2AC96"/>
<path d="M135.865 320.823H321.346C330.047 320.823 337.092 313.777 337.092 305.077V204.412C337.092 195.712 330.047 188.666 321.346 188.666H135.865C127.165 188.666 120.119 195.712 120.119 204.412V305.077C120.099 313.777 127.165 320.823 135.865 320.823Z" fill="#323E33"/>
<path d="M128.778 320.823H314.259C322.959 320.823 330.005 313.777 330.005 305.077V204.412C330.005 195.712 322.959 188.666 314.259 188.666H128.778C120.078 188.666 113.032 195.712 113.032 204.412V305.077C113.032 313.777 120.078 320.823 128.778 320.823Z" fill="#131E07"/>
<path d="M136.661 300.379H306.498C310.685 300.379 314.075 296.989 314.075 292.802V212.806C314.075 208.619 310.685 205.229 306.498 205.229H136.661C132.474 205.229 129.084 208.619 129.084 212.806V292.802C129.084 296.989 132.474 300.379 136.661 300.379Z" fill="#323E33"/>
<path d="M247.558 333.669L235.917 274.013H214.677L203.016 333.669H247.558Z" fill="#131E07"/>
<path d="M243.188 333.669L231.547 274.013H210.307L198.666 333.669H243.188Z" fill="#323E33"/>
<path d="M273.373 341.185H178.958V339.346C178.958 335.037 182.45 331.545 186.76 331.545H265.551C269.86 331.545 273.353 335.037 273.353 339.346V341.185H273.373Z" fill="#131E07"/>
<path d="M268.798 341.185H174.383V339.346C174.383 335.037 177.875 331.545 182.184 331.545H260.976C265.285 331.545 268.778 335.037 268.778 339.346V341.185H268.798Z" fill="#323E33"/>
<path d="M137.784 223.957H304.619C305.906 223.957 306.947 222.915 306.947 221.628V220.934C306.947 219.647 305.906 218.606 304.619 218.606H137.784C136.498 218.606 135.456 219.647 135.456 220.934V221.628C135.456 222.915 136.498 223.957 137.784 223.957Z" fill="#131E07"/>
<path d="M281.015 243.048H306.952V241.128H281.015V243.048Z" fill="#131E07"/>
<path d="M249.072 243.048H275.009V241.128H249.072V243.048Z" fill="#131E07"/>
<path d="M306.946 247.504H281.009V249.424H306.946V247.504Z" fill="#131E07"/>
<path d="M275.005 247.504H249.068V249.424H275.005V247.504Z" fill="#131E07"/>
<path d="M306.946 253.897H281.009V255.816H306.946V253.897Z" fill="#131E07"/>
<path d="M275.005 253.897H249.068V255.816H275.005V253.897Z" fill="#131E07"/>
<path d="M306.946 260.289H281.009V262.209H306.946V260.289Z" fill="#131E07"/>
<path d="M275.005 260.289H249.068V262.209H275.005V260.289Z" fill="#131E07"/>
<path d="M306.946 266.661H281.009V268.581H306.946V266.661Z" fill="#131E07"/>
<path d="M275.005 266.661H249.068V268.581H275.005V266.661Z" fill="#131E07"/>
<path d="M281.015 274.991H306.952V273.072H281.015V274.991Z" fill="#131E07"/>
<path d="M249.072 274.991H275.009V273.072H249.072V274.991Z" fill="#131E07"/>
<path d="M167.39 243.048H193.327V241.128H167.39V243.048Z" fill="#131E07"/>
<path d="M135.447 243.048H161.384V241.128H135.447V243.048Z" fill="#131E07"/>
<path d="M193.335 247.504H167.398V249.424H193.335V247.504Z" fill="#131E07"/>
<path d="M161.393 247.504H135.456V249.424H161.393V247.504Z" fill="#131E07"/>
<path d="M193.335 253.897H167.398V255.816H193.335V253.897Z" fill="#131E07"/>
<path d="M161.393 253.897H135.456V255.816H161.393V253.897Z" fill="#131E07"/>
<path d="M193.335 260.289H167.398V262.209H193.335V260.289Z" fill="#131E07"/>
<path d="M161.393 260.289H135.456V262.209H161.393V260.289Z" fill="#131E07"/>
<path d="M193.335 266.661H167.398V268.581H193.335V266.661Z" fill="#131E07"/>
<path d="M161.393 266.661H135.456V268.581H161.393V266.661Z" fill="#131E07"/>
<path d="M167.39 274.991H193.327V273.071H167.39V274.991Z" fill="#131E07"/>
<path d="M135.447 274.991H161.384V273.072H135.447V274.991Z" fill="#131E07"/>
<path d="M138.152 289.78H191.905C193.396 289.78 194.601 288.575 194.601 287.063V286.267C194.601 284.776 193.396 283.551 191.885 283.551H138.152C136.661 283.551 135.436 284.755 135.436 286.267V287.063C135.456 288.575 136.661 289.78 138.152 289.78Z" fill="#131E07"/>
<path d="M251.785 289.78H305.538C307.029 289.78 308.255 288.575 308.255 287.063V286.267C308.255 284.776 307.05 283.551 305.538 283.551H251.785C250.294 283.551 249.069 284.755 249.069 286.267V287.063C249.069 288.575 250.274 289.78 251.785 289.78Z" fill="#131E07"/>
<path d="M321.02 344.452L310.849 378.231C309.95 381.193 307.234 383.215 304.15 383.215H131.577C128.493 383.215 125.776 381.193 124.878 378.231L114.728 344.452C114.237 342.838 115.463 341.184 117.158 341.184H318.589C320.284 341.184 321.51 342.818 321.02 344.452Z" fill="#A5410F"/>
<path d="M314.443 367.571H121.303C121.18 367.571 121.058 367.489 120.996 367.366L120.18 365.263C120.098 365.058 120.261 364.834 120.486 364.834H315.055C315.259 364.834 315.423 365.038 315.362 365.242L314.769 367.346C314.708 367.489 314.585 367.571 314.443 367.571Z" fill="#731F07"/>
<path d="M292.958 395.53H140.215V399.002H292.958V395.53Z" fill="#A5410F"/>
<path d="M147.587 383.214L126.429 418.587H135.64L161.924 383.214H147.587Z" fill="#731F07"/>
<path d="M286.239 383.214L307.397 418.587H298.186L271.902 383.214H286.239Z" fill="#731F07"/>
<path d="M357.78 61.186C373.266 61.186 385.821 48.6318 385.821 33.1454C385.821 17.6589 373.266 5.10468 357.78 5.10468C342.293 5.10468 329.739 17.6589 329.739 33.1454C329.739 48.6318 342.293 61.186 357.78 61.186Z" fill="#C2AC96"/>
<path d="M357.78 57.5303C373.266 57.5303 385.821 44.976 385.821 29.4896C385.821 14.0032 373.266 1.44891 357.78 1.44891C342.293 1.44891 329.739 14.0032 329.739 29.4896C329.739 44.976 342.293 57.5303 357.78 57.5303Z" fill="#A5410F"/>
<path d="M357.779 52.9556C371.013 52.9556 381.756 42.1927 381.756 28.9791C381.756 15.745 370.993 4.98212 357.779 4.98212C344.545 4.98212 333.803 15.745 333.803 28.9791C333.782 42.1927 344.545 52.9556 357.779 52.9556Z" fill="white"/>
<path d="M333.783 28.9586C333.783 29.5917 333.804 30.2248 333.865 30.858C334.845 18.5225 345.2 8.76034 357.78 8.76034C370.361 8.76034 380.715 18.5021 381.695 30.858C381.736 30.2248 381.777 29.5917 381.777 28.9586C381.777 15.7246 371.014 4.96167 357.78 4.96167C344.546 4.98209 333.783 15.745 333.783 28.9586Z" fill="#C2AC96"/>
<path d="M357.78 31.8588C357.964 31.8588 358.127 31.7771 358.229 31.6341L369.421 16.5824C369.605 16.3374 369.564 15.9698 369.299 15.7859C369.053 15.6021 368.686 15.643 368.502 15.9085L357.596 30.5926L345.199 25.1397C344.914 25.0171 344.566 25.1397 344.444 25.4256C344.321 25.7115 344.444 26.0587 344.73 26.1812L357.555 31.7975C357.617 31.8384 357.698 31.8588 357.78 31.8588Z" fill="#131E07"/>
</svg>
