<svg width="17" height="13" viewBox="0 0 17 13" fill="none" xmlns="http://www.w3.org/2000/svg">
<path d="M16.7427 0.248436C16.664 0.169674 16.5706 0.107197 16.4677 0.0645685C16.3648 0.0219403 16.2546 0 16.1432 0C16.0318 0 15.9216 0.0219403 15.8187 0.0645685C15.7158 0.107197 15.6224 0.169674 15.5437 0.248436L5.38606 10.4085L1.47832 6.50332C1.40138 6.41762 1.30777 6.34849 1.20322 6.30017C1.09867 6.25185 0.985369 6.22534 0.870233 6.22227C0.755097 6.21919 0.640542 6.23961 0.53356 6.28228C0.426579 6.32495 0.329415 6.38898 0.248001 6.47045C0.166587 6.55192 0.10263 6.64912 0.0600352 6.75613C0.0174402 6.86315 -0.00289962 6.97772 0.000257491 7.09285C0.0034146 7.20798 0.0300024 7.32127 0.0783977 7.42579C0.126793 7.5303 0.195981 7.62385 0.281737 7.70074L4.78358 12.2076C4.94267 12.3665 5.1583 12.4557 5.38313 12.4557C5.60795 12.4557 5.82359 12.3665 5.98268 12.2076L16.7427 1.44837C16.8216 1.36963 16.8842 1.27612 16.9269 1.17317C16.9696 1.07022 16.9916 0.95986 16.9916 0.848405C16.9916 0.736951 16.9696 0.626591 16.9269 0.523641C16.8842 0.420691 16.8216 0.32717 16.7427 0.248436Z" fill="#FF733B"/>
</svg>
