<svg width="100" height="100" viewBox="0 0 100 100" fill="none" xmlns="http://www.w3.org/2000/svg">
<mask id="mask0_90_3270" style="mask-type:alpha" maskUnits="userSpaceOnUse" x="0" y="0" width="100" height="100">
<circle cx="50" cy="50" r="50" fill="#C4C4C4"/>
</mask>
<g mask="url(#mask0_90_3270)">
<circle cx="50" cy="50" r="50" fill="#E3F8FA"/>
<path d="M90.1473 96.8132C90.2137 83.9817 83.0872 73.458 73.8678 71.1502C65.687 69.1001 58.7792 74.2468 57.3695 75.348V63.4575H44.7098V75.348C43.1674 74.2468 35.6075 69.1001 26.6535 71.1502C16.5632 73.4619 8.76515 83.9856 8.83544 96.8132C23.3383 96.7312 76.898 96.7312 90.1473 96.8132Z" fill="#B99EF4" stroke="#B99EF4" stroke-width="1.0123" stroke-miterlimit="10"/>
<path opacity="0.25" d="M57.3344 69.033V63.4568H44.7372V72.563C45.7446 72.3951 56.9087 69.1658 57.3344 69.033Z" fill="#2B292D" stroke="#2B292D" stroke-width="1.287" stroke-miterlimit="10"/>
<path d="M29.0511 83.6257L27.8875 96.8243" stroke="#2B292D" stroke-width="1.2071" stroke-miterlimit="10"/>
<path d="M71.8021 83.7158L72.6182 96.8129" stroke="#2B292D" stroke-width="1.2868" stroke-miterlimit="10"/>
<path d="M57.3734 75.3434C58.7831 74.2422 63.1995 69.8609 72.7978 70.6692C82.9154 71.5204 88.6556 81.1578 91.1938 89.7759L72.6182 96.7657C57.7405 96.7461 40.7541 96.75 26.4231 96.7696L8.83544 88.6005C9.42117 84.6566 16.5632 73.4573 26.6535 71.1456C35.6075 69.0955 43.1674 74.2422 44.7098 75.3434L50.6062 81.1226L57.3734 75.3434Z" fill="#55CBB8" stroke="#55CBB8" stroke-width="1.0123" stroke-miterlimit="10"/>
<path d="M44.5029 73.5316L51.52 80.8572L48.029 86.7809L39.5163 76.8429L44.5068 72.3289L44.5029 73.5316Z" fill="black"/>
<path d="M57.6038 73.5315L50.5906 80.8571L54.0777 86.7808L62.5943 76.8429L57.596 72.1218L57.6038 73.5315Z" fill="black"/>
<path d="M28.1218 82.7822L26.8683 97" stroke="#2B292D" stroke-width="1.3004" stroke-miterlimit="10"/>
<path d="M72.7158 83.7078L73.5397 96.9454" stroke="#2B292D" stroke-width="1.3004" stroke-miterlimit="10"/>
<path d="M9.36651 86.7808L27.0479 94.985" stroke="black" stroke-width="1.0123" stroke-miterlimit="10"/>
<path d="M73.3914 94.5554L90.4558 87.5071" stroke="black" stroke-width="1.0123" stroke-miterlimit="10"/>
<path d="M50.9577 85.8357C51.1647 85.8357 51.3325 85.6678 51.3325 85.4608C51.3325 85.2538 51.1647 85.0859 50.9577 85.0859C50.7506 85.0859 50.5828 85.2538 50.5828 85.4608C50.5828 85.6678 50.7506 85.8357 50.9577 85.8357Z" fill="white" stroke="white" stroke-width="1.0123" stroke-miterlimit="10"/>
<path d="M50.9577 90.5998C51.1647 90.5998 51.3325 90.432 51.3325 90.225C51.3325 90.0179 51.1647 89.8501 50.9577 89.8501C50.7506 89.8501 50.5828 90.0179 50.5828 90.225C50.5828 90.432 50.7506 90.5998 50.9577 90.5998Z" fill="white" stroke="white" stroke-width="1.0123" stroke-miterlimit="10"/>
<path d="M50.9577 92.4704C50.0049 92.4704 49.2317 91.6972 49.2317 90.7444V83.3173C49.2317 82.3645 50.0049 81.5913 50.9577 81.5913C51.9105 81.5913 52.6836 82.3645 52.6836 83.3173V90.7444C52.6836 91.6972 51.9105 92.4704 50.9577 92.4704Z" stroke="black" stroke-width="1.0123" stroke-miterlimit="10"/>
<path d="M67.3388 43.8034C75.4326 43.8034 81.9939 40.917 81.9939 37.3564C81.9939 33.7958 75.4326 30.9094 67.3388 30.9094C59.245 30.9094 52.6836 33.7958 52.6836 37.3564C52.6836 40.917 59.245 43.8034 67.3388 43.8034Z" fill="black" stroke="black" stroke-width="1.104" stroke-miterlimit="10"/>
<path d="M70.1932 43.7528C70.2518 44.1081 69.5216 44.5533 69.5489 44.9047C69.5763 45.264 70.3651 45.592 70.3611 45.9434C70.3572 46.3027 69.5528 46.6073 69.5177 46.9587C69.4786 47.3141 70.1932 47.7827 70.1229 48.1302C70.0527 48.4777 69.2092 48.6339 69.1077 48.9736C69.0061 49.3134 69.627 49.9069 69.4943 50.2349C69.3654 50.5629 68.5063 50.5708 68.3462 50.891C68.19 51.2073 68.7016 51.8945 68.5219 52.1991C68.3423 52.5037 67.491 52.3748 67.288 52.6677C67.0849 52.9567 67.491 53.7103 67.2685 53.9875C67.0459 54.2609 66.2219 54.0188 65.9798 54.2804C65.7416 54.5381 66.0462 55.3386 65.7846 55.5847C65.5308 55.8268 64.742 55.4831 64.4686 55.7135C64.1992 55.94 64.4062 56.7717 64.1211 56.9865C63.84 57.1974 63.098 56.7678 62.8012 56.967C62.5084 57.1622 62.6255 58.0135 62.3209 58.197C62.0164 58.3767 61.3252 57.8729 61.0089 58.0408C60.6965 58.2048 60.7277 59.0639 60.4036 59.2162C60.0834 59.3646 59.443 58.7945 59.115 58.9312C58.787 59.0639 58.7362 59.923 58.4004 60.0402C58.0685 60.1573 57.4867 59.5286 57.143 59.6301C56.8033 59.7317 56.6705 60.579 56.323 60.6649C55.9794 60.7508 55.46 60.0675 55.1125 60.1378C54.765 60.2081 54.5502 61.0398 54.1987 61.0906C53.8473 61.1452 53.3982 60.4111 53.0429 60.4502C52.6914 60.4853 52.3947 61.2897 52.0393 61.3092C51.684 61.3288 51.3091 60.5556 50.9538 60.5556C50.5984 60.5556 50.2235 61.3288 49.8721 61.3092C49.5168 61.2897 49.2239 60.4853 48.8685 60.4502C48.5132 60.415 48.0641 61.1452 47.7166 61.0906C47.3652 61.0359 47.1504 60.2081 46.8029 60.1378C46.4553 60.0675 45.936 60.7508 45.5923 60.6649C45.2487 60.579 45.112 59.7317 44.7762 59.6301C44.4365 59.5286 43.8546 60.1573 43.5227 60.0402C43.1869 59.9191 43.1361 59.0639 42.8081 58.9312C42.4801 58.7945 41.8397 59.3685 41.5195 59.2162C41.1954 59.0639 41.2305 58.2088 40.9182 58.0408C40.6019 57.8729 39.9107 58.3767 39.6061 58.197C39.3015 58.0135 39.4187 57.1661 39.1258 56.967C38.829 56.7678 38.0871 57.1974 37.8059 56.9865C37.5209 56.7717 37.7318 55.94 37.4623 55.7135C37.189 55.4831 36.4041 55.8268 36.1503 55.5808C35.8925 55.3347 36.201 54.5342 35.9589 54.2765C35.7168 54.0149 34.8929 54.257 34.6703 53.9836C34.4477 53.7064 34.8538 52.9527 34.6508 52.6638C34.4477 52.3709 33.5965 52.4998 33.4168 52.1952C33.2333 51.8906 33.7487 51.2034 33.5926 50.8871C33.4364 50.5669 32.5773 50.5629 32.4445 50.2349C32.3117 49.903 32.9326 49.3134 32.8311 48.9736C32.7296 48.6339 31.8861 48.4816 31.8119 48.1341C31.7416 47.7866 32.4523 47.3141 32.4133 46.9587C32.3742 46.6073 31.5698 46.3066 31.562 45.9513C31.5542 45.5998 32.343 45.264 32.3664 44.9086C32.3898 44.5572 31.6557 44.1159 31.7143 43.7645C31.769 43.417 32.6007 43.2139 32.6632 42.8781C32.7296 42.5345 32.0384 42.0307 32.1165 41.6988C32.1946 41.3591 33.0381 41.2146 33.1279 40.8827C33.2216 40.543 32.5695 39.9924 32.6749 39.6644C32.7803 39.3324 33.6316 39.2543 33.7487 38.9341C33.8698 38.6061 33.2684 37.997 33.4012 37.6807C33.5379 37.3566 34.3892 37.3605 34.5375 37.0481C34.6859 36.7318 34.1471 36.0679 34.3111 35.7673C34.4751 35.4588 35.3263 35.5486 35.506 35.2557C35.6895 34.9589 35.2209 34.2404 35.4161 33.9593C35.6153 33.6703 36.447 33.8539 36.6579 33.5805C36.8727 33.3072 36.49 32.5418 36.7165 32.2841C36.9469 32.0224 37.7513 32.3036 37.9973 32.0576C38.2433 31.8116 37.9582 31.0072 38.216 30.7768C38.4737 30.5464 39.239 30.9252 39.5124 30.7104C39.7857 30.4956 39.6061 29.6639 39.8912 29.4686C40.1762 29.2734 40.8869 29.7459 41.1876 29.5702C41.4844 29.3944 41.4102 28.5432 41.7187 28.387C42.0271 28.2308 42.6715 28.7892 42.9917 28.6486C43.308 28.5119 43.3392 27.6568 43.6672 27.5396C43.9913 27.4225 44.5653 28.0512 44.9012 27.9496C45.2292 27.852 45.358 27.0046 45.6978 26.9226C46.0297 26.8406 46.5334 27.5318 46.877 27.4693C47.2129 27.4069 47.4315 26.579 47.7791 26.5322C48.1188 26.4853 48.5483 27.2233 48.8998 27.1921C49.2395 27.1608 49.5363 26.3603 49.8877 26.3447C50.2314 26.3291 50.5945 27.1023 50.9421 27.1023C51.2896 27.1023 51.6527 26.3291 51.9964 26.3447C52.3439 26.3603 52.6368 27.1647 52.9765 27.196C53.324 27.2272 53.7575 26.4931 54.0972 26.5439C54.4408 26.5946 54.6517 27.4225 54.9875 27.4889C55.3312 27.5552 55.8388 26.8719 56.1707 26.9578C56.5065 27.0437 56.6237 27.8911 56.9517 27.9926C57.2836 28.098 57.8655 27.4732 58.1857 27.5982C58.5098 27.7231 58.5293 28.5744 58.8417 28.7189C59.158 28.8634 59.8101 28.3128 60.1147 28.4729C60.4193 28.633 60.3333 29.4843 60.6301 29.6639C60.9269 29.8435 61.6415 29.3788 61.9226 29.5741C62.2077 29.7732 62.0164 30.605 62.2858 30.8197C62.5552 31.0345 63.3245 30.6596 63.5783 30.89C63.8361 31.1204 63.5471 31.9248 63.7892 32.1708C64.0313 32.4168 64.8357 32.1357 65.0661 32.3934C65.2926 32.6511 64.9138 33.4165 65.1286 33.6898C65.3394 33.9593 66.1712 33.7718 66.3703 34.0569C66.5656 34.3381 66.1048 35.0566 66.2883 35.3494C66.468 35.6423 67.3192 35.5408 67.4871 35.8454C67.655 36.146 67.1201 36.8138 67.2763 37.1262C67.4286 37.4347 68.2798 37.419 68.4204 37.7353C68.5571 38.0477 67.9635 38.6647 68.0885 38.9888C68.2095 39.309 69.0608 39.3715 69.1741 39.6995C69.2834 40.0236 68.6391 40.5859 68.7367 40.9217C68.8304 41.2497 69.6739 41.3825 69.7598 41.7183C69.8418 42.0503 69.1545 42.5618 69.2287 42.9015C69.3029 43.2139 70.1347 43.4092 70.1932 43.7528Z" fill="#6565F2"/>
<path d="M70.1932 43.7528C70.2518 44.1081 69.5216 44.5533 69.5489 44.9047C69.5763 45.264 70.3651 45.592 70.3611 45.9434C70.3572 46.3027 69.5528 46.6073 69.5177 46.9587C69.4786 47.3141 70.1932 47.7827 70.1229 48.1302C70.0527 48.4777 69.2092 48.6339 69.1077 48.9736C69.0061 49.3134 69.627 49.9069 69.4943 50.2349C69.3654 50.5629 68.5063 50.5708 68.3462 50.891C68.19 51.2073 68.7016 51.8945 68.5219 52.1991C68.3423 52.5037 67.491 52.3748 67.288 52.6677C67.0849 52.9567 67.491 53.7103 67.2685 53.9875C67.0459 54.2609 66.2219 54.0188 65.9798 54.2804C65.7416 54.5381 66.0462 55.3386 65.7846 55.5847C65.5308 55.8268 64.742 55.4831 64.4686 55.7135C64.1992 55.94 64.4062 56.7717 64.1211 56.9865C63.84 57.1974 63.098 56.7678 62.8012 56.967C62.5084 57.1622 62.6255 58.0135 62.3209 58.197C62.0164 58.3767 61.3252 57.8729 61.0089 58.0408C60.6965 58.2048 60.7277 59.0639 60.4036 59.2162C60.0834 59.3646 59.443 58.7945 59.115 58.9312C58.787 59.0639 58.7362 59.923 58.4004 60.0402C58.0685 60.1573 57.4867 59.5286 57.143 59.6301C56.8033 59.7317 56.6705 60.579 56.323 60.6649C55.9794 60.7508 55.46 60.0675 55.1125 60.1378C54.765 60.2081 54.5502 61.0398 54.1987 61.0906C53.8473 61.1452 53.3982 60.4111 53.0429 60.4502C52.6914 60.4853 52.3947 61.2897 52.0393 61.3092C51.684 61.3288 51.3091 60.5556 50.9538 60.5556C50.5984 60.5556 50.2235 61.3288 49.8721 61.3092C49.5168 61.2897 49.2239 60.4853 48.8685 60.4502C48.5132 60.415 48.0641 61.1452 47.7166 61.0906C47.3652 61.0359 47.1504 60.2081 46.8029 60.1378C46.4553 60.0675 45.936 60.7508 45.5923 60.6649C45.2487 60.579 45.112 59.7317 44.7762 59.6301C44.4365 59.5286 43.8546 60.1573 43.5227 60.0402C43.1869 59.9191 43.1361 59.0639 42.8081 58.9312C42.4801 58.7945 41.8397 59.3685 41.5195 59.2162C41.1954 59.0639 41.2305 58.2088 40.9182 58.0408C40.6019 57.8729 39.9107 58.3767 39.6061 58.197C39.3015 58.0135 39.4187 57.1661 39.1258 56.967C38.829 56.7678 38.0871 57.1974 37.8059 56.9865C37.5209 56.7717 37.7318 55.94 37.4623 55.7135C37.189 55.4831 36.4041 55.8268 36.1503 55.5808C35.8925 55.3347 36.201 54.5342 35.9589 54.2765C35.7168 54.0149 34.8929 54.257 34.6703 53.9836C34.4477 53.7064 34.8538 52.9527 34.6508 52.6638C34.4477 52.3709 33.5965 52.4998 33.4168 52.1952C33.2333 51.8906 33.7487 51.2034 33.5926 50.8871C33.4364 50.5669 32.5773 50.5629 32.4445 50.2349C32.3117 49.903 32.9326 49.3134 32.8311 48.9736C32.7296 48.6339 31.8861 48.4816 31.8119 48.1341C31.7416 47.7866 32.4523 47.3141 32.4133 46.9587C32.3742 46.6073 31.5698 46.3066 31.562 45.9513C31.5542 45.5998 32.343 45.264 32.3664 44.9086C32.3898 44.5572 31.6557 44.1159 31.7143 43.7645C31.769 43.417 32.6007 43.2139 32.6632 42.8781C32.7296 42.5345 32.0384 42.0307 32.1165 41.6988C32.1946 41.3591 33.0381 41.2146 33.1279 40.8827C33.2216 40.543 32.5695 39.9924 32.6749 39.6644C32.7803 39.3324 33.6316 39.2543 33.7487 38.9341C33.8698 38.6061 33.2684 37.997 33.4012 37.6807C33.5379 37.3566 34.3892 37.3605 34.5375 37.0481C34.6859 36.7318 34.1471 36.0679 34.3111 35.7673C34.4751 35.4588 35.3263 35.5486 35.506 35.2557C35.6895 34.9589 35.2209 34.2404 35.4161 33.9593C35.6153 33.6703 36.447 33.8539 36.6579 33.5805C36.8727 33.3072 36.49 32.5418 36.7165 32.2841C36.9469 32.0224 37.7513 32.3036 37.9973 32.0576C38.2433 31.8116 37.9582 31.0072 38.216 30.7768C38.4737 30.5464 39.239 30.9252 39.5124 30.7104C39.7857 30.4956 39.6061 29.6639 39.8912 29.4686C40.1762 29.2734 40.8869 29.7459 41.1876 29.5702C41.4844 29.3944 41.4102 28.5432 41.7187 28.387C42.0271 28.2308 42.6715 28.7892 42.9917 28.6486C43.308 28.5119 43.3392 27.6568 43.6672 27.5396C43.9913 27.4225 44.5653 28.0512 44.9012 27.9496C45.2292 27.852 45.358 27.0046 45.6978 26.9226C46.0297 26.8406 46.5334 27.5318 46.877 27.4693C47.2129 27.4069 47.4315 26.579 47.7791 26.5322C48.1188 26.4853 48.5483 27.2233 48.8998 27.1921C49.2395 27.1608 49.5363 26.3603 49.8877 26.3447C50.2314 26.3291 50.5945 27.1023 50.9421 27.1023C51.2896 27.1023 51.6527 26.3291 51.9964 26.3447C52.3439 26.3603 52.6368 27.1647 52.9765 27.196C53.324 27.2272 53.7575 26.4931 54.0972 26.5439C54.4408 26.5946 54.6517 27.4225 54.9875 27.4889C55.3312 27.5552 55.8388 26.8719 56.1707 26.9578C56.5065 27.0437 56.6237 27.8911 56.9517 27.9926C57.2836 28.098 57.8655 27.4732 58.1857 27.5982C58.5098 27.7231 58.5293 28.5744 58.8417 28.7189C59.158 28.8634 59.8101 28.3128 60.1147 28.4729C60.4193 28.633 60.3333 29.4843 60.6301 29.6639C60.9269 29.8435 61.6415 29.3788 61.9226 29.5741C62.2077 29.7732 62.0164 30.605 62.2858 30.8197C62.5552 31.0345 63.3245 30.6596 63.5783 30.89C63.8361 31.1204 63.5471 31.9248 63.7892 32.1708C64.0313 32.4168 64.8357 32.1357 65.0661 32.3934C65.2926 32.6511 64.9138 33.4165 65.1286 33.6898C65.3394 33.9593 66.1712 33.7718 66.3703 34.0569C66.5656 34.3381 66.1048 35.0566 66.2883 35.3494C66.468 35.6423 67.3192 35.5408 67.4871 35.8454C67.655 36.146 67.1201 36.8138 67.2763 37.1262C67.4286 37.4347 68.2798 37.419 68.4204 37.7353C68.5571 38.0477 67.9635 38.6647 68.0885 38.9888C68.2095 39.309 69.0608 39.3715 69.1741 39.6995C69.2834 40.0236 68.6391 40.5859 68.7367 40.9217C68.8304 41.2497 69.6739 41.3825 69.7598 41.7183C69.8418 42.0502 69.1545 42.5618 69.2287 42.9015C69.3029 43.2139 70.1347 43.4092 70.1932 43.7528Z" stroke="#6565F2" stroke-width="1.1066" stroke-miterlimit="10"/>
<path d="M70.7399 47.8608C69.3459 47.443 67.8269 48.06 66.6749 49.3369C66.2376 38.9694 59.1306 30.773 50.5672 30.9096C42.1287 31.0463 35.3654 39.2154 35.0647 49.3759C33.9596 48.4661 32.6437 48.0912 31.4527 48.4934C29.2893 49.2237 28.3405 52.2148 29.3401 55.1786C30.3359 58.1425 32.9014 59.9543 35.0647 59.228C35.6387 59.0328 36.1268 58.6774 36.5173 58.2049C39.075 64.9604 44.7137 69.619 51.192 69.5175C57.8147 69.412 63.4065 64.3513 65.6479 57.2678C66.097 57.9628 66.7179 58.4744 67.4793 58.7048C69.6661 59.3647 72.1691 57.4708 73.0712 54.4758C73.9693 51.4807 72.9267 48.5169 70.7399 47.8608Z" fill="#CAB3FC" stroke="#CAB3FC" stroke-width="1.1178" stroke-miterlimit="10"/>
<path opacity="0.42" d="M47.6502 57.9432C47.5682 60.6025 45.3385 62.6955 42.6636 62.6135C39.9927 62.5315 37.8918 60.3096 37.9699 57.6504C38.052 54.9911 40.2817 52.8981 42.9565 52.9801C45.6275 53.0582 47.7283 55.2801 47.6502 57.9432Z" fill="#9B44D6" stroke="#9B44D6" stroke-width="1.2192" stroke-miterlimit="10"/>
<path opacity="0.42" d="M64.5897 57.9432C64.5077 60.6025 62.278 62.6955 59.6031 62.6135C56.9322 62.5315 54.8313 60.3096 54.9094 57.6504C54.9914 54.9911 57.2211 52.8981 59.896 52.9801C62.567 53.0582 64.6678 55.2801 64.5897 57.9432Z" fill="#9B44D6" stroke="#9B44D6" stroke-width="1.2192" stroke-miterlimit="10"/>
<path d="M59.4391 51.1095C59.4469 52.117 58.8729 52.9409 58.1544 52.9448C57.4359 52.9488 56.8502 52.1365 56.8424 51.1291C56.8346 50.1216 57.4125 49.2977 58.1271 49.2938C58.8456 49.2859 59.4352 50.1021 59.4391 51.1095Z" fill="#09182D" stroke="#09182D" stroke-width="0.9489" stroke-miterlimit="10"/>
<path d="M46.0453 51.1293C46.0375 52.1367 45.4478 52.949 44.7332 52.945C44.0186 52.9372 43.4446 52.1172 43.4524 51.1097C43.4602 50.1023 44.0499 49.2901 44.7645 49.294C45.4791 49.2979 46.0531 50.1218 46.0453 51.1293Z" fill="#09182D" stroke="#09182D" stroke-width="0.9489" stroke-miterlimit="10"/>
<path d="M38.8486 46.7828C38.8486 46.7828 42.1365 42.9599 48.7514 45.709L38.8486 46.7828Z" fill="#09182D"/>
<path d="M38.8251 46.7633C39.0438 46.3494 39.3757 46.0292 39.7076 45.7011C40.063 45.4044 40.4418 45.1232 40.8635 44.9202C40.9689 44.8655 41.0704 44.8069 41.1759 44.7562L41.5039 44.6312L41.8358 44.5062L42.1755 44.4086C42.6285 44.2758 43.0971 44.229 43.5657 44.1704C44.5029 44.1275 45.44 44.229 46.3225 44.4906C46.7677 44.6078 47.1855 44.8069 47.6034 44.9748C48.0017 45.2052 48.4 45.4161 48.7709 45.6777L48.7748 45.6816C48.7904 45.6933 48.7904 45.7129 48.7826 45.7246C48.7748 45.7363 48.7592 45.7402 48.7475 45.7363L47.5057 45.2911C47.0801 45.1896 46.6584 45.049 46.2288 44.9748C45.7954 44.9045 45.3658 44.8147 44.9246 44.8069C44.4872 44.7601 44.0499 44.7835 43.6125 44.7991C42.7417 44.8616 41.8749 45.0412 41.0626 45.377C40.2543 45.7089 39.489 46.1775 38.8798 46.8023C38.8681 46.814 38.8486 46.814 38.8368 46.8023C38.8251 46.7906 38.8251 46.7789 38.829 46.7633H38.8251Z" fill="#09182D"/>
<path d="M53.7106 45.674C53.7106 45.674 57.7834 42.6907 63.6018 46.8572L53.7106 45.674Z" fill="#09182D"/>
<path d="M53.6911 45.6505C53.9957 45.299 54.394 45.0608 54.7884 44.8148C55.1984 44.604 55.6358 44.4165 56.0926 44.315L56.4323 44.2252L56.7799 44.1744L57.1313 44.1276L57.4828 44.1119C57.9553 44.0846 58.4239 44.1432 58.8885 44.1939C59.814 44.3619 60.7004 44.6703 61.5009 45.1272C61.907 45.342 62.2702 45.6309 62.6372 45.8887C62.9731 46.205 63.3167 46.4978 63.6174 46.8376L63.6213 46.8415C63.633 46.8532 63.633 46.8727 63.6174 46.8844C63.6057 46.8922 63.59 46.8961 63.5783 46.8883L62.4693 46.1776C62.0749 45.9824 61.7001 45.752 61.294 45.5802C60.8878 45.4162 60.4895 45.2326 60.0639 45.1233C59.65 44.9788 59.2165 44.9046 58.787 44.8187C57.924 44.6821 57.0376 44.6664 56.1746 44.807C55.3116 44.9476 54.4604 45.2326 53.7262 45.7051C53.7106 45.713 53.6911 45.709 53.6833 45.6973C53.6755 45.6856 53.6755 45.67 53.6872 45.6583L53.6911 45.6505Z" fill="#09182D"/>
<path d="M45.9164 55.3661C46.5217 56.3228 47.3066 57.1076 48.2516 57.5372C49.1966 57.9706 50.2665 58.1073 51.3325 58.1229C51.8441 58.1268 52.3556 58.0604 52.8516 57.9121C53.3553 57.7832 53.8317 57.5684 54.2925 57.3107C54.7454 57.0452 55.1789 56.7289 55.5537 56.3501C55.9481 55.983 56.2566 55.5301 56.4831 55.0146L56.487 55.0107C56.4909 54.999 56.5065 54.9912 56.5222 54.999C56.5339 55.0029 56.5417 55.0185 56.5378 55.0302C56.2723 56.147 55.4522 57.0413 54.5268 57.67C53.5857 58.2947 52.465 58.6657 51.3286 58.6579C50.204 58.6306 49.0521 58.4548 48.0524 57.9082C47.045 57.3732 46.3069 56.4282 45.8657 55.3973C45.8618 55.3856 45.8657 55.37 45.8813 55.3621C45.893 55.3465 45.9047 55.3504 45.9164 55.3661Z" fill="#09182D"/>
<g opacity="0.52">
<path d="M51.0436 51.1174L50.5789 55.4441L52.1916 55.0419" fill="#9B44D6"/>
<path d="M51.0436 51.1174L50.5789 55.4441L52.1916 55.0419" stroke="#09182D" stroke-width="1.0352" stroke-miterlimit="10"/>
</g>
<path d="M51.0436 51.1174L50.5789 55.4441L52.1916 55.0419" stroke="#09182D" stroke-width="1.0352" stroke-miterlimit="10"/>
<path d="M69.998 51.8594L67.9362 56.0571" stroke="#09182D" stroke-width="0.9411" stroke-miterlimit="10"/>
<path d="M31.9603 51.9297L34.3032 55.983" stroke="#09182D" stroke-width="0.9411" stroke-miterlimit="10"/>
<path d="M50.8249 23.1699C39.981 23.1699 31.191 32.284 31.191 43.5223H70.4627C70.4588 32.284 61.6688 23.1699 50.8249 23.1699ZM55.2804 41.2028H46.3694C45.4635 41.2028 44.7215 40.4608 44.7215 39.5549C44.7215 38.649 45.4635 37.907 46.3694 37.907H55.2804C56.1863 37.907 56.9283 38.649 56.9283 39.5549C56.9283 40.4608 56.1863 41.2028 55.2804 41.2028Z" fill="black" stroke="black" stroke-width="1.104" stroke-miterlimit="10"/>
<circle cx="50" cy="50" r="48.5" stroke="#26C6DA" stroke-width="3"/>
</g>
</svg>
